# Blender v2.72 (sub 0) OBJ File: 'ORAS Map Lighting.blend'
# www.blender.org
mtllib mizugoroudoll.mtl
o mizugoroudoll1
v 0.395567 0.733012 0.060815
v 0.605733 0.746949 0.009838
v 0.395186 0.704103 0.033978
v 0.395186 0.704103 0.033978
v 0.605733 0.746949 0.009838
v 0.499820 0.607161 0.049850
v 0.605733 0.746949 0.009838
v 0.526716 0.612270 0.082855
v 0.499820 0.607161 0.049850
v 0.526716 0.612270 0.082855
v 0.614674 0.482039 0.042585
v 0.499820 0.607161 0.049850
v 0.395186 0.704103 0.033978
v 0.499820 0.607161 0.049850
v 0.372793 0.565826 0.020715
v 0.499820 0.607161 0.049850
v 0.614674 0.482039 0.042585
v 0.471483 0.538667 0.038886
v 0.499820 0.607161 0.049850
v 0.471483 0.538667 0.038886
v 0.372793 0.565826 0.020715
v 0.471483 0.538667 0.038886
v 0.614674 0.482039 0.042585
v 0.466551 0.477390 0.064247
v 0.471483 0.538667 0.038886
v 0.466551 0.477390 0.064247
v 0.372793 0.565826 0.020715
v 0.372793 0.565826 0.020715
v 0.466551 0.477390 0.064247
v 0.327302 0.442514 0.067551
v 0.614674 0.482039 0.042585
v 0.488241 0.462580 0.101359
v 0.466551 0.477390 0.064247
v 0.466551 0.477390 0.064247
v 0.452387 0.319480 0.062679
v 0.327302 0.442514 0.067551
v 0.466551 0.477390 0.064247
v 0.488241 0.462580 0.101359
v 0.452387 0.319480 0.062679
v 0.452387 0.319480 0.062679
v 0.307629 0.430742 0.105294
v 0.327302 0.442514 0.067551
v 0.395567 0.733012 0.060815
v 0.410587 0.713238 0.107898
v 0.605733 0.746949 0.009838
v 0.605733 0.746949 0.009838
v 0.410587 0.713238 0.107898
v 0.499820 0.615351 0.116109
v 0.605733 0.746949 0.009838
v 0.499820 0.615351 0.116109
v 0.526716 0.612270 0.082855
v 0.526716 0.612270 0.082855
v 0.499820 0.615351 0.116109
v 0.614674 0.482039 0.042585
v 0.499820 0.615351 0.116109
v 0.410587 0.713238 0.107898
v 0.471483 0.551589 0.143423
v 0.499820 0.615351 0.116109
v 0.471483 0.551589 0.143423
v 0.614674 0.482039 0.042585
v 0.410587 0.713238 0.107898
v 0.372793 0.564608 0.154433
v 0.471483 0.551589 0.143423
v 0.372793 0.564608 0.154433
v 0.335000 0.444079 0.141170
v 0.471483 0.551589 0.143423
v 0.471483 0.551589 0.143423
v 0.466551 0.485981 0.133747
v 0.614674 0.482039 0.042585
v 0.471483 0.551589 0.143423
v 0.335000 0.444079 0.141170
v 0.466551 0.485981 0.133747
v 0.614674 0.482039 0.042585
v 0.466551 0.485981 0.133747
v 0.488241 0.462580 0.101359
v 0.488241 0.462580 0.101359
v 0.466551 0.485981 0.133747
v 0.452387 0.319480 0.062679
v 0.466551 0.485981 0.133747
v 0.335000 0.444079 0.141170
v 0.452387 0.319480 0.062679
v 0.452387 0.319480 0.062679
v 0.335000 0.444079 0.141170
v 0.307629 0.430742 0.105294
v -0.395567 0.733012 0.060815
v -0.395186 0.704103 0.033978
v -0.605733 0.746949 0.009838
v -0.605733 0.746949 0.009838
v -0.395186 0.704103 0.033978
v -0.499820 0.607161 0.049850
v -0.395186 0.704103 0.033978
v -0.372793 0.565826 0.020715
v -0.499820 0.607161 0.049850
v -0.605733 0.746949 0.009838
v -0.499820 0.607161 0.049850
v -0.526716 0.612270 0.082855
v -0.526716 0.612270 0.082855
v -0.499820 0.607161 0.049850
v -0.614674 0.482039 0.042585
v -0.499820 0.607161 0.049850
v -0.372793 0.565826 0.020715
v -0.471483 0.538667 0.038886
v -0.499820 0.607161 0.049850
v -0.471483 0.538667 0.038886
v -0.614674 0.482039 0.042585
v -0.471483 0.538667 0.038886
v -0.372793 0.565826 0.020715
v -0.466551 0.477390 0.064247
v -0.471483 0.538667 0.038886
v -0.466551 0.477390 0.064247
v -0.614674 0.482039 0.042585
v -0.614674 0.482039 0.042585
v -0.466551 0.477390 0.064247
v -0.488241 0.462580 0.101359
v -0.488241 0.462580 0.101359
v -0.466551 0.477390 0.064247
v -0.452387 0.319480 0.062679
v -0.466551 0.477390 0.064247
v -0.372793 0.565826 0.020715
v -0.327302 0.442514 0.067551
v -0.466551 0.477390 0.064247
v -0.327302 0.442514 0.067551
v -0.452387 0.319480 0.062679
v -0.452387 0.319480 0.062679
v -0.327302 0.442514 0.067551
v -0.307629 0.430742 0.105294
v -0.395567 0.733012 0.060815
v -0.605733 0.746949 0.009838
v -0.410587 0.713238 0.107898
v -0.605733 0.746949 0.009838
v -0.499820 0.615351 0.116109
v -0.410587 0.713238 0.107898
v -0.605733 0.746949 0.009838
v -0.526716 0.612270 0.082855
v -0.499820 0.615351 0.116109
v -0.526716 0.612270 0.082855
v -0.614674 0.482039 0.042585
v -0.499820 0.615351 0.116109
v -0.499820 0.615351 0.116109
v -0.471483 0.551589 0.143423
v -0.410587 0.713238 0.107898
v -0.499820 0.615351 0.116109
v -0.614674 0.482039 0.042585
v -0.471483 0.551589 0.143423
v -0.410587 0.713238 0.107898
v -0.471483 0.551589 0.143423
v -0.372793 0.564608 0.154433
v -0.372793 0.564608 0.154433
v -0.471483 0.551589 0.143423
v -0.335000 0.444079 0.141170
v -0.471483 0.551589 0.143423
v -0.614674 0.482039 0.042585
v -0.466551 0.485981 0.133747
v -0.471483 0.551589 0.143423
v -0.466551 0.485981 0.133747
v -0.335000 0.444079 0.141170
v -0.614674 0.482039 0.042585
v -0.488241 0.462580 0.101359
v -0.466551 0.485981 0.133747
v -0.466551 0.485981 0.133747
v -0.452387 0.319480 0.062679
v -0.335000 0.444079 0.141170
v -0.466551 0.485981 0.133747
v -0.488241 0.462580 0.101359
v -0.452387 0.319480 0.062679
v -0.452387 0.319480 0.062679
v -0.307629 0.430742 0.105294
v -0.335000 0.444079 0.141170
v 0.029861 1.048163 0.001257
v 0.000000 1.050641 -0.012149
v 0.032107 1.243780 -0.003526
v 0.029861 1.048163 0.001257
v 0.032107 1.243780 -0.003526
v 0.057860 1.018935 0.177642
v 0.057860 1.018935 0.177642
v 0.032107 1.243780 -0.003526
v 0.063438 1.342103 0.231692
v 0.057860 1.018935 0.177642
v 0.063438 1.342103 0.231692
v 0.029861 0.993296 0.384005
v 0.029861 0.993296 0.384005
v 0.063438 1.342103 0.231692
v 0.032107 1.203777 0.443277
v 0.029861 0.993296 0.384005
v 0.032107 1.203777 0.443277
v 0.000000 0.997305 0.398426
v 0.032107 1.203777 0.443277
v 0.063438 1.342103 0.231692
v 0.033625 1.346837 0.440580
v 0.032107 1.203777 0.443277
v 0.000000 1.203777 0.458060
v 0.000000 0.997305 0.398426
v 0.032107 1.203777 0.443277
v 0.033625 1.346837 0.440580
v 0.000000 1.346837 0.457548
v 0.032107 1.203777 0.443277
v 0.000000 1.346837 0.457548
v 0.000000 1.203777 0.458060
v 0.000000 1.203777 0.458060
v -0.032107 1.203777 0.443277
v 0.000000 0.997305 0.398426
v 0.000000 1.203777 0.458060
v 0.000000 1.346837 0.457548
v -0.032107 1.203777 0.443277
v 0.000000 0.997305 0.398426
v -0.032107 1.203777 0.443277
v -0.029861 0.993296 0.384005
v 0.033625 1.346837 0.440580
v 0.063438 1.342103 0.231692
v 0.032916 1.464813 0.369861
v 0.033625 1.346837 0.440580
v 0.000000 1.466221 0.386839
v 0.000000 1.346837 0.457548
v 0.033625 1.346837 0.440580
v 0.032916 1.464813 0.369861
v 0.000000 1.466221 0.386839
v 0.000000 1.346837 0.457548
v -0.033625 1.346837 0.440580
v -0.032107 1.203777 0.443277
v 0.000000 1.346837 0.457548
v 0.000000 1.466221 0.386839
v -0.033625 1.346837 0.440580
v -0.032107 1.203777 0.443277
v -0.063438 1.342103 0.231692
v -0.029861 0.993296 0.384005
v -0.032107 1.203777 0.443277
v -0.033625 1.346837 0.440580
v -0.063438 1.342103 0.231692
v -0.033625 1.346837 0.440580
v 0.000000 1.466221 0.386839
v -0.032916 1.464813 0.369861
v -0.033625 1.346837 0.440580
v -0.032916 1.464813 0.369861
v -0.063438 1.342103 0.231692
v 0.000000 1.466221 0.386839
v 0.032916 1.464813 0.369861
v 0.000000 1.559669 0.233755
v 0.000000 1.466221 0.386839
v 0.000000 1.559669 0.233755
v -0.032916 1.464813 0.369861
v -0.032916 1.464813 0.369861
v -0.037377 1.545698 0.232952
v -0.063438 1.342103 0.231692
v -0.032916 1.464813 0.369861
v 0.000000 1.559669 0.233755
v -0.037377 1.545698 0.232952
v -0.037377 1.545698 0.232952
v -0.040013 1.518799 0.101024
v -0.063438 1.342103 0.231692
v -0.037377 1.545698 0.232952
v 0.000000 1.559669 0.233755
v -0.040013 1.518799 0.101024
v 0.032916 1.464813 0.369861
v 0.063438 1.342103 0.231692
v 0.037377 1.545698 0.232952
v 0.032916 1.464813 0.369861
v 0.037377 1.545698 0.232952
v 0.000000 1.559669 0.233755
v 0.037377 1.545698 0.232952
v 0.063438 1.342103 0.231692
v 0.040013 1.518799 0.101024
v 0.037377 1.545698 0.232952
v 0.040013 1.518799 0.101024
v 0.000000 1.559669 0.233755
v 0.000000 1.559669 0.233755
v 0.000000 1.532899 0.092583
v -0.040013 1.518799 0.101024
v 0.000000 1.559669 0.233755
v 0.040013 1.518799 0.101024
v 0.000000 1.532899 0.092583
v 0.040013 1.518799 0.101024
v 0.063438 1.342103 0.231692
v 0.034314 1.412295 0.010387
v 0.063438 1.342103 0.231692
v 0.032107 1.243780 -0.003526
v 0.034314 1.412295 0.010387
v 0.040013 1.518799 0.101024
v 0.034314 1.412295 0.010387
v 0.000000 1.532899 0.092583
v 0.034314 1.412295 0.010387
v 0.032107 1.243780 -0.003526
v 0.000000 1.412295 -0.003526
v 0.034314 1.412295 0.010387
v 0.000000 1.412295 -0.003526
v 0.000000 1.532899 0.092583
v 0.000000 1.532899 0.092583
v -0.034314 1.412295 0.010387
v -0.040013 1.518799 0.101024
v -0.040013 1.518799 0.101024
v -0.034314 1.412295 0.010387
v -0.063438 1.342103 0.231692
v 0.000000 1.532899 0.092583
v 0.000000 1.412295 -0.003526
v -0.034314 1.412295 0.010387
v -0.034314 1.412295 0.010387
v -0.032107 1.243780 -0.003526
v -0.063438 1.342103 0.231692
v -0.034314 1.412295 0.010387
v 0.000000 1.412295 -0.003526
v -0.032107 1.243780 -0.003526
v 0.000000 1.412295 -0.003526
v 0.032107 1.243780 -0.003526
v 0.000000 1.243780 -0.018309
v 0.000000 1.243780 -0.018309
v 0.032107 1.243780 -0.003526
v 0.000000 1.050641 -0.012149
v 0.000000 1.243780 -0.018309
v -0.032107 1.243780 -0.003526
v 0.000000 1.412295 -0.003526
v 0.000000 1.243780 -0.018309
v 0.000000 1.050641 -0.012149
v -0.032107 1.243780 -0.003526
v 0.000000 1.050641 -0.012149
v -0.029861 1.048163 0.001257
v -0.032107 1.243780 -0.003526
v -0.032107 1.243780 -0.003526
v -0.057860 1.018935 0.177642
v -0.063438 1.342103 0.231692
v -0.057860 1.018935 0.177642
v -0.029861 0.993296 0.384005
v -0.063438 1.342103 0.231692
v -0.057860 1.018935 0.177642
v -0.032107 1.243780 -0.003526
v -0.029861 1.048163 0.001257
v 0.000000 0.058945 -0.115742
v 0.000000 0.091973 -0.211781
v 0.046953 0.058945 -0.116795
v 0.000000 0.058945 -0.115742
v -0.046953 0.058945 -0.116795
v 0.000000 0.091973 -0.211781
v 0.000000 0.091973 -0.211781
v 0.026368 0.097898 -0.209810
v 0.046953 0.058945 -0.116795
v 0.046953 0.058945 -0.116795
v 0.026368 0.097898 -0.209810
v 0.048490 0.058945 -0.200185
v 0.046953 0.058945 -0.116795
v 0.048490 0.058945 -0.200185
v 0.081059 0.016129 -0.130204
v 0.026368 0.097898 -0.209810
v 0.000000 0.091973 -0.211781
v 0.082190 0.142842 -0.290920
v 0.026368 0.097898 -0.209810
v 0.103322 0.058945 -0.249949
v 0.048490 0.058945 -0.200185
v 0.026368 0.097898 -0.209810
v 0.082190 0.142842 -0.290920
v 0.103322 0.058945 -0.249949
v 0.048490 0.058945 -0.200185
v 0.083228 0.016885 -0.185553
v 0.081059 0.016129 -0.130204
v 0.048490 0.058945 -0.200185
v 0.103322 0.058945 -0.249949
v 0.083228 0.016885 -0.185553
v 0.081059 0.016129 -0.130204
v 0.083228 0.016885 -0.185553
v 0.137629 0.005370 -0.155084
v 0.083228 0.016885 -0.185553
v 0.103322 0.058945 -0.249949
v 0.122866 0.016885 -0.216522
v 0.083228 0.016885 -0.185553
v 0.122866 0.016885 -0.216522
v 0.137629 0.005370 -0.155084
v 0.103322 0.058945 -0.249949
v 0.082190 0.142842 -0.290920
v 0.168401 0.058945 -0.242609
v 0.103322 0.058945 -0.249949
v 0.168401 0.058945 -0.242609
v 0.122866 0.016885 -0.216522
v 0.122866 0.016885 -0.216522
v 0.162388 0.016890 -0.209347
v 0.137629 0.005370 -0.155084
v 0.122866 0.016885 -0.216522
v 0.168401 0.058945 -0.242609
v 0.162388 0.016890 -0.209347
v 0.162388 0.016890 -0.209347
v 0.193432 0.016885 -0.172755
v 0.137629 0.005370 -0.155084
v 0.162388 0.016890 -0.209347
v 0.168401 0.058945 -0.242609
v 0.193432 0.016885 -0.172755
v 0.193432 0.016885 -0.172755
v 0.188567 0.016885 -0.126487
v 0.137629 0.005370 -0.155084
v 0.193432 0.016885 -0.172755
v 0.168401 0.058945 -0.242609
v 0.218102 0.058945 -0.184876
v 0.193432 0.016885 -0.172755
v 0.217808 0.058943 -0.112989
v 0.188567 0.016885 -0.126487
v 0.193432 0.016885 -0.172755
v 0.218102 0.058945 -0.184876
v 0.217808 0.058943 -0.112989
v 0.188567 0.016885 -0.126487
v 0.157512 0.018280 -0.090386
v 0.137629 0.005370 -0.155084
v 0.188567 0.016885 -0.126487
v 0.217808 0.058943 -0.112989
v 0.157512 0.018280 -0.090386
v 0.168401 0.058945 -0.242609
v 0.082190 0.142842 -0.290920
v 0.183697 0.132451 -0.254780
v 0.168401 0.058945 -0.242609
v 0.238999 0.133328 -0.194959
v 0.218102 0.058945 -0.184876
v 0.168401 0.058945 -0.242609
v 0.183697 0.132451 -0.254780
v 0.238999 0.133328 -0.194959
v 0.218102 0.058945 -0.184876
v 0.232141 0.105973 -0.102339
v 0.217808 0.058943 -0.112989
v 0.218102 0.058945 -0.184876
v 0.238999 0.133328 -0.194959
v 0.232141 0.105973 -0.102339
v 0.217808 0.058943 -0.112989
v 0.161595 0.058934 -0.059941
v 0.157512 0.018280 -0.090386
v 0.217808 0.058943 -0.112989
v 0.232141 0.105973 -0.102339
v 0.161595 0.058934 -0.059941
v 0.183697 0.132451 -0.254780
v 0.082190 0.142842 -0.290920
v 0.092979 0.219072 -0.262790
v 0.183697 0.132451 -0.254780
v 0.193947 0.210029 -0.200241
v 0.238999 0.133328 -0.194959
v 0.183697 0.132451 -0.254780
v 0.092979 0.219072 -0.262790
v 0.193947 0.210029 -0.200241
v 0.193947 0.210029 -0.200241
v 0.265555 0.201342 -0.119790
v 0.238999 0.133328 -0.194959
v 0.238999 0.133328 -0.194959
v 0.250433 0.149240 -0.091182
v 0.232141 0.105973 -0.102339
v 0.238999 0.133328 -0.194959
v 0.265555 0.201342 -0.119790
v 0.250433 0.149240 -0.091182
v 0.232141 0.105973 -0.102339
v 0.164127 0.090496 -0.052988
v 0.161595 0.058934 -0.059941
v 0.232141 0.105973 -0.102339
v 0.250433 0.149240 -0.091182
v 0.164127 0.090496 -0.052988
v 0.161595 0.058934 -0.059941
v 0.086899 0.058945 -0.062634
v 0.157512 0.018280 -0.090386
v 0.161595 0.058934 -0.059941
v 0.164127 0.090496 -0.052988
v 0.086899 0.058945 -0.062634
v 0.164127 0.090496 -0.052988
v 0.250433 0.149240 -0.091182
v 0.160238 0.089642 0.019861
v 0.164127 0.090496 -0.052988
v 0.160238 0.089642 0.019861
v 0.086899 0.058945 -0.062634
v 0.250433 0.149240 -0.091182
v 0.265555 0.201342 -0.119790
v 0.283842 0.142906 0.040539
v 0.250433 0.149240 -0.091182
v 0.283842 0.142906 0.040539
v 0.160238 0.089642 0.019861
v 0.157512 0.018280 -0.090386
v 0.108109 0.018301 -0.094337
v 0.137629 0.005370 -0.155084
v 0.157512 0.018280 -0.090386
v 0.086899 0.058945 -0.062634
v 0.108109 0.018301 -0.094337
v 0.108109 0.018301 -0.094337
v 0.081059 0.016129 -0.130204
v 0.137629 0.005370 -0.155084
v 0.108109 0.018301 -0.094337
v 0.086899 0.058945 -0.062634
v 0.081059 0.016129 -0.130204
v 0.081059 0.016129 -0.130204
v 0.086899 0.058945 -0.062634
v 0.046953 0.058945 -0.116795
v 0.086899 0.058945 -0.062634
v 0.160238 0.089642 0.019861
v 0.048258 0.069579 0.073591
v 0.086899 0.058945 -0.062634
v 0.048258 0.069579 0.073591
v 0.046953 0.058945 -0.116795
v 0.046953 0.058945 -0.116795
v 0.048258 0.069579 0.073591
v 0.000000 0.059954 0.162469
v 0.046953 0.058945 -0.116795
v 0.000000 0.059954 0.162469
v 0.000000 0.058945 -0.115742
v 0.000000 0.058945 -0.115742
v 0.000000 0.059954 0.162469
v -0.046953 0.058945 -0.116795
v 0.000000 0.059954 0.162469
v 0.048258 0.069579 0.073591
v 0.035015 0.069583 0.159136
v 0.035015 0.069583 0.159136
v 0.048258 0.069579 0.073591
v 0.081621 0.015035 0.149860
v 0.048258 0.069579 0.073591
v 0.160238 0.089642 0.019861
v 0.129896 0.022438 0.079439
v 0.048258 0.069579 0.073591
v 0.091965 0.019825 0.107466
v 0.081621 0.015035 0.149860
v 0.048258 0.069579 0.073591
v 0.129896 0.022438 0.079439
v 0.091965 0.019825 0.107466
v 0.091965 0.019825 0.107466
v 0.144314 0.003883 0.139192
v 0.081621 0.015035 0.149860
v 0.091965 0.019825 0.107466
v 0.129896 0.022438 0.079439
v 0.144314 0.003883 0.139192
v 0.129896 0.022438 0.079439
v 0.160238 0.089642 0.019861
v 0.176973 0.020682 0.088417
v 0.129896 0.022438 0.079439
v 0.176973 0.020682 0.088417
v 0.144314 0.003883 0.139192
v 0.160238 0.089642 0.019861
v 0.283842 0.142906 0.040539
v 0.220859 0.069583 0.055753
v 0.160238 0.089642 0.019861
v 0.220859 0.069583 0.055753
v 0.176973 0.020682 0.088417
v 0.176973 0.020682 0.088417
v 0.207797 0.020682 0.131443
v 0.144314 0.003883 0.139192
v 0.176973 0.020682 0.088417
v 0.220859 0.069583 0.055753
v 0.207797 0.020682 0.131443
v 0.220859 0.069583 0.055753
v 0.283842 0.142906 0.040539
v 0.263904 0.069583 0.124373
v 0.220859 0.069583 0.055753
v 0.263904 0.069583 0.124373
v 0.207797 0.020682 0.131443
v 0.283842 0.142906 0.040539
v 0.265555 0.201342 -0.119790
v 0.300037 0.279250 0.073068
v 0.283842 0.142906 0.040539
v 0.301820 0.142853 0.120231
v 0.263904 0.069583 0.124373
v 0.283842 0.142906 0.040539
v 0.300037 0.279250 0.073068
v 0.301820 0.142853 0.120231
v 0.263904 0.069583 0.124373
v 0.241719 0.069583 0.196386
v 0.207797 0.020682 0.131443
v 0.263904 0.069583 0.124373
v 0.301820 0.142853 0.120231
v 0.241719 0.069583 0.196386
v 0.207797 0.020682 0.131443
v 0.195410 0.020682 0.167783
v 0.144314 0.003883 0.139192
v 0.207797 0.020682 0.131443
v 0.241719 0.069583 0.196386
v 0.195410 0.020682 0.167783
v 0.195410 0.020682 0.167783
v 0.164142 0.020682 0.197286
v 0.144314 0.003883 0.139192
v 0.195410 0.020682 0.167783
v 0.241719 0.069583 0.196386
v 0.164142 0.020682 0.197286
v 0.301820 0.142853 0.120231
v 0.300037 0.279250 0.073068
v 0.280770 0.267370 0.206014
v 0.301820 0.142853 0.120231
v 0.275747 0.146889 0.199760
v 0.241719 0.069583 0.196386
v 0.301820 0.142853 0.120231
v 0.280770 0.267370 0.206014
v 0.275747 0.146889 0.199760
v 0.275747 0.146889 0.199760
v 0.189866 0.153015 0.264786
v 0.241719 0.069583 0.196386
v 0.275747 0.146889 0.199760
v 0.280770 0.267370 0.206014
v 0.189866 0.153015 0.264786
v 0.241719 0.069583 0.196386
v 0.178668 0.069583 0.236453
v 0.164142 0.020682 0.197286
v 0.241719 0.069583 0.196386
v 0.189866 0.153015 0.264786
v 0.178668 0.069583 0.236453
v 0.178668 0.069583 0.236453
v 0.085752 0.069583 0.236453
v 0.164142 0.020682 0.197286
v 0.178668 0.069583 0.236453
v 0.189866 0.153015 0.264786
v 0.085752 0.069583 0.236453
v 0.164142 0.020682 0.197286
v 0.110587 0.020682 0.193795
v 0.144314 0.003883 0.139192
v 0.164142 0.020682 0.197286
v 0.085752 0.069583 0.236453
v 0.110587 0.020682 0.193795
v 0.110587 0.020682 0.193795
v 0.081621 0.015035 0.149860
v 0.144314 0.003883 0.139192
v 0.110587 0.020682 0.193795
v 0.085752 0.069583 0.236453
v 0.081621 0.015035 0.149860
v 0.081621 0.015035 0.149860
v 0.085752 0.069583 0.236453
v 0.035015 0.069583 0.159136
v 0.085752 0.069583 0.236453
v 0.189866 0.153015 0.264786
v 0.117531 0.153700 0.255448
v 0.085752 0.069583 0.236453
v 0.117531 0.153700 0.255448
v 0.035015 0.069583 0.159136
v 0.035015 0.069583 0.159136
v 0.117531 0.153700 0.255448
v 0.000000 0.059954 0.162469
v 0.189866 0.153015 0.264786
v 0.280770 0.267370 0.206014
v 0.194268 0.258477 0.263437
v 0.189866 0.153015 0.264786
v 0.194268 0.258477 0.263437
v 0.117531 0.153700 0.255448
v 0.300037 0.279250 0.073068
v 0.265555 0.201342 -0.119790
v 0.250520 0.278957 -0.078819
v 0.265555 0.201342 -0.119790
v 0.193947 0.210029 -0.200241
v 0.250520 0.278957 -0.078819
v 0.300037 0.279250 0.073068
v 0.277908 0.364122 0.130115
v 0.280770 0.267370 0.206014
v 0.300037 0.279250 0.073068
v 0.250520 0.278957 -0.078819
v 0.277908 0.364122 0.130115
v 0.280770 0.267370 0.206014
v 0.189642 0.346456 0.269697
v 0.194268 0.258477 0.263437
v 0.280770 0.267370 0.206014
v 0.277908 0.364122 0.130115
v 0.262079 0.359490 0.196733
v 0.280770 0.267370 0.206014
v 0.262079 0.359490 0.196733
v 0.189642 0.346456 0.269697
v 0.250520 0.278957 -0.078819
v 0.193947 0.210029 -0.200241
v 0.181111 0.288900 -0.151218
v 0.193947 0.210029 -0.200241
v 0.092979 0.219072 -0.262790
v 0.181111 0.288900 -0.151218
v 0.250520 0.278957 -0.078819
v 0.210475 0.361929 -0.000772
v 0.277908 0.364122 0.130115
v 0.250520 0.278957 -0.078819
v 0.181111 0.288900 -0.151218
v 0.210475 0.361929 -0.000772
v 0.194268 0.258477 0.263437
v 0.097259 0.257258 0.294280
v 0.117531 0.153700 0.255448
v 0.194268 0.258477 0.263437
v 0.189642 0.346456 0.269697
v 0.094973 0.333183 0.299315
v 0.194268 0.258477 0.263437
v 0.094973 0.333183 0.299315
v 0.097259 0.257258 0.294280
v 0.189642 0.346456 0.269697
v 0.262079 0.359490 0.196733
v 0.221284 0.404510 0.390259
v 0.189642 0.346456 0.269697
v 0.221284 0.404510 0.390259
v 0.094973 0.333183 0.299315
v 0.277908 0.364122 0.130115
v 0.210475 0.361929 -0.000772
v 0.316085 0.451186 -0.016954
v 0.277908 0.364122 0.130115
v 0.347205 0.443840 0.134194
v 0.262079 0.359490 0.196733
v 0.277908 0.364122 0.130115
v 0.316085 0.451186 -0.016954
v 0.347205 0.443840 0.134194
v 0.262079 0.359490 0.196733
v 0.310539 0.420902 0.280507
v 0.221284 0.404510 0.390259
v 0.262079 0.359490 0.196733
v 0.347205 0.443840 0.134194
v 0.310539 0.420902 0.280507
v 0.181111 0.288900 -0.151218
v 0.092979 0.219072 -0.262790
v 0.100167 0.312773 -0.183365
v 0.181111 0.288900 -0.151218
v 0.110336 0.390795 -0.074647
v 0.210475 0.361929 -0.000772
v 0.181111 0.288900 -0.151218
v 0.100167 0.312773 -0.183365
v 0.110336 0.390795 -0.074647
v 0.210475 0.361929 -0.000772
v 0.212754 0.457340 -0.109550
v 0.316085 0.451186 -0.016954
v 0.210475 0.361929 -0.000772
v 0.110336 0.390795 -0.074647
v 0.212754 0.457340 -0.109550
v 0.117531 0.153700 0.255448
v 0.000000 0.151918 0.267903
v 0.000000 0.059954 0.162469
v 0.117531 0.153700 0.255448
v 0.097259 0.257258 0.294280
v 0.000000 0.257758 0.312166
v 0.117531 0.153700 0.255448
v 0.000000 0.257758 0.312166
v 0.000000 0.151918 0.267903
v 0.000000 0.151918 0.267903
v -0.117531 0.153700 0.255448
v 0.000000 0.059954 0.162469
v 0.000000 0.151918 0.267903
v 0.000000 0.257758 0.312166
v -0.117531 0.153700 0.255448
v 0.000000 0.059954 0.162469
v -0.117531 0.153700 0.255448
v -0.035015 0.069583 0.159136
v 0.097259 0.257258 0.294280
v 0.094973 0.333183 0.299315
v 0.000000 0.329290 0.323141
v 0.097259 0.257258 0.294280
v 0.000000 0.329290 0.323141
v 0.000000 0.257758 0.312166
v 0.000000 0.257758 0.312166
v -0.097259 0.257258 0.294280
v -0.117531 0.153700 0.255448
v 0.000000 0.257758 0.312166
v 0.000000 0.329290 0.323141
v -0.097259 0.257258 0.294280
v 0.094973 0.333183 0.299315
v 0.221284 0.404510 0.390259
v 0.000000 0.393797 0.479918
v 0.094973 0.333183 0.299315
v 0.000000 0.393797 0.479918
v 0.000000 0.329290 0.323141
v 0.000000 0.329290 0.323141
v -0.094973 0.333183 0.299315
v -0.097259 0.257258 0.294280
v 0.000000 0.329290 0.323141
v 0.000000 0.393797 0.479918
v -0.094973 0.333183 0.299315
v -0.097259 0.257258 0.294280
v -0.194268 0.258477 0.263437
v -0.117531 0.153700 0.255448
v -0.097259 0.257258 0.294280
v -0.094973 0.333183 0.299315
v -0.194268 0.258477 0.263437
v 0.347205 0.443840 0.134194
v 0.419074 0.566220 0.144018
v 0.310539 0.420902 0.280507
v 0.310539 0.420902 0.280507
v 0.347660 0.544089 0.345033
v 0.221284 0.404510 0.390259
v 0.310539 0.420902 0.280507
v 0.419074 0.566220 0.144018
v 0.347660 0.544089 0.345033
v 0.347205 0.443840 0.134194
v 0.316085 0.451186 -0.016954
v 0.394316 0.580702 -0.017356
v 0.347205 0.443840 0.134194
v 0.394316 0.580702 -0.017356
v 0.419074 0.566220 0.144018
v 0.419074 0.566220 0.144018
v 0.442784 0.711227 0.157495
v 0.347660 0.544089 0.345033
v 0.419074 0.566220 0.144018
v 0.394316 0.580702 -0.017356
v 0.442784 0.711227 0.157495
v 0.316085 0.451186 -0.016954
v 0.212754 0.457340 -0.109550
v 0.239960 0.589599 -0.188163
v 0.316085 0.451186 -0.016954
v 0.239960 0.589599 -0.188163
v 0.394316 0.580702 -0.017356
v 0.212754 0.457340 -0.109550
v 0.110336 0.390795 -0.074647
v 0.000000 0.461389 -0.175661
v 0.212754 0.457340 -0.109550
v 0.000000 0.461389 -0.175661
v 0.239960 0.589599 -0.188163
v 0.110336 0.390795 -0.074647
v 0.100167 0.312773 -0.183365
v 0.000000 0.412692 -0.122902
v 0.110336 0.390795 -0.074647
v 0.000000 0.412692 -0.122902
v 0.000000 0.461389 -0.175661
v 0.100167 0.312773 -0.183365
v 0.092979 0.219072 -0.262790
v 0.000000 0.350034 -0.195255
v 0.100167 0.312773 -0.183365
v 0.000000 0.350034 -0.195255
v 0.000000 0.412692 -0.122902
v 0.000000 0.393797 0.479918
v 0.221284 0.404510 0.390259
v 0.000000 0.525375 0.591291
v 0.221284 0.404510 0.390259
v 0.347660 0.544089 0.345033
v 0.234004 0.530694 0.481061
v 0.221284 0.404510 0.390259
v 0.234004 0.530694 0.481061
v 0.000000 0.525375 0.591291
v 0.347660 0.544089 0.345033
v 0.442784 0.711227 0.157495
v 0.353877 0.687802 0.361147
v 0.347660 0.544089 0.345033
v 0.353877 0.687802 0.361147
v 0.234004 0.530694 0.481061
v 0.000000 0.393797 0.479918
v -0.221284 0.404510 0.390259
v -0.094973 0.333183 0.299315
v 0.000000 0.393797 0.479918
v 0.000000 0.525375 0.591291
v -0.221284 0.404510 0.390259
v -0.094973 0.333183 0.299315
v -0.189642 0.346456 0.269697
v -0.194268 0.258477 0.263437
v -0.094973 0.333183 0.299315
v -0.221284 0.404510 0.390259
v -0.189642 0.346456 0.269697
v -0.117531 0.153700 0.255448
v -0.085752 0.069583 0.236453
v -0.035015 0.069583 0.159136
v -0.117531 0.153700 0.255448
v -0.194268 0.258477 0.263437
v -0.189866 0.153015 0.264786
v -0.117531 0.153700 0.255448
v -0.189866 0.153015 0.264786
v -0.085752 0.069583 0.236453
v -0.194268 0.258477 0.263437
v -0.189642 0.346456 0.269697
v -0.280770 0.267370 0.206014
v -0.194268 0.258477 0.263437
v -0.280770 0.267370 0.206014
v -0.189866 0.153015 0.264786
v -0.189642 0.346456 0.269697
v -0.221284 0.404510 0.390259
v -0.262079 0.359490 0.196733
v -0.189642 0.346456 0.269697
v -0.262079 0.359490 0.196733
v -0.280770 0.267370 0.206014
v 0.394316 0.580702 -0.017356
v 0.407875 0.726383 -0.014525
v 0.442784 0.711227 0.157495
v 0.394316 0.580702 -0.017356
v 0.239960 0.589599 -0.188163
v 0.246270 0.742859 -0.203077
v 0.394316 0.580702 -0.017356
v 0.246270 0.742859 -0.203077
v 0.407875 0.726383 -0.014525
v 0.407875 0.726383 -0.014525
v 0.373824 0.870397 0.007198
v 0.442784 0.711227 0.157495
v 0.407875 0.726383 -0.014525
v 0.246270 0.742859 -0.203077
v 0.373824 0.870397 0.007198
v 0.000000 0.412692 -0.122902
v -0.110336 0.390795 -0.074647
v 0.000000 0.461389 -0.175661
v 0.000000 0.412692 -0.122902
v 0.000000 0.350034 -0.195255
v -0.100167 0.312773 -0.183365
v 0.000000 0.412692 -0.122902
v -0.100167 0.312773 -0.183365
v -0.110336 0.390795 -0.074647
v 0.234004 0.530694 0.481061
v 0.353877 0.687802 0.361147
v 0.232726 0.672640 0.494562
v 0.234004 0.530694 0.481061
v 0.000000 0.662083 0.615948
v 0.000000 0.525375 0.591291
v 0.234004 0.530694 0.481061
v 0.232726 0.672640 0.494562
v 0.000000 0.662083 0.615948
v 0.232726 0.672640 0.494562
v 0.353877 0.687802 0.361147
v 0.214932 0.805453 0.493671
v 0.232726 0.672640 0.494562
v 0.214932 0.805453 0.493671
v 0.000000 0.662083 0.615948
v 0.353877 0.687802 0.361147
v 0.442784 0.711227 0.157495
v 0.323427 0.823081 0.366324
v 0.353877 0.687802 0.361147
v 0.323427 0.823081 0.366324
v 0.214932 0.805453 0.493671
v 0.442784 0.711227 0.157495
v 0.373824 0.870397 0.007198
v 0.393311 0.851564 0.169923
v 0.442784 0.711227 0.157495
v 0.393311 0.851564 0.169923
v 0.323427 0.823081 0.366324
v 0.000000 0.525375 0.591291
v -0.234004 0.530694 0.481061
v -0.221284 0.404510 0.390259
v 0.000000 0.525375 0.591291
v 0.000000 0.662083 0.615948
v -0.234004 0.530694 0.481061
v 0.239960 0.589599 -0.188163
v 0.000000 0.592296 -0.259553
v 0.000000 0.749353 -0.279586
v 0.239960 0.589599 -0.188163
v 0.000000 0.749353 -0.279586
v 0.246270 0.742859 -0.203077
v 0.239960 0.589599 -0.188163
v 0.000000 0.461389 -0.175661
v 0.000000 0.592296 -0.259553
v 0.000000 0.592296 -0.259553
v -0.239960 0.589599 -0.188163
v 0.000000 0.749353 -0.279586
v 0.000000 0.592296 -0.259553
v 0.000000 0.461389 -0.175661
v -0.239960 0.589599 -0.188163
v 0.000000 0.461389 -0.175661
v -0.110336 0.390795 -0.074647
v -0.212754 0.457340 -0.109550
v 0.000000 0.461389 -0.175661
v -0.212754 0.457340 -0.109550
v -0.239960 0.589599 -0.188163
v -0.100167 0.312773 -0.183365
v 0.000000 0.350034 -0.195255
v -0.092979 0.219072 -0.262790
v -0.100167 0.312773 -0.183365
v -0.181111 0.288900 -0.151218
v -0.110336 0.390795 -0.074647
v -0.100167 0.312773 -0.183365
v -0.092979 0.219072 -0.262790
v -0.181111 0.288900 -0.151218
v -0.110336 0.390795 -0.074647
v -0.210475 0.361929 -0.000772
v -0.212754 0.457340 -0.109550
v -0.110336 0.390795 -0.074647
v -0.181111 0.288900 -0.151218
v -0.210475 0.361929 -0.000772
v -0.212754 0.457340 -0.109550
v -0.316085 0.451186 -0.016954
v -0.239960 0.589599 -0.188163
v -0.212754 0.457340 -0.109550
v -0.210475 0.361929 -0.000772
v -0.316085 0.451186 -0.016954
v 0.214932 0.805453 0.493671
v 0.323427 0.823081 0.366324
v 0.177697 0.947578 0.447958
v 0.323427 0.823081 0.366324
v 0.393311 0.851564 0.169923
v 0.259451 0.958630 0.350367
v 0.323427 0.823081 0.366324
v 0.259451 0.958630 0.350367
v 0.177697 0.947578 0.447958
v 0.393311 0.851564 0.169923
v 0.373824 0.870397 0.007198
v 0.274982 0.976461 0.180615
v 0.393311 0.851564 0.169923
v 0.274982 0.976461 0.180615
v 0.259451 0.958630 0.350367
v 0.214932 0.805453 0.493671
v 0.000000 0.796324 0.595601
v 0.000000 0.662083 0.615948
v 0.214932 0.805453 0.493671
v 0.177697 0.947578 0.447958
v 0.000000 0.796324 0.595601
v 0.246270 0.742859 -0.203077
v 0.221403 0.888207 -0.164898
v 0.373824 0.870397 0.007198
v 0.246270 0.742859 -0.203077
v 0.000000 0.749353 -0.279586
v 0.000000 0.900011 -0.233115
v 0.246270 0.742859 -0.203077
v 0.000000 0.900011 -0.233115
v 0.221403 0.888207 -0.164898
v 0.000000 0.749353 -0.279586
v -0.239960 0.589599 -0.188163
v -0.246270 0.742859 -0.203077
v 0.000000 0.749353 -0.279586
v -0.246270 0.742859 -0.203077
v 0.000000 0.900011 -0.233115
v -0.239960 0.589599 -0.188163
v -0.316085 0.451186 -0.016954
v -0.394316 0.580702 -0.017356
v -0.239960 0.589599 -0.188163
v -0.394316 0.580702 -0.017356
v -0.246270 0.742859 -0.203077
v -0.181111 0.288900 -0.151218
v -0.092979 0.219072 -0.262790
v -0.193947 0.210029 -0.200241
v -0.181111 0.288900 -0.151218
v -0.250520 0.278957 -0.078819
v -0.210475 0.361929 -0.000772
v -0.181111 0.288900 -0.151218
v -0.193947 0.210029 -0.200241
v -0.250520 0.278957 -0.078819
v -0.193947 0.210029 -0.200241
v -0.265555 0.201342 -0.119790
v -0.250520 0.278957 -0.078819
v -0.210475 0.361929 -0.000772
v -0.277908 0.364122 0.130115
v -0.316085 0.451186 -0.016954
v -0.210475 0.361929 -0.000772
v -0.250520 0.278957 -0.078819
v -0.277908 0.364122 0.130115
v -0.250520 0.278957 -0.078819
v -0.265555 0.201342 -0.119790
v -0.300037 0.279250 0.073068
v -0.250520 0.278957 -0.078819
v -0.300037 0.279250 0.073068
v -0.277908 0.364122 0.130115
v -0.316085 0.451186 -0.016954
v -0.347205 0.443840 0.134194
v -0.394316 0.580702 -0.017356
v -0.316085 0.451186 -0.016954
v -0.277908 0.364122 0.130115
v -0.347205 0.443840 0.134194
v 0.274982 0.976461 0.180615
v 0.373824 0.870397 0.007198
v 0.259451 0.978567 0.027199
v 0.373824 0.870397 0.007198
v 0.221403 0.888207 -0.164898
v 0.177626 0.983558 -0.082149
v 0.373824 0.870397 0.007198
v 0.177626 0.983558 -0.082149
v 0.259451 0.978567 0.027199
v 0.221403 0.888207 -0.164898
v 0.000000 0.900011 -0.233115
v 0.000000 1.008499 -0.130022
v 0.221403 0.888207 -0.164898
v 0.000000 1.008499 -0.130022
v 0.177626 0.983558 -0.082149
v 0.177626 0.983558 -0.082149
v 0.129729 1.045657 0.021322
v 0.259451 0.978567 0.027199
v 0.177626 0.983558 -0.082149
v 0.000000 1.008499 -0.130022
v 0.129729 1.045657 0.021322
v 0.259451 0.978567 0.027199
v 0.144180 1.050242 0.187185
v 0.274982 0.976461 0.180615
v 0.274982 0.976461 0.180615
v 0.144180 1.050242 0.187185
v 0.259451 0.958630 0.350367
v 0.259451 0.978567 0.027199
v 0.129729 1.045657 0.021322
v 0.144180 1.050242 0.187185
v 0.259451 0.958630 0.350367
v 0.129729 1.018210 0.344390
v 0.177697 0.947578 0.447958
v 0.259451 0.958630 0.350367
v 0.144180 1.050242 0.187185
v 0.129729 1.018210 0.344390
v 0.144180 1.050242 0.187185
v 0.129729 1.045657 0.021322
v 0.000000 1.088003 0.189938
v 0.144180 1.050242 0.187185
v 0.000000 1.088003 0.189938
v 0.129729 1.018210 0.344390
v 0.129729 1.018210 0.344390
v 0.000000 1.046896 0.354898
v 0.177697 0.947578 0.447958
v 0.129729 1.018210 0.344390
v 0.000000 1.088003 0.189938
v 0.000000 1.046896 0.354898
v 0.177697 0.947578 0.447958
v 0.000000 0.948018 0.491623
v 0.000000 0.796324 0.595601
v 0.177697 0.947578 0.447958
v 0.000000 1.046896 0.354898
v 0.000000 0.948018 0.491623
v 0.000000 0.948018 0.491623
v -0.177697 0.947578 0.447958
v 0.000000 0.796324 0.595601
v 0.000000 0.948018 0.491623
v 0.000000 1.046896 0.354898
v -0.177697 0.947578 0.447958
v 0.000000 1.046896 0.354898
v 0.000000 1.088003 0.189938
v -0.129729 1.018210 0.344390
v 0.000000 1.046896 0.354898
v -0.129729 1.018210 0.344390
v -0.177697 0.947578 0.447958
v 0.129729 1.045657 0.021322
v 0.000000 1.008499 -0.130022
v 0.000000 1.075739 0.013481
v 0.129729 1.045657 0.021322
v 0.000000 1.075739 0.013481
v 0.000000 1.088003 0.189938
v 0.000000 1.075739 0.013481
v 0.000000 1.008499 -0.130022
v -0.129729 1.045657 0.021322
v 0.000000 1.075739 0.013481
v -0.129729 1.045657 0.021322
v 0.000000 1.088003 0.189938
v 0.000000 1.088003 0.189938
v -0.144180 1.050242 0.187185
v -0.129729 1.018210 0.344390
v 0.000000 1.088003 0.189938
v -0.129729 1.045657 0.021322
v -0.144180 1.050242 0.187185
v -0.129729 1.018210 0.344390
v -0.259451 0.958630 0.350367
v -0.177697 0.947578 0.447958
v -0.129729 1.018210 0.344390
v -0.144180 1.050242 0.187185
v -0.259451 0.958630 0.350367
v -0.277908 0.364122 0.130115
v -0.300037 0.279250 0.073068
v -0.280770 0.267370 0.206014
v -0.277908 0.364122 0.130115
v -0.262079 0.359490 0.196733
v -0.347205 0.443840 0.134194
v -0.277908 0.364122 0.130115
v -0.280770 0.267370 0.206014
v -0.262079 0.359490 0.196733
v 0.000000 1.008499 -0.130022
v 0.000000 0.900011 -0.233115
v -0.221403 0.888207 -0.164898
v 0.000000 0.900011 -0.233115
v -0.246270 0.742859 -0.203077
v -0.221403 0.888207 -0.164898
v 0.000000 1.008499 -0.130022
v -0.177626 0.983558 -0.082149
v -0.129729 1.045657 0.021322
v 0.000000 1.008499 -0.130022
v -0.221403 0.888207 -0.164898
v -0.177626 0.983558 -0.082149
v -0.221403 0.888207 -0.164898
v -0.246270 0.742859 -0.203077
v -0.373824 0.870397 0.007198
v -0.221403 0.888207 -0.164898
v -0.373824 0.870397 0.007198
v -0.177626 0.983558 -0.082149
v -0.177626 0.983558 -0.082149
v -0.259451 0.978567 0.027199
v -0.129729 1.045657 0.021322
v -0.129729 1.045657 0.021322
v -0.259451 0.978567 0.027199
v -0.144180 1.050242 0.187185
v -0.177626 0.983558 -0.082149
v -0.373824 0.870397 0.007198
v -0.259451 0.978567 0.027199
v -0.259451 0.978567 0.027199
v -0.274982 0.976461 0.180615
v -0.144180 1.050242 0.187185
v -0.144180 1.050242 0.187185
v -0.274982 0.976461 0.180615
v -0.259451 0.958630 0.350367
v -0.259451 0.978567 0.027199
v -0.373824 0.870397 0.007198
v -0.274982 0.976461 0.180615
v -0.274982 0.976461 0.180615
v -0.393311 0.851564 0.169923
v -0.259451 0.958630 0.350367
v -0.274982 0.976461 0.180615
v -0.373824 0.870397 0.007198
v -0.393311 0.851564 0.169923
v -0.259451 0.958630 0.350367
v -0.323427 0.823081 0.366324
v -0.177697 0.947578 0.447958
v -0.259451 0.958630 0.350367
v -0.393311 0.851564 0.169923
v -0.323427 0.823081 0.366324
v -0.393311 0.851564 0.169923
v -0.373824 0.870397 0.007198
v -0.442784 0.711227 0.157495
v -0.393311 0.851564 0.169923
v -0.442784 0.711227 0.157495
v -0.323427 0.823081 0.366324
v -0.373824 0.870397 0.007198
v -0.246270 0.742859 -0.203077
v -0.407875 0.726383 -0.014525
v -0.373824 0.870397 0.007198
v -0.407875 0.726383 -0.014525
v -0.442784 0.711227 0.157495
v -0.407875 0.726383 -0.014525
v -0.246270 0.742859 -0.203077
v -0.394316 0.580702 -0.017356
v -0.407875 0.726383 -0.014525
v -0.394316 0.580702 -0.017356
v -0.442784 0.711227 0.157495
v -0.394316 0.580702 -0.017356
v -0.347205 0.443840 0.134194
v -0.419074 0.566220 0.144018
v -0.394316 0.580702 -0.017356
v -0.419074 0.566220 0.144018
v -0.442784 0.711227 0.157495
v -0.347205 0.443840 0.134194
v -0.262079 0.359490 0.196733
v -0.310539 0.420902 0.280507
v -0.347205 0.443840 0.134194
v -0.310539 0.420902 0.280507
v -0.419074 0.566220 0.144018
v -0.419074 0.566220 0.144018
v -0.347660 0.544089 0.345033
v -0.442784 0.711227 0.157495
v -0.419074 0.566220 0.144018
v -0.310539 0.420902 0.280507
v -0.347660 0.544089 0.345033
v -0.310539 0.420902 0.280507
v -0.262079 0.359490 0.196733
v -0.221284 0.404510 0.390259
v -0.310539 0.420902 0.280507
v -0.221284 0.404510 0.390259
v -0.347660 0.544089 0.345033
v -0.221284 0.404510 0.390259
v -0.234004 0.530694 0.481061
v -0.347660 0.544089 0.345033
v -0.347660 0.544089 0.345033
v -0.353877 0.687802 0.361147
v -0.442784 0.711227 0.157495
v -0.442784 0.711227 0.157495
v -0.353877 0.687802 0.361147
v -0.323427 0.823081 0.366324
v -0.347660 0.544089 0.345033
v -0.234004 0.530694 0.481061
v -0.353877 0.687802 0.361147
v -0.323427 0.823081 0.366324
v -0.214932 0.805453 0.493671
v -0.177697 0.947578 0.447958
v -0.323427 0.823081 0.366324
v -0.353877 0.687802 0.361147
v -0.214932 0.805453 0.493671
v -0.353877 0.687802 0.361147
v -0.234004 0.530694 0.481061
v -0.232726 0.672640 0.494562
v -0.353877 0.687802 0.361147
v -0.232726 0.672640 0.494562
v -0.214932 0.805453 0.493671
v -0.232726 0.672640 0.494562
v -0.234004 0.530694 0.481061
v 0.000000 0.662083 0.615948
v -0.232726 0.672640 0.494562
v 0.000000 0.662083 0.615948
v -0.214932 0.805453 0.493671
v -0.214932 0.805453 0.493671
v 0.000000 0.796324 0.595601
v -0.177697 0.947578 0.447958
v 0.000000 0.796324 0.595601
v -0.214932 0.805453 0.493671
v 0.000000 0.662083 0.615948
v -0.280770 0.267370 0.206014
v -0.275747 0.146889 0.199760
v -0.189866 0.153015 0.264786
v -0.275747 0.146889 0.199760
v -0.280770 0.267370 0.206014
v -0.301820 0.142853 0.120231
v -0.280770 0.267370 0.206014
v -0.300037 0.279250 0.073068
v -0.301820 0.142853 0.120231
v -0.275747 0.146889 0.199760
v -0.241719 0.069583 0.196386
v -0.189866 0.153015 0.264786
v -0.275747 0.146889 0.199760
v -0.301820 0.142853 0.120231
v -0.241719 0.069583 0.196386
v -0.301820 0.142853 0.120231
v -0.300037 0.279250 0.073068
v -0.283842 0.142906 0.040539
v -0.300037 0.279250 0.073068
v -0.265555 0.201342 -0.119790
v -0.283842 0.142906 0.040539
v -0.301820 0.142853 0.120231
v -0.263904 0.069583 0.124373
v -0.241719 0.069583 0.196386
v -0.301820 0.142853 0.120231
v -0.283842 0.142906 0.040539
v -0.263904 0.069583 0.124373
v -0.263904 0.069583 0.124373
v -0.207797 0.020682 0.131443
v -0.241719 0.069583 0.196386
v -0.263904 0.069583 0.124373
v -0.283842 0.142906 0.040539
v -0.220859 0.069583 0.055753
v -0.263904 0.069583 0.124373
v -0.220859 0.069583 0.055753
v -0.207797 0.020682 0.131443
v -0.283842 0.142906 0.040539
v -0.265555 0.201342 -0.119790
v -0.250433 0.149240 -0.091182
v -0.283842 0.142906 0.040539
v -0.160238 0.089642 0.019861
v -0.220859 0.069583 0.055753
v -0.283842 0.142906 0.040539
v -0.250433 0.149240 -0.091182
v -0.160238 0.089642 0.019861
v -0.220859 0.069583 0.055753
v -0.176973 0.020682 0.088417
v -0.207797 0.020682 0.131443
v -0.220859 0.069583 0.055753
v -0.160238 0.089642 0.019861
v -0.176973 0.020682 0.088417
v -0.207797 0.020682 0.131443
v -0.195410 0.020682 0.167783
v -0.241719 0.069583 0.196386
v -0.207797 0.020682 0.131443
v -0.176973 0.020682 0.088417
v -0.144314 0.003883 0.139192
v -0.207797 0.020682 0.131443
v -0.144314 0.003883 0.139192
v -0.195410 0.020682 0.167783
v -0.195410 0.020682 0.167783
v -0.164142 0.020682 0.197286
v -0.241719 0.069583 0.196386
v -0.195410 0.020682 0.167783
v -0.144314 0.003883 0.139192
v -0.164142 0.020682 0.197286
v -0.241719 0.069583 0.196386
v -0.178668 0.069583 0.236453
v -0.189866 0.153015 0.264786
v -0.241719 0.069583 0.196386
v -0.164142 0.020682 0.197286
v -0.178668 0.069583 0.236453
v -0.178668 0.069583 0.236453
v -0.085752 0.069583 0.236453
v -0.189866 0.153015 0.264786
v -0.178668 0.069583 0.236453
v -0.164142 0.020682 0.197286
v -0.085752 0.069583 0.236453
v -0.164142 0.020682 0.197286
v -0.144314 0.003883 0.139192
v -0.110587 0.020682 0.193795
v -0.164142 0.020682 0.197286
v -0.110587 0.020682 0.193795
v -0.085752 0.069583 0.236453
v -0.110587 0.020682 0.193795
v -0.144314 0.003883 0.139192
v -0.081621 0.015035 0.149860
v -0.110587 0.020682 0.193795
v -0.081621 0.015035 0.149860
v -0.085752 0.069583 0.236453
v -0.085752 0.069583 0.236453
v -0.081621 0.015035 0.149860
v -0.035015 0.069583 0.159136
v -0.176973 0.020682 0.088417
v -0.160238 0.089642 0.019861
v -0.129896 0.022438 0.079439
v -0.176973 0.020682 0.088417
v -0.129896 0.022438 0.079439
v -0.144314 0.003883 0.139192
v -0.129896 0.022438 0.079439
v -0.160238 0.089642 0.019861
v -0.048258 0.069579 0.073591
v -0.129896 0.022438 0.079439
v -0.091965 0.019825 0.107466
v -0.144314 0.003883 0.139192
v -0.129896 0.022438 0.079439
v -0.048258 0.069579 0.073591
v -0.091965 0.019825 0.107466
v -0.091965 0.019825 0.107466
v -0.081621 0.015035 0.149860
v -0.144314 0.003883 0.139192
v -0.091965 0.019825 0.107466
v -0.048258 0.069579 0.073591
v -0.081621 0.015035 0.149860
v -0.081621 0.015035 0.149860
v -0.048258 0.069579 0.073591
v -0.035015 0.069583 0.159136
v -0.035015 0.069583 0.159136
v -0.048258 0.069579 0.073591
v 0.000000 0.059954 0.162469
v 0.000000 0.059954 0.162469
v -0.048258 0.069579 0.073591
v -0.046953 0.058945 -0.116795
v -0.048258 0.069579 0.073591
v -0.160238 0.089642 0.019861
v -0.086899 0.058945 -0.062634
v -0.048258 0.069579 0.073591
v -0.086899 0.058945 -0.062634
v -0.046953 0.058945 -0.116795
v -0.046953 0.058945 -0.116795
v -0.086899 0.058945 -0.062634
v -0.081059 0.016129 -0.130204
v -0.160238 0.089642 0.019861
v -0.250433 0.149240 -0.091182
v -0.164127 0.090496 -0.052988
v -0.160238 0.089642 0.019861
v -0.164127 0.090496 -0.052988
v -0.086899 0.058945 -0.062634
v -0.250433 0.149240 -0.091182
v -0.265555 0.201342 -0.119790
v -0.238999 0.133328 -0.194959
v -0.265555 0.201342 -0.119790
v -0.193947 0.210029 -0.200241
v -0.238999 0.133328 -0.194959
v -0.250433 0.149240 -0.091182
v -0.232141 0.105973 -0.102339
v -0.164127 0.090496 -0.052988
v -0.250433 0.149240 -0.091182
v -0.238999 0.133328 -0.194959
v -0.232141 0.105973 -0.102339
v -0.164127 0.090496 -0.052988
v -0.161595 0.058934 -0.059941
v -0.086899 0.058945 -0.062634
v -0.164127 0.090496 -0.052988
v -0.232141 0.105973 -0.102339
v -0.161595 0.058934 -0.059941
v -0.086899 0.058945 -0.062634
v -0.108109 0.018301 -0.094337
v -0.081059 0.016129 -0.130204
v -0.081059 0.016129 -0.130204
v -0.108109 0.018301 -0.094337
v -0.137629 0.005370 -0.155084
v -0.108109 0.018301 -0.094337
v -0.086899 0.058945 -0.062634
v -0.157512 0.018280 -0.090386
v -0.086899 0.058945 -0.062634
v -0.161595 0.058934 -0.059941
v -0.157512 0.018280 -0.090386
v -0.108109 0.018301 -0.094337
v -0.157512 0.018280 -0.090386
v -0.137629 0.005370 -0.155084
v -0.161595 0.058934 -0.059941
v -0.232141 0.105973 -0.102339
v -0.217808 0.058943 -0.112989
v -0.161595 0.058934 -0.059941
v -0.217808 0.058943 -0.112989
v -0.157512 0.018280 -0.090386
v -0.157512 0.018280 -0.090386
v -0.188567 0.016885 -0.126487
v -0.137629 0.005370 -0.155084
v -0.157512 0.018280 -0.090386
v -0.217808 0.058943 -0.112989
v -0.188567 0.016885 -0.126487
v -0.188567 0.016885 -0.126487
v -0.193432 0.016885 -0.172755
v -0.137629 0.005370 -0.155084
v -0.188567 0.016885 -0.126487
v -0.217808 0.058943 -0.112989
v -0.193432 0.016885 -0.172755
v -0.217808 0.058943 -0.112989
v -0.232141 0.105973 -0.102339
v -0.218102 0.058945 -0.184876
v -0.232141 0.105973 -0.102339
v -0.238999 0.133328 -0.194959
v -0.218102 0.058945 -0.184876
v -0.217808 0.058943 -0.112989
v -0.218102 0.058945 -0.184876
v -0.193432 0.016885 -0.172755
v -0.218102 0.058945 -0.184876
v -0.238999 0.133328 -0.194959
v -0.168401 0.058945 -0.242609
v -0.218102 0.058945 -0.184876
v -0.168401 0.058945 -0.242609
v -0.193432 0.016885 -0.172755
v -0.193432 0.016885 -0.172755
v -0.162388 0.016890 -0.209347
v -0.137629 0.005370 -0.155084
v -0.193432 0.016885 -0.172755
v -0.168401 0.058945 -0.242609
v -0.162388 0.016890 -0.209347
v -0.162388 0.016890 -0.209347
v -0.122866 0.016885 -0.216522
v -0.137629 0.005370 -0.155084
v -0.162388 0.016890 -0.209347
v -0.168401 0.058945 -0.242609
v -0.122866 0.016885 -0.216522
v -0.238999 0.133328 -0.194959
v -0.193947 0.210029 -0.200241
v -0.183697 0.132451 -0.254780
v -0.238999 0.133328 -0.194959
v -0.183697 0.132451 -0.254780
v -0.168401 0.058945 -0.242609
v -0.193947 0.210029 -0.200241
v -0.092979 0.219072 -0.262790
v -0.183697 0.132451 -0.254780
v -0.183697 0.132451 -0.254780
v -0.082190 0.142842 -0.290920
v -0.168401 0.058945 -0.242609
v -0.183697 0.132451 -0.254780
v -0.092979 0.219072 -0.262790
v -0.082190 0.142842 -0.290920
v -0.168401 0.058945 -0.242609
v -0.103322 0.058945 -0.249949
v -0.122866 0.016885 -0.216522
v -0.168401 0.058945 -0.242609
v -0.082190 0.142842 -0.290920
v -0.103322 0.058945 -0.249949
v -0.122866 0.016885 -0.216522
v -0.083228 0.016885 -0.185553
v -0.137629 0.005370 -0.155084
v -0.122866 0.016885 -0.216522
v -0.103322 0.058945 -0.249949
v -0.083228 0.016885 -0.185553
v -0.137629 0.005370 -0.155084
v -0.083228 0.016885 -0.185553
v -0.081059 0.016129 -0.130204
v -0.083228 0.016885 -0.185553
v -0.103322 0.058945 -0.249949
v -0.048490 0.058945 -0.200185
v -0.083228 0.016885 -0.185553
v -0.048490 0.058945 -0.200185
v -0.081059 0.016129 -0.130204
v -0.081059 0.016129 -0.130204
v -0.048490 0.058945 -0.200185
v -0.046953 0.058945 -0.116795
v -0.048490 0.058945 -0.200185
v -0.103322 0.058945 -0.249949
v -0.026368 0.097898 -0.209810
v -0.103322 0.058945 -0.249949
v -0.082190 0.142842 -0.290920
v -0.026368 0.097898 -0.209810
v -0.048490 0.058945 -0.200185
v -0.026368 0.097898 -0.209810
v -0.046953 0.058945 -0.116795
v -0.046953 0.058945 -0.116795
v -0.026368 0.097898 -0.209810
v 0.000000 0.091973 -0.211781
v -0.026368 0.097898 -0.209810
v -0.082190 0.142842 -0.290920
v 0.000000 0.091973 -0.211781
v -0.082190 0.142842 -0.290920
v -0.092979 0.219072 -0.262790
v 0.000000 0.224086 -0.295607
v -0.092979 0.219072 -0.262790
v 0.000000 0.350034 -0.195255
v 0.000000 0.224086 -0.295607
v 0.000000 0.350034 -0.195255
v 0.092979 0.219072 -0.262790
v 0.000000 0.224086 -0.295607
v 0.092979 0.219072 -0.262790
v 0.082190 0.142842 -0.290920
v 0.000000 0.224086 -0.295607
v 0.000000 0.224086 -0.295607
v 0.000000 0.142842 -0.297693
v -0.082190 0.142842 -0.290920
v 0.000000 0.142842 -0.297693
v 0.082190 0.142842 -0.290920
v 0.000000 0.091973 -0.211781
v 0.000000 0.142842 -0.297693
v 0.000000 0.224086 -0.295607
v 0.082190 0.142842 -0.290920
v 0.000000 0.142842 -0.297693
v 0.000000 0.091973 -0.211781
v -0.082190 0.142842 -0.290920
v 0.014303 0.141955 -0.365454
v 0.000000 0.125205 -0.361324
v 0.015354 0.120732 -0.467498
v 0.014303 0.141955 -0.365454
v 0.015354 0.120732 -0.467498
v 0.049978 0.382137 -0.478772
v 0.014303 0.141955 -0.365454
v 0.000000 0.231762 -0.209856
v 0.000000 0.125205 -0.361324
v 0.014303 0.141955 -0.365454
v 0.049978 0.382137 -0.478772
v 0.000000 0.231762 -0.209856
v 0.000000 0.125205 -0.361324
v 0.000000 0.101650 -0.472891
v 0.015354 0.120732 -0.467498
v 0.000000 0.125205 -0.361324
v 0.000000 0.231762 -0.209856
v -0.014303 0.141955 -0.365454
v 0.000000 0.125205 -0.361324
v -0.015354 0.120732 -0.467498
v 0.000000 0.101650 -0.472891
v 0.000000 0.125205 -0.361324
v -0.014303 0.141955 -0.365454
v -0.015354 0.120732 -0.467498
v -0.014303 0.141955 -0.365454
v 0.000000 0.231762 -0.209856
v -0.049978 0.382137 -0.478772
v -0.014303 0.141955 -0.365454
v -0.049978 0.382137 -0.478772
v -0.015354 0.120732 -0.467498
v 0.000000 0.101650 -0.472891
v 0.000000 0.214607 -0.575568
v 0.015354 0.120732 -0.467498
v 0.000000 0.101650 -0.472891
v -0.015354 0.120732 -0.467498
v 0.000000 0.214607 -0.575568
v -0.015354 0.120732 -0.467498
v -0.049978 0.382137 -0.478772
v -0.015006 0.228197 -0.565406
v -0.015354 0.120732 -0.467498
v -0.015006 0.228197 -0.565406
v 0.000000 0.214607 -0.575568
v 0.015354 0.120732 -0.467498
v 0.015006 0.228197 -0.565406
v 0.049978 0.382137 -0.478772
v 0.015354 0.120732 -0.467498
v 0.000000 0.214607 -0.575568
v 0.015006 0.228197 -0.565406
v 0.000000 0.214607 -0.575568
v -0.015006 0.228197 -0.565406
v 0.000000 0.329178 -0.627555
v 0.000000 0.214607 -0.575568
v 0.000000 0.329178 -0.627555
v 0.015006 0.228197 -0.565406
v 0.015006 0.228197 -0.565406
v 0.013755 0.341021 -0.613094
v 0.049978 0.382137 -0.478772
v 0.015006 0.228197 -0.565406
v 0.000000 0.329178 -0.627555
v 0.013755 0.341021 -0.613094
v 0.013755 0.341021 -0.613094
v 0.015501 0.560641 -0.634825
v 0.049978 0.382137 -0.478772
v 0.013755 0.341021 -0.613094
v 0.000000 0.329178 -0.627555
v 0.015501 0.560641 -0.634825
v -0.015006 0.228197 -0.565406
v -0.049978 0.382137 -0.478772
v -0.013755 0.341021 -0.613094
v -0.015006 0.228197 -0.565406
v -0.013755 0.341021 -0.613094
v 0.000000 0.329178 -0.627555
v -0.013755 0.341021 -0.613094
v -0.049978 0.382137 -0.478772
v -0.015501 0.560641 -0.634825
v -0.013755 0.341021 -0.613094
v -0.015501 0.560641 -0.634825
v 0.000000 0.329178 -0.627555
v 0.000000 0.329178 -0.627555
v 0.000000 0.574045 -0.653051
v 0.015501 0.560641 -0.634825
v 0.000000 0.329178 -0.627555
v -0.015501 0.560641 -0.634825
v 0.000000 0.574045 -0.653051
v -0.015501 0.560641 -0.634825
v -0.049978 0.382137 -0.478772
v -0.015746 0.620528 -0.572531
v -0.015501 0.560641 -0.634825
v -0.015746 0.620528 -0.572531
v 0.000000 0.574045 -0.653051
v 0.015501 0.560641 -0.634825
v 0.015746 0.620528 -0.572531
v 0.049978 0.382137 -0.478772
v 0.015501 0.560641 -0.634825
v 0.000000 0.574045 -0.653051
v 0.015746 0.620528 -0.572531
v 0.000000 0.574045 -0.653051
v -0.015746 0.620528 -0.572531
v 0.000000 0.638977 -0.577143
v 0.000000 0.574045 -0.653051
v 0.000000 0.638977 -0.577143
v 0.015746 0.620528 -0.572531
v 0.000000 0.638977 -0.577143
v -0.015746 0.620528 -0.572531
v 0.000000 0.595896 -0.449849
v 0.000000 0.638977 -0.577143
v 0.000000 0.595896 -0.449849
v 0.015746 0.620528 -0.572531
v 0.015746 0.620528 -0.572531
v 0.015961 0.581680 -0.461869
v 0.049978 0.382137 -0.478772
v 0.015746 0.620528 -0.572531
v 0.000000 0.595896 -0.449849
v 0.015961 0.581680 -0.461869
v 0.049978 0.382137 -0.478772
v 0.014350 0.433510 -0.323762
v 0.000000 0.231762 -0.209856
v 0.049978 0.382137 -0.478772
v 0.015961 0.581680 -0.461869
v 0.014350 0.433510 -0.323762
v 0.014350 0.433510 -0.323762
v 0.000000 0.448422 -0.309378
v 0.000000 0.231762 -0.209856
v 0.015961 0.581680 -0.461869
v 0.000000 0.595896 -0.449849
v 0.000000 0.448422 -0.309378
v 0.015961 0.581680 -0.461869
v 0.000000 0.448422 -0.309378
v 0.014350 0.433510 -0.323762
v 0.000000 0.595896 -0.449849
v -0.015746 0.620528 -0.572531
v -0.015961 0.581680 -0.461869
v -0.015746 0.620528 -0.572531
v -0.049978 0.382137 -0.478772
v -0.015961 0.581680 -0.461869
v 0.000000 0.595896 -0.449849
v -0.015961 0.581680 -0.461869
v 0.000000 0.448422 -0.309378
v 0.000000 0.448422 -0.309378
v -0.014350 0.433510 -0.323762
v 0.000000 0.231762 -0.209856
v -0.014350 0.433510 -0.323762
v -0.015961 0.581680 -0.461869
v -0.049978 0.382137 -0.478772
v -0.014350 0.433510 -0.323762
v 0.000000 0.448422 -0.309378
v -0.015961 0.581680 -0.461869
v -0.014350 0.433510 -0.323762
v -0.049978 0.382137 -0.478772
v 0.000000 0.231762 -0.209856
v 0.499563 -0.067720 -0.184139
v 0.424954 -0.067720 -0.330568
v -0.000000 -0.067720 -0.021821
v 0.424954 -0.067720 -0.330568
v 0.308747 -0.067720 -0.446775
v -0.000000 -0.067720 -0.021821
v 0.308747 -0.067720 -0.446775
v 0.162318 -0.067720 -0.521385
v -0.000000 -0.067720 -0.021821
v 0.162318 -0.067720 -0.521385
v -0.000000 -0.067720 -0.547093
v -0.000000 -0.067720 -0.021821
v -0.000000 -0.067720 -0.547093
v -0.162318 -0.067720 -0.521384
v -0.000000 -0.067720 -0.021821
v -0.162318 -0.067720 -0.521384
v -0.308748 -0.067720 -0.446775
v -0.000000 -0.067720 -0.021821
v -0.308748 -0.067720 -0.446775
v -0.424954 -0.067720 -0.330568
v -0.000000 -0.067720 -0.021821
v -0.424954 -0.067720 -0.330568
v -0.499563 -0.067720 -0.184139
v -0.000000 -0.067720 -0.021821
v -0.499563 -0.067720 -0.184139
v -0.525272 -0.067720 -0.021821
v -0.000000 -0.067720 -0.021821
v -0.525272 -0.067720 -0.021821
v -0.499563 -0.067720 0.140497
v -0.000000 -0.067720 -0.021821
v -0.499563 -0.067720 0.140497
v -0.424954 -0.067720 0.286926
v -0.000000 -0.067720 -0.021821
v -0.424954 -0.067720 0.286926
v -0.308747 -0.067720 0.403133
v -0.000000 -0.067720 -0.021821
v -0.308747 -0.067720 0.403133
v -0.162318 -0.067720 0.477742
v -0.000000 -0.067720 -0.021821
v -0.162318 -0.067720 0.477742
v -0.000000 -0.067720 0.503450
v -0.000000 -0.067720 -0.021821
v -0.000000 -0.067720 0.503450
v 0.162318 -0.067720 0.477742
v -0.000000 -0.067720 -0.021821
v 0.162318 -0.067720 0.477742
v 0.308747 -0.067720 0.403133
v -0.000000 -0.067720 -0.021821
v 0.308747 -0.067720 0.403133
v 0.424954 -0.067720 0.286926
v -0.000000 -0.067720 -0.021821
v 0.424954 -0.067720 0.286926
v 0.499563 -0.067720 0.140497
v -0.000000 -0.067720 -0.021821
v 0.499563 -0.067720 0.140497
v 0.525272 -0.067720 -0.021821
v -0.000000 -0.067720 -0.021821
v 0.525272 -0.067720 -0.021821
v 0.499563 -0.067720 -0.184139
v -0.000000 -0.067720 -0.021821
vt 0.552582 0.022847
vt 0.552582 0.726073
vt 0.985743 0.068719
vt 0.878575 0.033606
vt 0.979256 0.086367
vt 0.907940 0.125767
vt 0.892571 0.119862
vt 0.843569 0.175105
vt 0.970232 0.167030
vt 0.918338 0.164591
vt 0.909551 0.197239
vt 0.970232 0.229546
vt 0.892646 0.196868
vt 0.906826 0.263688
vt 0.982882 0.244180
vt 0.202438 0.936027
vt 0.194168 0.908705
vt 0.089897 0.965027
vt 0.135479 0.869052
vt 0.113789 0.875803
vt 0.046415 0.822273
vt 0.143843 0.831402
vt 0.194168 0.823485
vt 0.194168 0.756057
vt 0.134622 0.798814
vt 0.112999 0.788596
vt 0.105705 0.707275
vt 0.203077 0.732441
vt 0.249149 0.294784
vt 0.265843 0.294784
vt 0.265720 0.196236
vt 0.157219 0.294784
vt 0.157219 0.130673
vt 0.051723 0.294784
vt 0.039023 0.182653
vt 0.034946 0.294784
vt 0.053735 0.110945
vt 0.020550 0.181320
vt 0.035091 0.104838
vt 0.098965 0.060354
vt 0.085446 0.047760
vt 0.172113 0.014690
vt 0.172467 0.033955
vt 0.231773 0.056215
vt 0.245046 0.039847
vt 0.268543 0.112197
vt 0.286771 0.110201
vt 0.283566 0.198397
vt 0.365692 0.059783
vt 0.344668 0.112149
vt 0.389774 0.069817
vt 0.358639 0.118080
vt 0.382400 0.113129
vt 0.418635 0.083613
vt 0.367604 0.172820
vt 0.397712 0.141763
vt 0.409695 0.110580
vt 0.443258 0.112926
vt 0.417332 0.129687
vt 0.419675 0.153613
vt 0.429977 0.137463
vt 0.447057 0.139950
vt 0.463134 0.133907
vt 0.447393 0.158255
vt 0.474853 0.152467
vt 0.477224 0.120320
vt 0.411306 0.180546
vt 0.446529 0.188736
vt 0.486018 0.172795
vt 0.500232 0.127267
vt 0.355772 0.216743
vt 0.433600 0.227228
vt 0.477398 0.225554
vt 0.495807 0.196931
vt 0.515772 0.135972
vt 0.506224 0.084774
vt 0.559975 0.132222
vt 0.571815 0.210020
vt 0.476788 0.097635
vt 0.458874 0.082992
vt 0.474504 0.059392
vt 0.592007 0.059141
vt 0.644299 0.025387
vt 0.474789 0.031442
vt 0.642869 0.045321
vt 0.647933 0.083020
vt 0.611373 0.111741
vt 0.624788 0.090527
vt 0.647232 0.120133
vt 0.615710 0.135070
vt 0.590062 0.160905
vt 0.632753 0.152283
vt 0.620953 0.183007
vt 0.580347 0.290643
vt 0.611816 0.219190
vt 0.652685 0.184281
vt 0.649636 0.152865
vt 0.667991 0.147765
vt 0.658602 0.284449
vt 0.650738 0.221551
vt 0.701264 0.210711
vt 0.682400 0.173822
vt 0.715581 0.150179
vt 0.685268 0.128763
vt 0.685777 0.098594
vt 0.719816 0.110188
vt 0.732517 0.192902
vt 0.728319 0.083074
vt 0.719360 0.266463
vt 0.486892 0.274799
vt 0.609044 0.342920
vt 0.737362 0.307866
vt 0.662623 0.335082
vt 0.435336 0.270935
vt 0.501292 0.328502
vt 0.780724 0.241808
vt 0.802736 0.272590
vt 0.787947 0.360968
vt 0.511824 0.425560
vt 0.609503 0.418345
vt 0.689285 0.410136
vt 0.378962 0.275075
vt 0.407044 0.336596
vt 0.429628 0.420831
vt 0.798004 0.150343
vt 0.840330 0.213938
vt 0.856391 0.248797
vt 0.954126 0.350295
vt 0.605830 0.497692
vt 0.712631 0.493689
vt 0.522125 0.502644
vt 0.604812 0.572818
vt 0.393264 0.504282
vt 0.270520 0.392569
vt 0.319759 0.344304
vt 0.314106 0.295860
vt 0.990970 0.482172
vt 0.823714 0.488838
vt 0.714379 0.565551
vt 0.522037 0.579454
vt 0.384850 0.583154
vt 0.526012 0.662460
vt 0.824584 0.575795
vt 0.990970 0.569930
vt 0.837026 0.665377
vt 0.712714 0.645053
vt 0.627968 0.649666
vt 0.240308 0.514071
vt 0.244719 0.583844
vt 0.820952 0.812327
vt 0.729843 0.805819
vt 0.604236 0.801999
vt 0.990970 0.647226
vt 0.393606 0.671402
vt 0.241003 0.683099
vt 0.516716 0.779912
vt 0.424039 0.778670
vt 0.283664 0.832809
vt 0.472341 0.849642
vt 0.617133 0.873754
vt 0.755089 0.834265
vt 0.629226 0.989104
vt 0.819757 0.896586
vt 0.944070 0.818900
vt 0.422736 0.959054
vt 0.315454 0.208202
vt 0.324672 0.163190
vt 0.107433 0.365820
vt 0.105717 0.353546
vt 0.051592 0.379207
vt 0.102316 0.510321
vt 0.202517 0.367625
vt 0.042428 0.368901
vt 0.015204 0.449497
vt 0.026736 0.454526
vt 0.008560 0.521720
vt 0.021206 0.523453
vt 0.069584 0.636233
vt 0.061693 0.649161
vt 0.115010 0.649090
vt 0.117899 0.662275
vt 0.172857 0.611228
vt 0.160800 0.605273
vt 0.195617 0.500409
vt 0.208724 0.504659
g mizugoroudoll1_mizugoroudoll1_shadow1.png.060
usemtl shadow1.png.060
s off
f 1681/1 1682/1 1683/2
f 1684/1 1685/1 1686/2
f 1687/1 1688/1 1689/2
f 1690/1 1691/1 1692/2
f 1693/1 1694/1 1695/2
f 1696/1 1697/1 1698/2
f 1699/1 1700/1 1701/2
f 1702/1 1703/1 1704/2
f 1705/1 1706/1 1707/2
f 1708/1 1709/1 1710/2
f 1711/1 1712/1 1713/2
f 1714/1 1715/1 1716/2
f 1717/1 1718/1 1719/2
f 1720/1 1721/1 1722/2
f 1723/1 1724/1 1725/2
f 1726/1 1727/1 1728/2
f 1729/1 1730/1 1731/2
f 1732/1 1733/1 1734/2
f 1735/1 1736/1 1737/2
f 1738/1 1739/1 1740/2
g mizugoroudoll1_mizugoroudoll1_mizugoroudoll.png
usemtl mizugoroudoll.png
f 1/3 2/4 3/5
f 4/5 5/4 6/6
f 7/4 8/7 9/6
f 10/7 11/8 12/6
f 13/5 14/6 15/9
f 16/6 17/8 18/10
f 19/6 20/10 21/9
f 22/10 23/8 24/11
f 25/10 26/11 27/9
f 28/9 29/11 30/12
f 31/8 32/13 33/11
f 34/11 35/14 36/12
f 37/11 38/13 39/14
f 40/14 41/15 42/12
f 43/16 44/17 45/18
f 46/18 47/17 48/19
f 49/18 50/19 51/20
f 52/20 53/19 54/21
f 55/19 56/17 57/22
f 58/19 59/22 60/21
f 61/17 62/23 63/22
f 64/23 65/24 66/22
f 67/22 68/25 69/21
f 70/22 71/24 72/25
f 73/21 74/25 75/26
f 76/26 77/25 78/27
f 79/25 80/24 81/27
f 82/27 83/24 84/28
f 85/3 86/5 87/4
f 88/4 89/5 90/6
f 91/5 92/9 93/6
f 94/4 95/6 96/7
f 97/7 98/6 99/8
f 100/6 101/9 102/10
f 103/6 104/10 105/8
f 106/10 107/9 108/11
f 109/10 110/11 111/8
f 112/8 113/11 114/13
f 115/13 116/11 117/14
f 118/11 119/9 120/12
f 121/11 122/12 123/14
f 124/14 125/12 126/15
f 127/16 128/18 129/17
f 130/18 131/19 132/17
f 133/18 134/20 135/19
f 136/20 137/21 138/19
f 139/19 140/22 141/17
f 142/19 143/21 144/22
f 145/17 146/22 147/23
f 148/23 149/22 150/24
f 151/22 152/21 153/25
f 154/22 155/25 156/24
f 157/21 158/26 159/25
f 160/25 161/27 162/24
f 163/25 164/26 165/27
f 166/27 167/28 168/24
f 169/29 170/30 171/31
f 172/29 173/31 174/32
f 175/32 176/31 177/33
f 178/32 179/33 180/34
f 181/34 182/33 183/35
f 184/34 185/35 186/36
f 187/35 188/33 189/37
f 190/35 191/38 192/36
f 193/35 194/37 195/39
f 196/35 197/39 198/38
f 199/38 200/35 201/36
f 202/38 203/39 204/35
f 205/36 206/35 207/34
f 208/37 209/33 210/40
f 211/37 212/41 213/39
f 214/37 215/40 216/41
f 217/39 218/37 219/35
f 220/39 221/41 222/37
f 223/35 224/33 225/34
f 226/35 227/37 228/33
f 229/37 230/41 231/40
f 232/37 233/40 234/33
f 235/41 236/40 237/42
f 238/41 239/42 240/40
f 241/40 242/43 243/33
f 244/40 245/42 246/43
f 247/43 248/44 249/33
f 250/43 251/42 252/44
f 253/40 254/33 255/43
f 256/40 257/43 258/42
f 259/43 260/33 261/44
f 262/43 263/44 264/42
f 265/42 266/45 267/44
f 268/42 269/44 270/45
f 271/44 272/33 273/46
f 274/33 275/31 276/46
f 277/44 278/46 279/45
f 280/46 281/31 282/47
f 283/46 284/47 285/45
f 286/45 287/46 288/44
f 289/44 290/46 291/33
f 292/45 293/47 294/46
f 295/46 296/31 297/33
f 298/46 299/47 300/31
f 301/47 302/31 303/48
f 304/48 305/31 306/30
f 307/48 308/31 309/47
f 310/48 311/30 312/31
f 313/30 314/29 315/31
f 316/31 317/32 318/33
f 319/32 320/34 321/33
f 322/32 323/31 324/29
f 325/49 326/50 327/51
f 328/49 329/51 330/50
f 331/50 332/52 333/51
f 334/51 335/52 336/53
f 337/51 338/53 339/54
f 340/52 341/50 342/55
f 343/52 344/56 345/53
f 346/52 347/55 348/56
f 349/53 350/57 351/54
f 352/53 353/56 354/57
f 355/54 356/57 357/58
f 358/57 359/56 360/59
f 361/57 362/59 363/58
f 364/56 365/55 366/60
f 367/56 368/60 369/59
f 370/59 371/61 372/58
f 373/59 374/60 375/61
f 376/61 377/62 378/58
f 379/61 380/60 381/62
f 382/62 383/63 384/58
f 385/62 386/60 387/64
f 388/62 389/65 390/63
f 391/62 392/64 393/65
f 394/63 395/66 396/58
f 397/63 398/65 399/66
f 400/60 401/55 402/67
f 403/60 404/68 405/64
f 406/60 407/67 408/68
f 409/64 410/69 411/65
f 412/64 413/68 414/69
f 415/65 416/70 417/66
f 418/65 419/69 420/70
f 421/67 422/55 423/71
f 424/67 425/72 426/68
f 427/67 428/71 429/72
f 430/72 431/73 432/68
f 433/68 434/74 435/69
f 436/68 437/73 438/74
f 439/69 440/75 441/70
f 442/69 443/74 444/75
f 445/70 446/76 447/66
f 448/70 449/75 450/76
f 451/75 452/74 453/77
f 454/75 455/77 456/76
f 457/74 458/73 459/78
f 460/74 461/78 462/77
f 463/66 464/79 465/58
f 466/66 467/76 468/79
f 469/79 470/80 471/58
f 472/79 473/76 474/80
f 475/80 476/76 477/81
f 478/76 479/77 480/82
f 481/76 482/82 483/81
f 484/81 485/82 486/83
f 487/81 488/83 489/84
f 490/84 491/83 492/81
f 493/83 494/82 495/85
f 496/85 497/82 498/86
f 499/82 500/77 501/87
f 502/82 503/88 504/86
f 505/82 506/87 507/88
f 508/88 509/89 510/86
f 511/88 512/87 513/89
f 514/87 515/77 516/90
f 517/87 518/90 519/89
f 520/77 521/78 522/91
f 523/77 524/91 525/90
f 526/90 527/92 528/89
f 529/90 530/91 531/92
f 532/91 533/78 534/93
f 535/91 536/93 537/92
f 538/78 539/73 540/94
f 541/78 542/95 543/93
f 544/78 545/94 546/95
f 547/93 548/96 549/92
f 550/93 551/95 552/96
f 553/92 554/97 555/89
f 556/92 557/96 558/97
f 559/97 560/98 561/89
f 562/97 563/96 564/98
f 565/95 566/94 567/99
f 568/95 569/100 570/96
f 571/95 572/99 573/100
f 574/100 575/101 576/96
f 577/100 578/99 579/101
f 580/96 581/102 582/98
f 583/96 584/101 585/102
f 586/102 587/103 588/98
f 589/102 590/101 591/103
f 592/98 593/104 594/89
f 595/98 596/103 597/104
f 598/104 599/105 600/89
f 601/104 602/103 603/105
f 604/105 605/103 606/106
f 607/103 608/101 609/107
f 610/103 611/107 612/106
f 613/106 614/107 615/108
f 616/101 617/99 618/109
f 619/101 620/109 621/107
f 622/94 623/73 624/110
f 625/73 626/72 627/110
f 628/94 629/111 630/99
f 631/94 632/110 633/111
f 634/99 635/112 636/109
f 637/99 638/111 639/113
f 640/99 641/113 642/112
f 643/110 644/72 645/114
f 646/72 647/71 648/114
f 649/110 650/115 651/111
f 652/110 653/114 654/115
f 655/109 656/116 657/107
f 658/109 659/112 660/117
f 661/109 662/117 663/116
f 664/112 665/113 666/118
f 667/112 668/118 669/117
f 670/111 671/115 672/119
f 673/111 674/120 675/113
f 676/111 677/119 678/120
f 679/113 680/121 681/118
f 682/113 683/120 684/121
f 685/114 686/71 687/122
f 688/114 689/123 690/115
f 691/114 692/122 693/123
f 694/115 695/124 696/119
f 697/115 698/123 699/124
f 700/107 701/125 702/108
f 703/107 704/116 705/126
f 706/107 707/126 708/125
f 709/125 710/107 711/108
f 712/125 713/126 714/107
f 715/108 716/107 717/106
f 718/116 719/117 720/127
f 721/116 722/127 723/126
f 724/126 725/116 726/107
f 727/126 728/127 729/116
f 730/117 731/118 732/128
f 733/117 734/128 735/127
f 736/127 737/117 738/116
f 739/127 740/128 741/117
f 742/116 743/109 744/107
f 745/116 746/117 747/109
f 748/120 749/129 750/121
f 751/121 752/130 753/118
f 754/121 755/129 756/130
f 757/120 758/119 759/131
f 760/120 761/131 762/129
f 763/129 764/132 765/130
f 766/129 767/131 768/132
f 769/119 770/124 771/133
f 772/119 773/133 774/131
f 775/124 776/123 777/134
f 778/124 779/134 780/133
f 781/123 782/122 783/135
f 784/123 785/135 786/134
f 787/122 788/71 789/136
f 790/122 791/136 792/135
f 793/128 794/118 795/137
f 796/118 797/130 798/138
f 799/118 800/138 801/137
f 802/130 803/132 804/139
f 805/130 806/139 807/138
f 808/128 809/118 810/117
f 811/128 812/137 813/118
f 814/117 815/112 816/109
f 817/117 818/118 819/112
f 820/107 821/103 822/106
f 823/107 824/109 825/101
f 826/107 827/101 828/103
f 829/109 830/112 831/99
f 832/109 833/99 834/101
f 835/112 836/118 837/113
f 838/112 839/113 840/99
f 841/131 842/140 843/132
f 844/131 845/133 846/141
f 847/131 848/141 849/140
f 850/140 851/142 852/132
f 853/140 854/141 855/142
f 856/135 857/123 858/134
f 859/135 860/136 861/122
f 862/135 863/122 864/123
f 865/138 866/139 867/143
f 868/138 869/144 870/137
f 871/138 872/143 873/144
f 874/143 875/139 876/145
f 877/143 878/145 879/144
f 880/139 881/132 882/146
f 883/139 884/146 885/145
f 886/132 887/142 888/147
f 889/132 890/147 891/146
f 892/137 893/138 894/118
f 895/137 896/144 897/138
f 898/133 899/148 900/149
f 901/133 902/149 903/141
f 904/133 905/134 906/148
f 907/148 908/133 909/149
f 910/148 911/134 912/133
f 913/134 914/123 915/124
f 916/134 917/124 918/133
f 919/122 920/136 921/71
f 922/122 923/114 924/123
f 925/122 926/71 927/114
f 928/123 929/115 930/124
f 931/123 932/114 933/115
f 934/124 935/119 936/133
f 937/124 938/115 939/119
f 940/145 941/146 942/150
f 943/146 944/147 945/151
f 946/146 947/151 948/150
f 949/147 950/142 951/152
f 952/147 953/152 954/151
f 955/145 956/153 957/144
f 958/145 959/150 960/153
f 961/141 962/154 963/142
f 964/141 965/149 966/155
f 967/141 968/155 969/154
f 970/149 971/133 972/141
f 973/149 974/141 975/155
f 976/133 977/119 978/131
f 979/133 980/131 981/141
f 982/114 983/71 984/72
f 985/114 986/110 987/115
f 988/114 989/72 990/110
f 991/72 992/73 993/110
f 994/115 995/111 996/119
f 997/115 998/110 999/111
f 1000/110 1001/73 1002/94
f 1003/110 1004/94 1005/111
f 1006/119 1007/120 1008/131
f 1009/119 1010/111 1011/120
f 1012/152 1013/142 1014/156
f 1015/142 1016/154 1017/157
f 1018/142 1019/157 1020/156
f 1021/154 1022/155 1023/158
f 1024/154 1025/158 1026/157
f 1027/157 1028/159 1029/156
f 1030/157 1031/158 1032/159
f 1033/156 1034/160 1035/152
f 1036/152 1037/160 1038/151
f 1039/156 1040/159 1041/160
f 1042/151 1043/161 1044/150
f 1045/151 1046/160 1047/161
f 1048/160 1049/159 1050/162
f 1051/160 1052/162 1053/161
f 1054/161 1055/163 1056/150
f 1057/161 1058/162 1059/163
f 1060/150 1061/164 1062/153
f 1063/150 1064/163 1065/164
f 1066/164 1067/150 1068/153
f 1069/164 1070/163 1071/150
f 1072/163 1073/162 1074/161
f 1075/163 1076/161 1077/150
f 1078/159 1079/158 1080/165
f 1081/159 1082/165 1083/162
f 1084/165 1085/158 1086/159
f 1087/165 1088/159 1089/162
f 1090/162 1091/160 1092/161
f 1093/162 1094/159 1095/160
f 1096/161 1097/151 1098/150
f 1099/161 1100/160 1101/151
f 1102/111 1103/94 1104/99
f 1105/111 1106/113 1107/120
f 1108/111 1109/99 1110/113
f 1111/158 1112/155 1113/154
f 1114/155 1115/141 1116/154
f 1117/158 1118/157 1119/159
f 1120/158 1121/154 1122/157
f 1123/154 1124/141 1125/142
f 1126/154 1127/142 1128/157
f 1129/157 1130/156 1131/159
f 1132/159 1133/156 1134/160
f 1135/157 1136/142 1137/156
f 1138/156 1139/152 1140/160
f 1141/160 1142/152 1143/151
f 1144/156 1145/142 1146/152
f 1147/152 1148/147 1149/151
f 1150/152 1151/142 1152/147
f 1153/151 1154/146 1155/150
f 1156/151 1157/147 1158/146
f 1159/147 1160/142 1161/132
f 1162/147 1163/132 1164/146
f 1165/142 1166/141 1167/140
f 1168/142 1169/140 1170/132
f 1171/140 1172/141 1173/131
f 1174/140 1175/131 1176/132
f 1177/131 1178/120 1179/129
f 1180/131 1181/129 1182/132
f 1183/120 1184/113 1185/121
f 1186/120 1187/121 1188/129
f 1189/129 1190/130 1191/132
f 1192/129 1193/121 1194/130
f 1195/121 1196/113 1197/118
f 1198/121 1199/118 1200/130
f 1201/118 1202/138 1203/130
f 1204/130 1205/139 1206/132
f 1207/132 1208/139 1209/146
f 1210/130 1211/138 1212/139
f 1213/146 1214/145 1215/150
f 1216/146 1217/139 1218/145
f 1219/139 1220/138 1221/143
f 1222/139 1223/143 1224/145
f 1225/143 1226/138 1227/144
f 1228/143 1229/144 1230/145
f 1231/145 1232/153 1233/150
f 1234/153 1235/145 1236/144
f 1237/99 1238/100 1239/101
f 1240/100 1241/99 1242/95
f 1243/99 1244/94 1245/95
f 1246/100 1247/96 1248/101
f 1249/100 1250/95 1251/96
f 1252/95 1253/94 1254/78
f 1255/94 1256/73 1257/78
f 1258/95 1259/93 1260/96
f 1261/95 1262/78 1263/93
f 1264/93 1265/92 1266/96
f 1267/93 1268/78 1269/91
f 1270/93 1271/91 1272/92
f 1273/78 1274/73 1275/74
f 1276/78 1277/77 1278/91
f 1279/78 1280/74 1281/77
f 1282/91 1283/90 1284/92
f 1285/91 1286/77 1287/90
f 1288/92 1289/97 1290/96
f 1291/92 1292/90 1293/89
f 1294/92 1295/89 1296/97
f 1297/97 1298/98 1299/96
f 1300/97 1301/89 1302/98
f 1303/96 1304/102 1305/101
f 1306/96 1307/98 1308/102
f 1309/102 1310/103 1311/101
f 1312/102 1313/98 1314/103
f 1315/98 1316/89 1317/104
f 1318/98 1319/104 1320/103
f 1321/104 1322/89 1323/105
f 1324/104 1325/105 1326/103
f 1327/103 1328/105 1329/106
f 1330/90 1331/77 1332/87
f 1333/90 1334/87 1335/89
f 1336/87 1337/77 1338/82
f 1339/87 1340/88 1341/89
f 1342/87 1343/82 1344/88
f 1345/88 1346/86 1347/89
f 1348/88 1349/82 1350/86
f 1351/86 1352/82 1353/85
f 1354/85 1355/82 1356/83
f 1357/83 1358/82 1359/81
f 1360/82 1361/77 1362/76
f 1363/82 1364/76 1365/81
f 1366/81 1367/76 1368/80
f 1369/77 1370/74 1371/75
f 1372/77 1373/75 1374/76
f 1375/74 1376/73 1377/68
f 1378/73 1379/72 1380/68
f 1381/74 1382/69 1383/75
f 1384/74 1385/68 1386/69
f 1387/75 1388/70 1389/76
f 1390/75 1391/69 1392/70
f 1393/76 1394/79 1395/80
f 1396/80 1397/79 1398/58
f 1399/79 1400/76 1401/66
f 1402/76 1403/70 1404/66
f 1405/79 1406/66 1407/58
f 1408/70 1409/69 1410/65
f 1411/70 1412/65 1413/66
f 1414/66 1415/63 1416/58
f 1417/66 1418/65 1419/63
f 1420/63 1421/62 1422/58
f 1423/63 1424/65 1425/62
f 1426/65 1427/69 1428/64
f 1429/69 1430/68 1431/64
f 1432/65 1433/64 1434/62
f 1435/64 1436/68 1437/60
f 1438/64 1439/60 1440/62
f 1441/62 1442/61 1443/58
f 1444/62 1445/60 1446/61
f 1447/61 1448/59 1449/58
f 1450/61 1451/60 1452/59
f 1453/68 1454/72 1455/67
f 1456/68 1457/67 1458/60
f 1459/72 1460/71 1461/67
f 1462/67 1463/55 1464/60
f 1465/67 1466/71 1467/55
f 1468/60 1469/56 1470/59
f 1471/60 1472/55 1473/56
f 1474/59 1475/57 1476/58
f 1477/59 1478/56 1479/57
f 1480/58 1481/57 1482/54
f 1483/57 1484/56 1485/53
f 1486/57 1487/53 1488/54
f 1489/54 1490/53 1491/51
f 1492/53 1493/56 1494/52
f 1495/56 1496/55 1497/52
f 1498/53 1499/52 1500/51
f 1501/51 1502/52 1503/50
f 1504/52 1505/55 1506/50
f 1507/55 1508/71 1509/166
f 1510/71 1511/136 1512/166
f 1513/136 1514/71 1515/166
f 1516/71 1517/55 1518/166
f 1519/166 1520/167 1521/55
f 1522/167 1523/55 1524/50
f 1525/167 1526/166 1527/55
f 1528/167 1529/50 1530/55
f 1531/168 1532/169 1533/170
f 1534/168 1535/170 1536/171
f 1537/168 1538/172 1539/169
f 1540/168 1541/171 1542/172
f 1543/169 1544/173 1545/170
f 1546/169 1547/172 1548/168
f 1549/169 1550/170 1551/173
f 1552/169 1553/168 1554/170
f 1555/168 1556/172 1557/171
f 1558/168 1559/171 1560/170
f 1561/173 1562/174 1563/170
f 1564/173 1565/170 1566/174
f 1567/170 1568/171 1569/175
f 1570/170 1571/175 1572/174
f 1573/170 1574/175 1575/171
f 1576/170 1577/174 1578/175
f 1579/174 1580/175 1581/176
f 1582/174 1583/176 1584/175
f 1585/175 1586/177 1587/171
f 1588/175 1589/176 1590/177
f 1591/177 1592/178 1593/171
f 1594/177 1595/176 1596/178
f 1597/175 1598/171 1599/177
f 1600/175 1601/177 1602/176
f 1603/177 1604/171 1605/178
f 1606/177 1607/178 1608/176
f 1609/176 1610/179 1611/178
f 1612/176 1613/178 1614/179
f 1615/178 1616/171 1617/180
f 1618/178 1619/180 1620/179
f 1621/178 1622/180 1623/171
f 1624/178 1625/179 1626/180
f 1627/179 1628/180 1629/181
f 1630/179 1631/181 1632/180
f 1633/181 1634/180 1635/182
f 1636/181 1637/182 1638/180
f 1639/180 1640/183 1641/171
f 1642/180 1643/182 1644/183
f 1645/171 1646/184 1647/172
f 1648/171 1649/183 1650/184
f 1651/184 1652/185 1653/172
f 1654/183 1655/182 1656/185
f 1657/183 1658/185 1659/184
f 1660/182 1661/180 1662/183
f 1663/180 1664/171 1665/183
f 1666/182 1667/183 1668/185
f 1669/185 1670/184 1671/172
f 1672/184 1673/183 1674/171
f 1675/184 1676/185 1677/183
f 1678/184 1679/171 1680/172
