# Blender v2.72 (sub 0) OBJ File: 'ORAS Map Lighting.blend'
# www.blender.org
mtllib kimoridoll.mtl
o kimoridoll1
v 0.362180 0.026798 0.716286
v 0.165176 0.035028 0.282152
v 0.414482 0.118951 0.667063
v 0.165176 0.035028 0.282152
v 0.227427 0.125851 0.267221
v 0.414482 0.118951 0.667063
v 0.227427 0.125851 0.267221
v 0.235755 0.207086 0.329141
v 0.414482 0.118951 0.667063
v 0.414482 0.118951 0.667063
v 0.235755 0.207086 0.329141
v 0.377491 0.204400 0.677380
v 0.235755 0.207086 0.329141
v 0.143265 0.172518 0.402429
v 0.377491 0.204400 0.677380
v 0.377491 0.204400 0.677380
v 0.143265 0.172518 0.402429
v 0.312907 0.158522 0.765416
v 0.143265 0.172518 0.402429
v 0.118421 0.047038 0.368950
v 0.312907 0.158522 0.765416
v 0.312907 0.158522 0.765416
v 0.118421 0.047038 0.368950
v 0.307812 0.053208 0.773518
v 0.307812 0.053208 0.773518
v 0.118421 0.047038 0.368950
v 0.362180 0.026798 0.716286
v 0.362180 0.026798 0.716286
v 0.118421 0.047038 0.368950
v 0.165176 0.035028 0.282152
v 0.516775 0.774708 0.951048
v 0.589754 0.621825 0.768251
v 0.354680 0.679898 0.973810
v 0.354680 0.679898 0.973810
v 0.589754 0.621825 0.768251
v 0.548515 0.435575 0.665600
v 0.548515 0.435575 0.665600
v 0.377491 0.204400 0.677380
v 0.354680 0.679898 0.973810
v 0.354680 0.679898 0.973810
v 0.377491 0.204400 0.677380
v 0.312907 0.158522 0.765416
v 0.548515 0.435575 0.665600
v 0.589754 0.621825 0.768251
v 0.809508 0.457584 0.619060
v 0.589754 0.621825 0.768251
v 0.805663 0.592407 0.738605
v 0.809508 0.457584 0.619060
v 0.548515 0.435575 0.665600
v 0.731964 0.294850 0.609449
v 0.377491 0.204400 0.677380
v 0.548515 0.435575 0.665600
v 0.809508 0.457584 0.619060
v 0.731964 0.294850 0.609449
v 0.809508 0.457584 0.619060
v 0.970244 0.389007 0.603856
v 0.731964 0.294850 0.609449
v 0.970244 0.389007 0.603856
v 0.952093 0.218799 0.614496
v 0.731964 0.294850 0.609449
v 0.952093 0.218799 0.614496
v 0.783333 0.172607 0.669285
v 0.731964 0.294850 0.609449
v 0.783333 0.172607 0.669285
v 0.492264 0.045721 0.735580
v 0.731964 0.294850 0.609449
v 0.731964 0.294850 0.609449
v 0.414482 0.118951 0.667063
v 0.377491 0.204400 0.677380
v 0.731964 0.294850 0.609449
v 0.492264 0.045721 0.735580
v 0.414482 0.118951 0.667063
v 0.414482 0.118951 0.667063
v 0.492264 0.045721 0.735580
v 0.362180 0.026798 0.716286
v 0.492264 0.045721 0.735580
v 0.358715 0.050375 0.799302
v 0.362180 0.026798 0.716286
v 0.362180 0.026798 0.716286
v 0.358715 0.050375 0.799302
v 0.307812 0.053208 0.773518
v 0.805663 0.592407 0.738605
v 0.589754 0.621825 0.768251
v 0.625770 0.556470 0.986729
v 0.589754 0.621825 0.768251
v 0.516775 0.774708 0.951048
v 0.625770 0.556470 0.986729
v 0.625770 0.556470 0.986729
v 0.840584 0.407228 0.825725
v 0.805663 0.592407 0.738605
v 0.805663 0.592407 0.738605
v 0.840584 0.407228 0.825725
v 0.809508 0.457584 0.619060
v 0.809508 0.457584 0.619060
v 0.840584 0.407228 0.825725
v 0.970244 0.389007 0.603856
v 0.970244 0.389007 0.603856
v 0.840584 0.407228 0.825725
v 0.952093 0.218799 0.614496
v 0.840584 0.407228 0.825725
v 0.625770 0.556470 0.986729
v 0.744554 0.298787 0.874826
v 0.840584 0.407228 0.825725
v 0.744554 0.298787 0.874826
v 0.952093 0.218799 0.614496
v 0.952093 0.218799 0.614496
v 0.744554 0.298787 0.874826
v 0.783333 0.172607 0.669285
v 0.783333 0.172607 0.669285
v 0.744554 0.298787 0.874826
v 0.492264 0.045721 0.735580
v 0.625770 0.556470 0.986729
v 0.516775 0.774708 0.951048
v 0.536842 0.453522 1.016497
v 0.625770 0.556470 0.986729
v 0.536842 0.453522 1.016497
v 0.744554 0.298787 0.874826
v 0.744554 0.298787 0.874826
v 0.445195 0.116995 0.866129
v 0.492264 0.045721 0.735580
v 0.744554 0.298787 0.874826
v 0.536842 0.453522 1.016497
v 0.445195 0.116995 0.866129
v 0.492264 0.045721 0.735580
v 0.445195 0.116995 0.866129
v 0.358715 0.050375 0.799302
v 0.445195 0.116995 0.866129
v 0.536842 0.453522 1.016497
v 0.289118 0.173869 0.856367
v 0.445195 0.116995 0.866129
v 0.289118 0.173869 0.856367
v 0.358715 0.050375 0.799302
v 0.358715 0.050375 0.799302
v 0.289118 0.173869 0.856367
v 0.307812 0.053208 0.773518
v 0.307812 0.053208 0.773518
v 0.289118 0.173869 0.856367
v 0.312907 0.158522 0.765416
v 0.312907 0.158522 0.765416
v 0.289118 0.173869 0.856367
v 0.354680 0.679898 0.973810
v 0.354680 0.679898 0.973810
v 0.536842 0.453522 1.016497
v 0.516775 0.774708 0.951048
v 0.536842 0.453522 1.016497
v 0.354680 0.679898 0.973810
v 0.289118 0.173869 0.856367
v -0.526085 0.774708 0.951048
v -0.363989 0.679898 0.973810
v -0.599063 0.621825 0.768251
v -0.599063 0.621825 0.768251
v -0.363989 0.679898 0.973810
v -0.557825 0.435575 0.665600
v -0.557825 0.435575 0.665600
v -0.818818 0.457584 0.619060
v -0.599063 0.621825 0.768251
v -0.599063 0.621825 0.768251
v -0.818818 0.457584 0.619060
v -0.814973 0.592407 0.738605
v -0.557825 0.435575 0.665600
v -0.363989 0.679898 0.973810
v -0.386800 0.204400 0.677380
v -0.363989 0.679898 0.973810
v -0.322217 0.158522 0.765416
v -0.386800 0.204400 0.677380
v -0.557825 0.435575 0.665600
v -0.741274 0.294850 0.609449
v -0.818818 0.457584 0.619060
v -0.557825 0.435575 0.665600
v -0.386800 0.204400 0.677380
v -0.741274 0.294850 0.609449
v -0.386800 0.204400 0.677380
v -0.423790 0.118951 0.667063
v -0.741274 0.294850 0.609449
v -0.818818 0.457584 0.619060
v -0.741274 0.294850 0.609449
v -0.979552 0.389007 0.603856
v -0.979552 0.389007 0.603856
v -0.741274 0.294850 0.609449
v -0.961402 0.218799 0.614496
v -0.961402 0.218799 0.614496
v -0.741274 0.294850 0.609449
v -0.792642 0.172607 0.669285
v -0.792642 0.172607 0.669285
v -0.741274 0.294850 0.609449
v -0.501572 0.045721 0.735580
v -0.741274 0.294850 0.609449
v -0.423790 0.118951 0.667063
v -0.501572 0.045721 0.735580
v -0.423790 0.118951 0.667063
v -0.371490 0.026798 0.716286
v -0.501572 0.045721 0.735580
v -0.501572 0.045721 0.735580
v -0.371490 0.026798 0.716286
v -0.368025 0.050375 0.799302
v -0.368025 0.050375 0.799302
v -0.371490 0.026798 0.716286
v -0.317120 0.053208 0.773518
v -0.814973 0.592407 0.738605
v -0.635079 0.556470 0.986729
v -0.599063 0.621825 0.768251
v -0.599063 0.621825 0.768251
v -0.635079 0.556470 0.986729
v -0.526085 0.774708 0.951048
v -0.526085 0.774708 0.951048
v -0.635079 0.556470 0.986729
v -0.546151 0.453522 1.016497
v -0.526085 0.774708 0.951048
v -0.546151 0.453522 1.016497
v -0.363989 0.679898 0.973810
v -0.635079 0.556470 0.986729
v -0.814973 0.592407 0.738605
v -0.849893 0.407228 0.825725
v -0.814973 0.592407 0.738605
v -0.818818 0.457584 0.619060
v -0.849893 0.407228 0.825725
v -0.818818 0.457584 0.619060
v -0.979552 0.389007 0.603856
v -0.849893 0.407228 0.825725
v -0.979552 0.389007 0.603856
v -0.961402 0.218799 0.614496
v -0.849893 0.407228 0.825725
v -0.849893 0.407228 0.825725
v -0.753863 0.298787 0.874826
v -0.635079 0.556470 0.986729
v -0.635079 0.556470 0.986729
v -0.753863 0.298787 0.874826
v -0.546151 0.453522 1.016497
v -0.849893 0.407228 0.825725
v -0.961402 0.218799 0.614496
v -0.753863 0.298787 0.874826
v -0.961402 0.218799 0.614496
v -0.792642 0.172607 0.669285
v -0.753863 0.298787 0.874826
v -0.792642 0.172607 0.669285
v -0.501572 0.045721 0.735580
v -0.753863 0.298787 0.874826
v -0.753863 0.298787 0.874826
v -0.454504 0.116995 0.866129
v -0.546151 0.453522 1.016497
v -0.753863 0.298787 0.874826
v -0.501572 0.045721 0.735580
v -0.454504 0.116995 0.866129
v -0.501572 0.045721 0.735580
v -0.368025 0.050375 0.799302
v -0.454504 0.116995 0.866129
v -0.454504 0.116995 0.866129
v -0.298427 0.173869 0.856367
v -0.546151 0.453522 1.016497
v -0.546151 0.453522 1.016497
v -0.298427 0.173869 0.856367
v -0.363989 0.679898 0.973810
v -0.454504 0.116995 0.866129
v -0.368025 0.050375 0.799302
v -0.298427 0.173869 0.856367
v -0.368025 0.050375 0.799302
v -0.317120 0.053208 0.773518
v -0.298427 0.173869 0.856367
v -0.298427 0.173869 0.856367
v -0.322217 0.158522 0.765416
v -0.363989 0.679898 0.973810
v -0.322217 0.158522 0.765416
v -0.298427 0.173869 0.856367
v -0.317120 0.053208 0.773518
v -0.174485 0.035028 0.282152
v -0.127730 0.047038 0.368950
v -0.371490 0.026798 0.716286
v -0.371490 0.026798 0.716286
v -0.127730 0.047038 0.368950
v -0.317120 0.053208 0.773518
v -0.317120 0.053208 0.773518
v -0.127730 0.047038 0.368950
v -0.322217 0.158522 0.765416
v -0.127730 0.047038 0.368950
v -0.152573 0.172518 0.402429
v -0.322217 0.158522 0.765416
v -0.322217 0.158522 0.765416
v -0.152573 0.172518 0.402429
v -0.386800 0.204400 0.677380
v -0.152573 0.172518 0.402429
v -0.245063 0.207086 0.329141
v -0.386800 0.204400 0.677380
v -0.386800 0.204400 0.677380
v -0.245063 0.207086 0.329141
v -0.423790 0.118951 0.667063
v -0.245063 0.207086 0.329141
v -0.236735 0.125851 0.267221
v -0.423790 0.118951 0.667063
v -0.236735 0.125851 0.267221
v -0.174485 0.035028 0.282152
v -0.423790 0.118951 0.667063
v -0.423790 0.118951 0.667063
v -0.174485 0.035028 0.282152
v -0.371490 0.026798 0.716286
v 0.592843 0.877444 -0.719225
v 0.766872 0.814709 -0.843001
v 0.649815 0.954559 -0.651629
v 0.592843 0.877444 -0.719225
v 0.649815 0.954559 -0.651629
v 0.471221 1.080681 -0.825780
v 0.649815 0.954559 -0.651629
v 0.766872 0.814709 -0.843001
v 0.886069 0.954778 -0.736513
v 0.649815 0.954559 -0.651629
v 0.717081 1.121518 -0.679957
v 0.471221 1.080681 -0.825780
v 0.649815 0.954559 -0.651629
v 0.886069 0.954778 -0.736513
v 0.717081 1.121518 -0.679957
v 0.717081 1.121518 -0.679957
v 0.694726 1.256954 -0.929994
v 0.471221 1.080681 -0.825780
v 0.717081 1.121518 -0.679957
v 0.886069 0.954778 -0.736513
v 0.896165 1.222471 -0.844076
v 0.717081 1.121518 -0.679957
v 0.896165 1.222471 -0.844076
v 0.694726 1.256954 -0.929994
v 0.886069 0.954778 -0.736513
v 0.766872 0.814709 -0.843001
v 0.884801 0.870635 -1.012534
v 0.886069 0.954778 -0.736513
v 0.951915 1.056048 -0.911867
v 0.896165 1.222471 -0.844076
v 0.886069 0.954778 -0.736513
v 0.884801 0.870635 -1.012534
v 0.951915 1.056048 -0.911867
v 0.951915 1.056048 -0.911867
v 0.786121 1.169002 -1.048298
v 0.896165 1.222471 -0.844076
v 0.896165 1.222471 -0.844076
v 0.786121 1.169002 -1.048298
v 0.694726 1.256954 -0.929994
v 0.951915 1.056048 -0.911867
v 0.884801 0.870635 -1.012534
v 0.786121 1.169002 -1.048298
v 0.694726 1.256954 -0.929994
v 0.517477 1.209946 -0.993764
v 0.471221 1.080681 -0.825780
v 0.694726 1.256954 -0.929994
v 0.786121 1.169002 -1.048298
v 0.517477 1.209946 -0.993764
v 0.884801 0.870635 -1.012534
v 0.766872 0.814709 -0.843001
v 0.787020 0.670428 -0.947815
v 0.884801 0.870635 -1.012534
v 0.641893 0.941892 -1.104411
v 0.786121 1.169002 -1.048298
v 0.884801 0.870635 -1.012534
v 0.787020 0.670428 -0.947815
v 0.641893 0.941892 -1.104411
v 0.786121 1.169002 -1.048298
v 0.433670 1.114779 -1.045327
v 0.517477 1.209946 -0.993764
v 0.786121 1.169002 -1.048298
v 0.641893 0.941892 -1.104411
v 0.433670 1.114779 -1.045327
v 0.517477 1.209946 -0.993764
v 0.539358 1.369878 -0.885882
v 0.471221 1.080681 -0.825780
v 0.517477 1.209946 -0.993764
v 0.433670 1.114779 -1.045327
v 0.395911 1.452599 -0.937510
v 0.517477 1.209946 -0.993764
v 0.395911 1.452599 -0.937510
v 0.539358 1.369878 -0.885882
v 0.641893 0.941892 -1.104411
v 0.787020 0.670428 -0.947815
v 0.486187 0.636108 -0.954040
v 0.641893 0.941892 -1.104411
v 0.310935 0.940671 -1.031919
v 0.433670 1.114779 -1.045327
v 0.641893 0.941892 -1.104411
v 0.486187 0.636108 -0.954040
v 0.310935 0.940671 -1.031919
v 0.433670 1.114779 -1.045327
v 0.205985 1.258705 -0.980647
v 0.395911 1.452599 -0.937510
v 0.433670 1.114779 -1.045327
v 0.310935 0.940671 -1.031919
v 0.205985 1.258705 -0.980647
v 0.539358 1.369878 -0.885882
v 0.499804 1.279432 -0.618267
v 0.471221 1.080681 -0.825780
v 0.539358 1.369878 -0.885882
v 0.395911 1.452599 -0.937510
v 0.489555 1.517995 -0.728632
v 0.539358 1.369878 -0.885882
v 0.489555 1.517995 -0.728632
v 0.499804 1.279432 -0.618267
v 0.787020 0.670428 -0.947815
v 0.766872 0.814709 -0.843001
v 0.650087 0.478606 -0.730182
v 0.787020 0.670428 -0.947815
v 0.348130 0.447482 -0.735671
v 0.486187 0.636108 -0.954040
v 0.787020 0.670428 -0.947815
v 0.650087 0.478606 -0.730182
v 0.348130 0.447482 -0.735671
v 0.310935 0.940671 -1.031919
v 0.486187 0.636108 -0.954040
v 0.201366 0.734451 -0.889943
v 0.486187 0.636108 -0.954040
v 0.348130 0.447482 -0.735671
v 0.135098 0.590378 -0.754540
v 0.486187 0.636108 -0.954040
v 0.135098 0.590378 -0.754540
v 0.201366 0.734451 -0.889943
v 0.201366 0.734451 -0.889943
v 0.020641 0.974462 -0.821861
v 0.310935 0.940671 -1.031919
v 0.310935 0.940671 -1.031919
v 0.020641 0.974462 -0.821861
v 0.205985 1.258705 -0.980647
v 0.201366 0.734451 -0.889943
v 0.135098 0.590378 -0.754540
v 0.020641 0.974462 -0.821861
v 0.395911 1.452599 -0.937510
v 0.301706 1.528613 -0.727261
v 0.489555 1.517995 -0.728632
v 0.489555 1.517995 -0.728632
v 0.288109 1.389375 -0.566741
v 0.499804 1.279432 -0.618267
v 0.489555 1.517995 -0.728632
v 0.301706 1.528613 -0.727261
v 0.288109 1.389375 -0.566741
v 0.301706 1.528613 -0.727261
v 0.395911 1.452599 -0.937510
v 0.114972 1.430142 -0.793965
v 0.395911 1.452599 -0.937510
v 0.205985 1.258705 -0.980647
v 0.114972 1.430142 -0.793965
v 0.301706 1.528613 -0.727261
v 0.114972 1.430142 -0.793965
v 0.288109 1.389375 -0.566741
v 0.205985 1.258705 -0.980647
v 0.020641 0.974462 -0.821861
v -0.060429 1.172560 -0.707503
v 0.205985 1.258705 -0.980647
v -0.060429 1.172560 -0.707503
v 0.114972 1.430142 -0.793965
v 0.114972 1.430142 -0.793965
v 0.152953 1.260900 -0.668697
v 0.288109 1.389375 -0.566741
v 0.114972 1.430142 -0.793965
v -0.060429 1.172560 -0.707503
v 0.152953 1.260900 -0.668697
v 0.288109 1.389375 -0.566741
v 0.375313 1.154061 -0.573693
v 0.499804 1.279432 -0.618267
v 0.499804 1.279432 -0.618267
v 0.375313 1.154061 -0.573693
v 0.471221 1.080681 -0.825780
v 0.288109 1.389375 -0.566741
v 0.152953 1.260900 -0.668697
v 0.375313 1.154061 -0.573693
v 0.375313 1.154061 -0.573693
v 0.295633 1.093453 -0.634842
v 0.471221 1.080681 -0.825780
v 0.295633 1.093453 -0.634842
v 0.375313 1.154061 -0.573693
v 0.152953 1.260900 -0.668697
v 0.020641 0.974462 -0.821861
v 0.135098 0.590378 -0.754540
v -0.039144 0.728948 -0.625717
v 0.020641 0.974462 -0.821861
v -0.039144 0.728948 -0.625717
v -0.060429 1.172560 -0.707503
v -0.060429 1.172560 -0.707503
v -0.083274 0.893688 -0.467676
v 0.152953 1.260900 -0.668697
v -0.060429 1.172560 -0.707503
v -0.039144 0.728948 -0.625717
v -0.083274 0.893688 -0.467676
v 0.135098 0.590378 -0.754540
v 0.348130 0.447482 -0.735671
v 0.059772 0.403280 -0.540905
v 0.135098 0.590378 -0.754540
v 0.059772 0.403280 -0.540905
v -0.039144 0.728948 -0.625717
v -0.039144 0.728948 -0.625717
v -0.066376 0.546516 -0.406332
v -0.083274 0.893688 -0.467676
v -0.039144 0.728948 -0.625717
v 0.059772 0.403280 -0.540905
v -0.066376 0.546516 -0.406332
v 0.348130 0.447482 -0.735671
v 0.650087 0.478606 -0.730182
v 0.267356 0.303964 -0.501086
v 0.348130 0.447482 -0.735671
v 0.267356 0.303964 -0.501086
v 0.059772 0.403280 -0.540905
v 0.059772 0.403280 -0.540905
v 0.013300 0.200436 -0.185340
v -0.066376 0.546516 -0.406332
v 0.059772 0.403280 -0.540905
v 0.267356 0.303964 -0.501086
v 0.013300 0.200436 -0.185340
v -0.083274 0.893688 -0.467676
v 0.195466 0.916935 -0.377889
v 0.152953 1.260900 -0.668697
v 0.152953 1.260900 -0.668697
v 0.195466 0.916935 -0.377889
v 0.295633 1.093453 -0.634842
v -0.083274 0.893688 -0.467676
v -0.066376 0.546516 -0.406332
v -0.048427 0.629235 -0.248698
v -0.083274 0.893688 -0.467676
v -0.048427 0.629235 -0.248698
v 0.195466 0.916935 -0.377889
v -0.066376 0.546516 -0.406332
v 0.013300 0.200436 -0.185340
v -0.023766 0.437058 -0.125945
v -0.066376 0.546516 -0.406332
v -0.023766 0.437058 -0.125945
v -0.048427 0.629235 -0.248698
v 0.650087 0.478606 -0.730182
v 0.766872 0.814709 -0.843001
v 0.576714 0.685323 -0.508368
v 0.766872 0.814709 -0.843001
v 0.592843 0.877444 -0.719225
v 0.576714 0.685323 -0.508368
v 0.650087 0.478606 -0.730182
v 0.499492 0.364419 -0.446334
v 0.267356 0.303964 -0.501086
v 0.650087 0.478606 -0.730182
v 0.576714 0.685323 -0.508368
v 0.499492 0.364419 -0.446334
v 0.267356 0.303964 -0.501086
v 0.298397 0.266895 -0.199145
v 0.013300 0.200436 -0.185340
v 0.267356 0.303964 -0.501086
v 0.499492 0.364419 -0.446334
v 0.298397 0.266895 -0.199145
v 0.499492 0.364419 -0.446334
v 0.576714 0.685323 -0.508368
v 0.309289 0.622212 -0.222511
v 0.499492 0.364419 -0.446334
v 0.309289 0.622212 -0.222511
v 0.298397 0.266895 -0.199145
v -0.048427 0.629235 -0.248698
v 0.309289 0.622212 -0.222511
v 0.195466 0.916935 -0.377889
v 0.309289 0.622212 -0.222511
v 0.576714 0.685323 -0.508368
v 0.355472 0.769242 -0.436223
v 0.195466 0.916935 -0.377889
v 0.404302 0.911347 -0.628004
v 0.295633 1.093453 -0.634842
v 0.355472 0.769242 -0.436223
v 0.195466 0.916935 -0.377889
v 0.309289 0.622212 -0.222511
v 0.355472 0.769242 -0.436223
v 0.576714 0.685323 -0.508368
v 0.404302 0.911347 -0.628004
v 0.576714 0.685323 -0.508368
v 0.592843 0.877444 -0.719225
v 0.404302 0.911347 -0.628004
v 0.355472 0.769242 -0.436223
v 0.404302 0.911347 -0.628004
v 0.195466 0.916935 -0.377889
v 0.404302 0.911347 -0.628004
v 0.471221 1.080681 -0.825780
v 0.295633 1.093453 -0.634842
v 0.471221 1.080681 -0.825780
v 0.404302 0.911347 -0.628004
v 0.592843 0.877444 -0.719225
v 0.309289 0.622212 -0.222511
v 0.195365 0.405618 -0.069314
v 0.298397 0.266895 -0.199145
v -0.048427 0.629235 -0.248698
v -0.023766 0.437058 -0.125945
v 0.195365 0.405618 -0.069314
v -0.048427 0.629235 -0.248698
v 0.195365 0.405618 -0.069314
v 0.309289 0.622212 -0.222511
v 0.195365 0.405618 -0.069314
v 0.033719 0.147064 0.023204
v 0.298397 0.266895 -0.199145
v 0.033719 0.147064 0.023204
v 0.013300 0.200436 -0.185340
v 0.298397 0.266895 -0.199145
v 0.033719 0.147064 0.023204
v 0.195365 0.405618 -0.069314
v -0.023766 0.437058 -0.125945
v -0.023766 0.437058 -0.125945
v 0.013300 0.200436 -0.185340
v 0.033719 0.147064 0.023204
v -0.004655 0.045204 0.394312
v 0.118421 0.047038 0.368950
v -0.004655 0.133348 0.469788
v -0.004655 0.045204 0.394312
v -0.004655 0.133348 0.469788
v -0.127730 0.047038 0.368950
v -0.127730 0.047038 0.368950
v -0.004655 0.133348 0.469788
v -0.105878 0.237052 0.457328
v -0.127730 0.047038 0.368950
v -0.105878 0.237052 0.457328
v -0.152573 0.172518 0.402429
v -0.004655 0.133348 0.469788
v 0.118421 0.047038 0.368950
v 0.096568 0.237052 0.457328
v 0.118421 0.047038 0.368950
v 0.143265 0.172518 0.402429
v 0.096568 0.237052 0.457328
v -0.004655 0.133348 0.469788
v -0.004655 0.243091 0.503649
v -0.105878 0.237052 0.457328
v -0.004655 0.133348 0.469788
v 0.096568 0.237052 0.457328
v -0.004655 0.243091 0.503649
v -0.004655 0.243091 0.503649
v -0.080021 0.309985 0.494415
v -0.105878 0.237052 0.457328
v -0.004655 0.243091 0.503649
v 0.096568 0.237052 0.457328
v 0.070712 0.309985 0.494415
v -0.004655 0.243091 0.503649
v -0.004655 0.368454 0.473261
v -0.080021 0.309985 0.494415
v -0.004655 0.243091 0.503649
v 0.070712 0.309985 0.494415
v -0.004655 0.368454 0.473261
v -0.080021 0.309985 0.494415
v -0.119524 0.345299 0.536280
v -0.105878 0.237052 0.457328
v -0.080021 0.309985 0.494415
v -0.004655 0.368454 0.473261
v -0.058958 0.385206 0.519117
v -0.080021 0.309985 0.494415
v -0.058958 0.385206 0.519117
v -0.119524 0.345299 0.536280
v 0.070712 0.309985 0.494415
v 0.096568 0.237052 0.457328
v 0.110215 0.345299 0.536280
v 0.070712 0.309985 0.494415
v 0.049649 0.385206 0.519117
v -0.004655 0.368454 0.473261
v 0.070712 0.309985 0.494415
v 0.110215 0.345299 0.536280
v 0.049649 0.385206 0.519117
v -0.105878 0.237052 0.457328
v -0.188310 0.222988 0.400976
v -0.152573 0.172518 0.402429
v -0.152573 0.172518 0.402429
v -0.188310 0.222988 0.400976
v -0.245063 0.207086 0.329141
v -0.105878 0.237052 0.457328
v -0.119524 0.345299 0.536280
v -0.165375 0.274677 0.507712
v -0.105878 0.237052 0.457328
v -0.165375 0.274677 0.507712
v -0.188310 0.222988 0.400976
v -0.188310 0.222988 0.400976
v -0.232353 0.272997 0.368658
v -0.245063 0.207086 0.329141
v -0.188310 0.222988 0.400976
v -0.165375 0.274677 0.507712
v -0.232353 0.272997 0.368658
v -0.058958 0.385206 0.519117
v -0.098722 0.461312 0.492286
v -0.119524 0.345299 0.536280
v -0.119524 0.345299 0.536280
v -0.196177 0.356724 0.492828
v -0.165375 0.274677 0.507712
v -0.119524 0.345299 0.536280
v -0.098722 0.461312 0.492286
v -0.196177 0.356724 0.492828
v -0.165375 0.274677 0.507712
v -0.267221 0.351330 0.366998
v -0.232353 0.272997 0.368658
v -0.165375 0.274677 0.507712
v -0.196177 0.356724 0.492828
v -0.267221 0.351330 0.366998
v -0.232353 0.272997 0.368658
v -0.309820 0.277070 0.219918
v -0.245063 0.207086 0.329141
v -0.232353 0.272997 0.368658
v -0.267221 0.351330 0.366998
v -0.309820 0.277070 0.219918
v -0.245063 0.207086 0.329141
v -0.309820 0.277070 0.219918
v -0.236735 0.125851 0.267221
v -0.058958 0.385206 0.519117
v -0.004655 0.368454 0.473261
v -0.054674 0.432299 0.449169
v -0.058958 0.385206 0.519117
v -0.054674 0.432299 0.449169
v -0.098722 0.461312 0.492286
v 0.096568 0.237052 0.457328
v 0.143265 0.172518 0.402429
v 0.179001 0.222988 0.400976
v 0.143265 0.172518 0.402429
v 0.235755 0.207086 0.329141
v 0.179001 0.222988 0.400976
v 0.096568 0.237052 0.457328
v 0.156067 0.274677 0.507712
v 0.110215 0.345299 0.536280
v 0.096568 0.237052 0.457328
v 0.179001 0.222988 0.400976
v 0.156067 0.274677 0.507712
v 0.179001 0.222988 0.400976
v 0.235755 0.207086 0.329141
v 0.223043 0.272997 0.368658
v 0.179001 0.222988 0.400976
v 0.223043 0.272997 0.368658
v 0.156067 0.274677 0.507712
v 0.049649 0.385206 0.519117
v 0.110215 0.345299 0.536280
v 0.089413 0.461312 0.492286
v 0.110215 0.345299 0.536280
v 0.156067 0.274677 0.507712
v 0.186868 0.356724 0.492828
v 0.110215 0.345299 0.536280
v 0.186868 0.356724 0.492828
v 0.089413 0.461312 0.492286
v 0.156067 0.274677 0.507712
v 0.223043 0.272997 0.368658
v 0.257912 0.351330 0.366998
v 0.156067 0.274677 0.507712
v 0.257912 0.351330 0.366998
v 0.186868 0.356724 0.492828
v 0.223043 0.272997 0.368658
v 0.235755 0.207086 0.329141
v 0.300512 0.277070 0.219918
v 0.223043 0.272997 0.368658
v 0.300512 0.277070 0.219918
v 0.257912 0.351330 0.366998
v 0.235755 0.207086 0.329141
v 0.227427 0.125851 0.267221
v 0.300512 0.277070 0.219918
v 0.049649 0.385206 0.519117
v 0.045365 0.432299 0.449169
v -0.004655 0.368454 0.473261
v 0.049649 0.385206 0.519117
v 0.089413 0.461312 0.492286
v 0.045365 0.432299 0.449169
v -0.004655 0.368454 0.473261
v -0.004655 0.493988 0.435618
v -0.054674 0.432299 0.449169
v -0.004655 0.368454 0.473261
v 0.045365 0.432299 0.449169
v -0.004655 0.493988 0.435618
v 0.045365 0.432299 0.449169
v 0.089413 0.461312 0.492286
v 0.084753 0.525741 0.403725
v 0.045365 0.432299 0.449169
v 0.084753 0.525741 0.403725
v -0.004655 0.493988 0.435618
v 0.089413 0.461312 0.492286
v 0.186868 0.356724 0.492828
v 0.153196 0.471918 0.454432
v 0.089413 0.461312 0.492286
v 0.153196 0.471918 0.454432
v 0.084753 0.525741 0.403725
v 0.186868 0.356724 0.492828
v 0.257912 0.351330 0.366998
v 0.201085 0.437541 0.435115
v 0.186868 0.356724 0.492828
v 0.201085 0.437541 0.435115
v 0.153196 0.471918 0.454432
v 0.153196 0.471918 0.454432
v 0.151547 0.485655 0.367220
v 0.084753 0.525741 0.403725
v 0.153196 0.471918 0.454432
v 0.201085 0.437541 0.435115
v 0.151547 0.485655 0.367220
v 0.201085 0.437541 0.435115
v 0.257912 0.351330 0.366998
v 0.196210 0.419816 0.367699
v 0.201085 0.437541 0.435115
v 0.196210 0.419816 0.367699
v 0.151547 0.485655 0.367220
v 0.151547 0.485655 0.367220
v 0.177851 0.511894 0.328518
v 0.084753 0.525741 0.403725
v 0.151547 0.485655 0.367220
v 0.196210 0.419816 0.367699
v 0.177851 0.511894 0.328518
v 0.196210 0.419816 0.367699
v 0.257912 0.351330 0.366998
v 0.225329 0.506159 0.273428
v 0.196210 0.419816 0.367699
v 0.225329 0.506159 0.273428
v 0.177851 0.511894 0.328518
v 0.177851 0.511894 0.328518
v 0.132650 0.579218 0.295806
v 0.084753 0.525741 0.403725
v 0.177851 0.511894 0.328518
v 0.225329 0.506159 0.273428
v 0.132650 0.579218 0.295806
v 0.132650 0.579218 0.295806
v -0.004655 0.588448 0.368922
v 0.084753 0.525741 0.403725
v 0.084753 0.525741 0.403725
v -0.004655 0.588448 0.368922
v -0.004655 0.493988 0.435618
v -0.004655 0.493988 0.435618
v -0.094062 0.525741 0.403725
v -0.054674 0.432299 0.449169
v -0.054674 0.432299 0.449169
v -0.094062 0.525741 0.403725
v -0.098722 0.461312 0.492286
v -0.004655 0.493988 0.435618
v -0.004655 0.588448 0.368922
v -0.094062 0.525741 0.403725
v -0.004655 0.588448 0.368922
v -0.141958 0.579218 0.295806
v -0.094062 0.525741 0.403725
v 0.132650 0.579218 0.295806
v 0.225329 0.506159 0.273428
v 0.203040 0.585886 0.222583
v 0.257912 0.351330 0.366998
v 0.300512 0.277070 0.219918
v 0.328841 0.412018 0.211848
v 0.257912 0.351330 0.366998
v 0.328841 0.412018 0.211848
v 0.225329 0.506159 0.273428
v 0.225329 0.506159 0.273428
v 0.308854 0.507175 0.155465
v 0.203040 0.585886 0.222583
v 0.225329 0.506159 0.273428
v 0.328841 0.412018 0.211848
v 0.308854 0.507175 0.155465
v 0.328841 0.412018 0.211848
v 0.300512 0.277070 0.219918
v 0.257085 0.377160 0.105483
v 0.328841 0.412018 0.211848
v 0.257085 0.377160 0.105483
v 0.308854 0.507175 0.155465
v 0.300512 0.277070 0.219918
v 0.227427 0.125851 0.267221
v 0.272217 0.228808 0.134584
v 0.300512 0.277070 0.219918
v 0.272217 0.228808 0.134584
v 0.257085 0.377160 0.105483
v 0.203040 0.585886 0.222583
v 0.308854 0.507175 0.155465
v 0.247374 0.592282 0.148866
v 0.308854 0.507175 0.155465
v 0.257085 0.377160 0.105483
v 0.214231 0.501384 0.057894
v 0.308854 0.507175 0.155465
v 0.214231 0.501384 0.057894
v 0.247374 0.592282 0.148866
v 0.257085 0.377160 0.105483
v 0.272217 0.228808 0.134584
v 0.132347 0.278342 -0.001954
v 0.257085 0.377160 0.105483
v 0.132347 0.278342 -0.001954
v 0.214231 0.501384 0.057894
v 0.272217 0.228808 0.134584
v 0.227427 0.125851 0.267221
v 0.187385 0.119646 0.153764
v 0.227427 0.125851 0.267221
v 0.165176 0.035028 0.282152
v 0.187385 0.119646 0.153764
v 0.165176 0.035028 0.282152
v 0.113773 0.025075 0.164703
v 0.187385 0.119646 0.153764
v 0.187385 0.119646 0.153764
v 0.121571 0.133618 0.032088
v 0.272217 0.228808 0.134584
v 0.272217 0.228808 0.134584
v 0.121571 0.133618 0.032088
v 0.132347 0.278342 -0.001954
v 0.187385 0.119646 0.153764
v 0.113773 0.025075 0.164703
v 0.121571 0.133618 0.032088
v 0.214231 0.501384 0.057894
v 0.154661 0.594991 0.046570
v 0.247374 0.592282 0.148866
v 0.214231 0.501384 0.057894
v 0.132347 0.278342 -0.001954
v 0.113838 0.500806 -0.007147
v 0.214231 0.501384 0.057894
v 0.113838 0.500806 -0.007147
v 0.154661 0.594991 0.046570
v 0.132347 0.278342 -0.001954
v 0.121571 0.133618 0.032088
v -0.004655 0.259310 -0.069119
v 0.132347 0.278342 -0.001954
v -0.004655 0.259310 -0.069119
v 0.113838 0.500806 -0.007147
v 0.121571 0.133618 0.032088
v 0.113773 0.025075 0.164703
v -0.004655 0.029090 0.074040
v 0.113773 0.025075 0.164703
v -0.004655 0.019153 0.130765
v -0.004655 0.029090 0.074040
v -0.004655 0.019153 0.130765
v -0.123083 0.025075 0.164703
v -0.004655 0.029090 0.074040
v 0.121571 0.133618 0.032088
v -0.004655 0.106141 -0.019894
v -0.004655 0.259310 -0.069119
v 0.121571 0.133618 0.032088
v -0.004655 0.029090 0.074040
v -0.004655 0.106141 -0.019894
v -0.004655 0.106141 -0.019894
v -0.130879 0.133618 0.032088
v -0.004655 0.259310 -0.069119
v -0.004655 0.029090 0.074040
v -0.123083 0.025075 0.164703
v -0.130879 0.133618 0.032088
v -0.004655 0.029090 0.074040
v -0.130879 0.133618 0.032088
v -0.004655 0.106141 -0.019894
v 0.113838 0.500806 -0.007147
v -0.004655 0.605540 -0.017147
v 0.154661 0.594991 0.046570
v 0.113838 0.500806 -0.007147
v -0.004655 0.259310 -0.069119
v -0.004655 0.497203 -0.046235
v 0.113838 0.500806 -0.007147
v -0.004655 0.497203 -0.046235
v -0.004655 0.605540 -0.017147
v -0.004655 0.497203 -0.046235
v -0.004655 0.259310 -0.069119
v -0.123147 0.500806 -0.007147
v -0.004655 0.497203 -0.046235
v -0.123147 0.500806 -0.007147
v -0.004655 0.605540 -0.017147
v -0.004655 0.259310 -0.069119
v -0.130879 0.133618 0.032088
v -0.141656 0.278342 -0.001954
v -0.004655 0.259310 -0.069119
v -0.141656 0.278342 -0.001954
v -0.123147 0.500806 -0.007147
v 0.154661 0.594991 0.046570
v 0.416303 0.690410 0.118010
v 0.247374 0.592282 0.148866
v 0.247374 0.592282 0.148866
v 0.416303 0.690410 0.118010
v 0.203040 0.585886 0.222583
v 0.154661 0.594991 0.046570
v -0.004655 0.605540 -0.017147
v 0.249909 0.707782 -0.169882
v 0.154661 0.594991 0.046570
v 0.249909 0.707782 -0.169882
v 0.416303 0.690410 0.118010
v -0.130879 0.133618 0.032088
v -0.123083 0.025075 0.164703
v -0.196693 0.119646 0.153764
v -0.123083 0.025075 0.164703
v -0.174485 0.035028 0.282152
v -0.196693 0.119646 0.153764
v -0.174485 0.035028 0.282152
v -0.236735 0.125851 0.267221
v -0.196693 0.119646 0.153764
v -0.196693 0.119646 0.153764
v -0.281526 0.228808 0.134584
v -0.130879 0.133618 0.032088
v -0.130879 0.133618 0.032088
v -0.281526 0.228808 0.134584
v -0.141656 0.278342 -0.001954
v -0.196693 0.119646 0.153764
v -0.236735 0.125851 0.267221
v -0.281526 0.228808 0.134584
v -0.236735 0.125851 0.267221
v -0.309820 0.277070 0.219918
v -0.281526 0.228808 0.134584
v -0.281526 0.228808 0.134584
v -0.266394 0.377160 0.105483
v -0.141656 0.278342 -0.001954
v -0.281526 0.228808 0.134584
v -0.309820 0.277070 0.219918
v -0.266394 0.377160 0.105483
v -0.141656 0.278342 -0.001954
v -0.223541 0.501384 0.057894
v -0.123147 0.500806 -0.007147
v -0.141656 0.278342 -0.001954
v -0.266394 0.377160 0.105483
v -0.223541 0.501384 0.057894
v -0.123147 0.500806 -0.007147
v -0.163970 0.594991 0.046570
v -0.004655 0.605540 -0.017147
v -0.123147 0.500806 -0.007147
v -0.223541 0.501384 0.057894
v -0.163970 0.594991 0.046570
v -0.266394 0.377160 0.105483
v -0.309820 0.277070 0.219918
v -0.338150 0.412018 0.211848
v -0.309820 0.277070 0.219918
v -0.267221 0.351330 0.366998
v -0.338150 0.412018 0.211848
v -0.266394 0.377160 0.105483
v -0.318163 0.507175 0.155465
v -0.223541 0.501384 0.057894
v -0.266394 0.377160 0.105483
v -0.338150 0.412018 0.211848
v -0.318163 0.507175 0.155465
v -0.338150 0.412018 0.211848
v -0.267221 0.351330 0.366998
v -0.234638 0.506159 0.273428
v -0.338150 0.412018 0.211848
v -0.234638 0.506159 0.273428
v -0.318163 0.507175 0.155465
v -0.223541 0.501384 0.057894
v -0.256683 0.592282 0.148866
v -0.163970 0.594991 0.046570
v -0.223541 0.501384 0.057894
v -0.318163 0.507175 0.155465
v -0.256683 0.592282 0.148866
v -0.318163 0.507175 0.155465
v -0.234638 0.506159 0.273428
v -0.212349 0.585886 0.222583
v -0.318163 0.507175 0.155465
v -0.212349 0.585886 0.222583
v -0.256683 0.592282 0.148866
v -0.212349 0.585886 0.222583
v -0.234638 0.506159 0.273428
v -0.141958 0.579218 0.295806
v -0.004655 0.605540 -0.017147
v -0.004655 0.722179 -0.256111
v 0.249909 0.707782 -0.169882
v -0.004655 0.605540 -0.017147
v -0.163970 0.594991 0.046570
v -0.259218 0.707782 -0.169882
v -0.004655 0.605540 -0.017147
v -0.259218 0.707782 -0.169882
v -0.004655 0.722179 -0.256111
v -0.163970 0.594991 0.046570
v -0.256683 0.592282 0.148866
v -0.425612 0.690410 0.118010
v -0.163970 0.594991 0.046570
v -0.425612 0.690410 0.118010
v -0.259218 0.707782 -0.169882
v -0.256683 0.592282 0.148866
v -0.212349 0.585886 0.222583
v -0.425612 0.690410 0.118010
v -0.234638 0.506159 0.273428
v -0.267221 0.351330 0.366998
v -0.205518 0.419816 0.367699
v -0.234638 0.506159 0.273428
v -0.187160 0.511894 0.328518
v -0.141958 0.579218 0.295806
v -0.234638 0.506159 0.273428
v -0.205518 0.419816 0.367699
v -0.187160 0.511894 0.328518
v -0.141958 0.579218 0.295806
v -0.187160 0.511894 0.328518
v -0.094062 0.525741 0.403725
v -0.187160 0.511894 0.328518
v -0.205518 0.419816 0.367699
v -0.160855 0.485655 0.367220
v -0.187160 0.511894 0.328518
v -0.160855 0.485655 0.367220
v -0.094062 0.525741 0.403725
v -0.205518 0.419816 0.367699
v -0.267221 0.351330 0.366998
v -0.210393 0.437541 0.435115
v -0.205518 0.419816 0.367699
v -0.210393 0.437541 0.435115
v -0.160855 0.485655 0.367220
v -0.160855 0.485655 0.367220
v -0.162504 0.471918 0.454432
v -0.094062 0.525741 0.403725
v -0.160855 0.485655 0.367220
v -0.210393 0.437541 0.435115
v -0.162504 0.471918 0.454432
v -0.210393 0.437541 0.435115
v -0.267221 0.351330 0.366998
v -0.196177 0.356724 0.492828
v -0.210393 0.437541 0.435115
v -0.196177 0.356724 0.492828
v -0.162504 0.471918 0.454432
v -0.162504 0.471918 0.454432
v -0.098722 0.461312 0.492286
v -0.094062 0.525741 0.403725
v -0.098722 0.461312 0.492286
v -0.162504 0.471918 0.454432
v -0.196177 0.356724 0.492828
v -0.259218 0.707782 -0.169882
v -0.294503 0.910358 -0.356947
v -0.004655 0.722179 -0.256111
v -0.259218 0.707782 -0.169882
v -0.425612 0.690410 0.118010
v -0.444662 0.879972 -0.229892
v -0.259218 0.707782 -0.169882
v -0.444662 0.879972 -0.229892
v -0.294503 0.910358 -0.356947
v -0.004655 0.722179 -0.256111
v 0.285195 0.910358 -0.356947
v 0.249909 0.707782 -0.169882
v -0.004655 0.722179 -0.256111
v -0.294503 0.910358 -0.356947
v -0.004655 0.933153 -0.420087
v -0.004655 0.722179 -0.256111
v -0.004655 0.933153 -0.420087
v 0.285195 0.910358 -0.356947
v -0.444662 0.879972 -0.229892
v -0.425612 0.690410 0.118010
v -0.574039 0.864239 0.062504
v -0.444662 0.879972 -0.229892
v -0.514673 1.098201 -0.267542
v -0.294503 0.910358 -0.356947
v -0.444662 0.879972 -0.229892
v -0.574039 0.864239 0.062504
v -0.514673 1.098201 -0.267542
v -0.294503 0.910358 -0.356947
v -0.289881 1.131959 -0.435107
v -0.004655 0.933153 -0.420087
v -0.294503 0.910358 -0.356947
v -0.514673 1.098201 -0.267542
v -0.289881 1.131959 -0.435107
v -0.425612 0.690410 0.118010
v -0.212349 0.585886 0.222583
v -0.295588 0.678977 0.321095
v -0.212349 0.585886 0.222583
v -0.141958 0.579218 0.295806
v -0.295588 0.678977 0.321095
v -0.425612 0.690410 0.118010
v -0.420167 0.846883 0.323525
v -0.574039 0.864239 0.062504
v -0.425612 0.690410 0.118010
v -0.295588 0.678977 0.321095
v -0.420167 0.846883 0.323525
v -0.004655 0.933153 -0.420087
v 0.280573 1.131959 -0.435107
v 0.285195 0.910358 -0.356947
v -0.004655 0.933153 -0.420087
v -0.289881 1.131959 -0.435107
v -0.004655 1.142999 -0.472736
v -0.004655 0.933153 -0.420087
v -0.004655 1.142999 -0.472736
v 0.280573 1.131959 -0.435107
v -0.514673 1.098201 -0.267542
v -0.574039 0.864239 0.062504
v -0.612540 1.094368 0.024688
v -0.574039 0.864239 0.062504
v -0.420167 0.846883 0.323525
v -0.501397 1.118137 0.294503
v -0.574039 0.864239 0.062504
v -0.501397 1.118137 0.294503
v -0.612540 1.094368 0.024688
v -0.514673 1.098201 -0.267542
v -0.490334 1.379865 -0.297904
v -0.289881 1.131959 -0.435107
v -0.514673 1.098201 -0.267542
v -0.612540 1.094368 0.024688
v -0.490334 1.379865 -0.297904
v -0.289881 1.131959 -0.435107
v -0.235575 1.420089 -0.445058
v -0.004655 1.142999 -0.472736
v -0.289881 1.131959 -0.435107
v -0.490334 1.379865 -0.297904
v -0.235575 1.420089 -0.445058
v -0.295588 0.678977 0.321095
v -0.141958 0.579218 0.295806
v -0.004655 0.660545 0.501926
v -0.141958 0.579218 0.295806
v -0.004655 0.588448 0.368922
v -0.004655 0.660545 0.501926
v -0.004655 0.588448 0.368922
v 0.132650 0.579218 0.295806
v -0.004655 0.660545 0.501926
v -0.295588 0.678977 0.321095
v -0.004655 0.756061 0.591251
v -0.420167 0.846883 0.323525
v -0.295588 0.678977 0.321095
v -0.004655 0.660545 0.501926
v -0.004655 0.756061 0.591251
v -0.004655 0.660545 0.501926
v 0.132650 0.579218 0.295806
v 0.286279 0.678977 0.321095
v -0.004655 0.660545 0.501926
v 0.286279 0.678977 0.321095
v -0.004655 0.756061 0.591251
v 0.132650 0.579218 0.295806
v 0.203040 0.585886 0.222583
v 0.286279 0.678977 0.321095
v 0.203040 0.585886 0.222583
v 0.416303 0.690410 0.118010
v 0.286279 0.678977 0.321095
v 0.286279 0.678977 0.321095
v 0.410858 0.846883 0.323525
v -0.004655 0.756061 0.591251
v 0.286279 0.678977 0.321095
v 0.416303 0.690410 0.118010
v 0.410858 0.846883 0.323525
v 0.249909 0.707782 -0.169882
v 0.285195 0.910358 -0.356947
v 0.435354 0.879972 -0.229892
v 0.249909 0.707782 -0.169882
v 0.435354 0.879972 -0.229892
v 0.416303 0.690410 0.118010
v 0.416303 0.690410 0.118010
v 0.564729 0.864239 0.062504
v 0.410858 0.846883 0.323525
v 0.416303 0.690410 0.118010
v 0.435354 0.879972 -0.229892
v 0.564729 0.864239 0.062504
v 0.435354 0.879972 -0.229892
v 0.285195 0.910358 -0.356947
v 0.505363 1.098201 -0.267542
v 0.285195 0.910358 -0.356947
v 0.280573 1.131959 -0.435107
v 0.505363 1.098201 -0.267542
v 0.435354 0.879972 -0.229892
v 0.505363 1.098201 -0.267542
v 0.564729 0.864239 0.062504
v -0.612540 1.094368 0.024688
v -0.501397 1.118137 0.294503
v -0.492173 1.392390 0.258289
v -0.612540 1.094368 0.024688
v -0.569955 1.365367 -0.018885
v -0.490334 1.379865 -0.297904
v -0.612540 1.094368 0.024688
v -0.492173 1.392390 0.258289
v -0.569955 1.365367 -0.018885
v -0.004655 1.142999 -0.472736
v 0.226265 1.420089 -0.445058
v 0.280573 1.131959 -0.435107
v 0.280573 1.131959 -0.435107
v 0.481025 1.379865 -0.297904
v 0.505363 1.098201 -0.267542
v 0.280573 1.131959 -0.435107
v 0.226265 1.420089 -0.445058
v 0.481025 1.379865 -0.297904
v 0.505363 1.098201 -0.267542
v 0.603231 1.094368 0.024688
v 0.564729 0.864239 0.062504
v 0.505363 1.098201 -0.267542
v 0.481025 1.379865 -0.297904
v 0.603231 1.094368 0.024688
v 0.564729 0.864239 0.062504
v 0.492088 1.118137 0.294503
v 0.410858 0.846883 0.323525
v 0.564729 0.864239 0.062504
v 0.603231 1.094368 0.024688
v 0.492088 1.118137 0.294503
v -0.004655 1.142999 -0.472736
v -0.235575 1.420089 -0.445058
v -0.004655 1.437934 -0.455600
v -0.004655 1.142999 -0.472736
v -0.004655 1.437934 -0.455600
v 0.226265 1.420089 -0.445058
v -0.420167 0.846883 0.323525
v -0.004655 0.756061 0.591251
v -0.141278 0.864488 0.529731
v -0.420167 0.846883 0.323525
v -0.216213 1.032553 0.505405
v -0.501397 1.118137 0.294503
v -0.420167 0.846883 0.323525
v -0.141278 0.864488 0.529731
v -0.216213 1.032553 0.505405
v -0.490334 1.379865 -0.297904
v -0.569955 1.365367 -0.018885
v -0.466230 1.672828 -0.021845
v -0.569955 1.365367 -0.018885
v -0.492173 1.392390 0.258289
v -0.404868 1.686372 0.200912
v -0.569955 1.365367 -0.018885
v -0.404868 1.686372 0.200912
v -0.466230 1.672828 -0.021845
v -0.490334 1.379865 -0.297904
v -0.407541 1.662464 -0.281564
v -0.235575 1.420089 -0.445058
v -0.490334 1.379865 -0.297904
v -0.466230 1.672828 -0.021845
v -0.407541 1.662464 -0.281564
v -0.235575 1.420089 -0.445058
v -0.171776 1.678503 -0.419802
v -0.004655 1.437934 -0.455600
v -0.235575 1.420089 -0.445058
v -0.407541 1.662464 -0.281564
v -0.171776 1.678503 -0.419802
v -0.407541 1.662464 -0.281564
v -0.466230 1.672828 -0.021845
v -0.317248 1.944753 -0.164223
v -0.407541 1.662464 -0.281564
v -0.317248 1.944753 -0.164223
v -0.171776 1.678503 -0.419802
v -0.466230 1.672828 -0.021845
v -0.404868 1.686372 0.200912
v -0.316598 1.960570 0.059291
v -0.466230 1.672828 -0.021845
v -0.316598 1.960570 0.059291
v -0.317248 1.944753 -0.164223
v 0.410858 0.846883 0.323525
v 0.131969 0.864488 0.529731
v -0.004655 0.756061 0.591251
v 0.410858 0.846883 0.323525
v 0.492088 1.118137 0.294503
v 0.206904 1.032553 0.505405
v 0.410858 0.846883 0.323525
v 0.206904 1.032553 0.505405
v 0.131969 0.864488 0.529731
v 0.603231 1.094368 0.024688
v 0.481025 1.379865 -0.297904
v 0.560646 1.365367 -0.018885
v 0.603231 1.094368 0.024688
v 0.482863 1.392390 0.258289
v 0.492088 1.118137 0.294503
v 0.603231 1.094368 0.024688
v 0.560646 1.365367 -0.018885
v 0.482863 1.392390 0.258289
v 0.226265 1.420089 -0.445058
v 0.398232 1.662464 -0.281564
v 0.481025 1.379865 -0.297904
v 0.481025 1.379865 -0.297904
v 0.456920 1.672828 -0.021845
v 0.560646 1.365367 -0.018885
v 0.481025 1.379865 -0.297904
v 0.398232 1.662464 -0.281564
v 0.456920 1.672828 -0.021845
v 0.560646 1.365367 -0.018885
v 0.395560 1.686372 0.200912
v 0.482863 1.392390 0.258289
v 0.560646 1.365367 -0.018885
v 0.456920 1.672828 -0.021845
v 0.395560 1.686372 0.200912
v 0.226265 1.420089 -0.445058
v -0.004655 1.437934 -0.455600
v 0.162467 1.678503 -0.419802
v 0.226265 1.420089 -0.445058
v 0.162467 1.678503 -0.419802
v 0.398232 1.662464 -0.281564
v 0.398232 1.662464 -0.281564
v 0.307938 1.944753 -0.164223
v 0.456920 1.672828 -0.021845
v 0.398232 1.662464 -0.281564
v 0.162467 1.678503 -0.419802
v 0.307938 1.944753 -0.164223
v 0.456920 1.672828 -0.021845
v 0.307289 1.960570 0.059291
v 0.395560 1.686372 0.200912
v 0.456920 1.672828 -0.021845
v 0.307938 1.944753 -0.164223
v 0.307289 1.960570 0.059291
v -0.004655 1.437934 -0.455600
v -0.171776 1.678503 -0.419802
v -0.004655 1.599063 -0.410685
v -0.004655 1.437934 -0.455600
v -0.004655 1.599063 -0.410685
v 0.162467 1.678503 -0.419802
v 0.162467 1.678503 -0.419802
v 0.126978 1.909095 -0.271341
v 0.307938 1.944753 -0.164223
v 0.162467 1.678503 -0.419802
v -0.004655 1.599063 -0.410685
v 0.126978 1.909095 -0.271341
v 0.307938 1.944753 -0.164223
v 0.184645 2.003343 -0.080987
v 0.307289 1.960570 0.059291
v 0.307938 1.944753 -0.164223
v 0.126978 1.909095 -0.271341
v 0.184645 2.003343 -0.080987
v -0.171776 1.678503 -0.419802
v -0.317248 1.944753 -0.164223
v -0.136287 1.909095 -0.271341
v -0.171776 1.678503 -0.419802
v -0.136287 1.909095 -0.271341
v -0.004655 1.599063 -0.410685
v -0.004655 1.599063 -0.410685
v -0.004655 1.799695 -0.293175
v 0.126978 1.909095 -0.271341
v -0.004655 1.599063 -0.410685
v -0.136287 1.909095 -0.271341
v -0.004655 1.799695 -0.293175
v 0.126978 1.909095 -0.271341
v 0.069809 1.951869 0.023221
v 0.184645 2.003343 -0.080987
v 0.126978 1.909095 -0.271341
v -0.004655 1.799695 -0.293175
v 0.069809 1.951869 0.023221
v 0.184645 2.003343 -0.080987
v 0.156015 2.004728 0.124665
v 0.307289 1.960570 0.059291
v 0.184645 2.003343 -0.080987
v 0.069809 1.951869 0.023221
v 0.156015 2.004728 0.124665
v 0.156015 2.004728 0.124665
v 0.107396 1.925455 0.304270
v 0.307289 1.960570 0.059291
v 0.307289 1.960570 0.059291
v 0.107396 1.925455 0.304270
v 0.395560 1.686372 0.200912
v 0.156015 2.004728 0.124665
v 0.069809 1.951869 0.023221
v 0.107396 1.925455 0.304270
v 0.395560 1.686372 0.200912
v 0.149753 1.655115 0.425095
v 0.482863 1.392390 0.258289
v 0.395560 1.686372 0.200912
v 0.107396 1.925455 0.304270
v 0.149753 1.655115 0.425095
v 0.107396 1.925455 0.304270
v 0.069809 1.951869 0.023221
v -0.004655 1.803497 0.424296
v 0.107396 1.925455 0.304270
v -0.004655 1.803497 0.424296
v 0.149753 1.655115 0.425095
v 0.069809 1.951869 0.023221
v -0.004655 1.799695 -0.293175
v -0.004655 1.840064 0.056869
v 0.069809 1.951869 0.023221
v -0.004655 1.840064 0.056869
v -0.004655 1.803497 0.424296
v -0.004655 1.840064 0.056869
v -0.004655 1.799695 -0.293175
v -0.079118 1.951869 0.023221
v -0.004655 1.799695 -0.293175
v -0.136287 1.909095 -0.271341
v -0.079118 1.951869 0.023221
v -0.004655 1.840064 0.056869
v -0.079118 1.951869 0.023221
v -0.004655 1.803497 0.424296
v -0.136287 1.909095 -0.271341
v -0.317248 1.944753 -0.164223
v -0.193954 2.003343 -0.080987
v -0.136287 1.909095 -0.271341
v -0.193954 2.003343 -0.080987
v -0.079118 1.951869 0.023221
v -0.317248 1.944753 -0.164223
v -0.316598 1.960570 0.059291
v -0.193954 2.003343 -0.080987
v -0.193954 2.003343 -0.080987
v -0.165323 2.004728 0.124665
v -0.079118 1.951869 0.023221
v -0.193954 2.003343 -0.080987
v -0.316598 1.960570 0.059291
v -0.165323 2.004728 0.124665
v -0.165323 2.004728 0.124665
v -0.116705 1.925455 0.304270
v -0.079118 1.951869 0.023221
v -0.079118 1.951869 0.023221
v -0.116705 1.925455 0.304270
v -0.004655 1.803497 0.424296
v -0.165323 2.004728 0.124665
v -0.316598 1.960570 0.059291
v -0.116705 1.925455 0.304270
v -0.316598 1.960570 0.059291
v -0.404868 1.686372 0.200912
v -0.116705 1.925455 0.304270
v -0.116705 1.925455 0.304270
v -0.159063 1.655115 0.425095
v -0.004655 1.803497 0.424296
v -0.116705 1.925455 0.304270
v -0.404868 1.686372 0.200912
v -0.159063 1.655115 0.425095
v -0.404868 1.686372 0.200912
v -0.492173 1.392390 0.258289
v -0.159063 1.655115 0.425095
v -0.004655 1.803497 0.424296
v -0.004655 1.629400 0.532324
v 0.149753 1.655115 0.425095
v -0.004655 1.803497 0.424296
v -0.159063 1.655115 0.425095
v -0.004655 1.629400 0.532324
v -0.004655 1.629400 0.532324
v -0.004655 1.453385 0.598958
v 0.149753 1.655115 0.425095
v -0.004655 1.629400 0.532324
v -0.159063 1.655115 0.425095
v -0.004655 1.453385 0.598958
v -0.159063 1.655115 0.425095
v -0.492173 1.392390 0.258289
v -0.153362 1.347100 0.523328
v -0.159063 1.655115 0.425095
v -0.153362 1.347100 0.523328
v -0.004655 1.453385 0.598958
v -0.492173 1.392390 0.258289
v -0.501397 1.118137 0.294503
v -0.153362 1.347100 0.523328
v 0.149753 1.655115 0.425095
v 0.144053 1.347100 0.523328
v 0.482863 1.392390 0.258289
v 0.149753 1.655115 0.425095
v -0.004655 1.453385 0.598958
v 0.144053 1.347100 0.523328
v -0.004655 1.453385 0.598958
v -0.153362 1.347100 0.523328
v -0.004655 1.232192 0.642055
v -0.004655 1.453385 0.598958
v -0.004655 1.232192 0.642055
v 0.144053 1.347100 0.523328
v -0.153362 1.347100 0.523328
v -0.501397 1.118137 0.294503
v -0.120287 1.175575 0.563778
v -0.153362 1.347100 0.523328
v -0.120287 1.175575 0.563778
v -0.004655 1.232192 0.642055
v -0.501397 1.118137 0.294503
v -0.216213 1.032553 0.505405
v -0.120287 1.175575 0.563778
v 0.482863 1.392390 0.258289
v 0.144053 1.347100 0.523328
v 0.492088 1.118137 0.294503
v 0.144053 1.347100 0.523328
v -0.004655 1.232192 0.642055
v 0.110979 1.175575 0.563778
v 0.144053 1.347100 0.523328
v 0.110979 1.175575 0.563778
v 0.492088 1.118137 0.294503
v 0.492088 1.118137 0.294503
v 0.110979 1.175575 0.563778
v 0.206904 1.032553 0.505405
v -0.004655 1.232192 0.642055
v -0.120287 1.175575 0.563778
v -0.004655 1.212352 0.756316
v -0.004655 1.232192 0.642055
v -0.004655 1.212352 0.756316
v 0.110979 1.175575 0.563778
v -0.120287 1.175575 0.563778
v -0.216213 1.032553 0.505405
v -0.200839 1.109791 0.585813
v -0.120287 1.175575 0.563778
v -0.175315 1.134009 0.776901
v -0.004655 1.212352 0.756316
v -0.120287 1.175575 0.563778
v -0.200839 1.109791 0.585813
v -0.175315 1.134009 0.776901
v -0.200839 1.109791 0.585813
v -0.216213 1.032553 0.505405
v -0.234317 0.967095 0.620052
v -0.200839 1.109791 0.585813
v -0.234317 0.967095 0.620052
v -0.175315 1.134009 0.776901
v -0.216213 1.032553 0.505405
v -0.141278 0.864488 0.529731
v -0.234317 0.967095 0.620052
v 0.110979 1.175575 0.563778
v 0.191530 1.109791 0.585813
v 0.206904 1.032553 0.505405
v 0.110979 1.175575 0.563778
v -0.004655 1.212352 0.756316
v 0.166007 1.134009 0.776901
v 0.110979 1.175575 0.563778
v 0.166007 1.134009 0.776901
v 0.191530 1.109791 0.585813
v 0.191530 1.109791 0.585813
v 0.225007 0.967095 0.620052
v 0.206904 1.032553 0.505405
v 0.191530 1.109791 0.585813
v 0.166007 1.134009 0.776901
v 0.225007 0.967095 0.620052
v 0.206904 1.032553 0.505405
v 0.225007 0.967095 0.620052
v 0.131969 0.864488 0.529731
v -0.004655 1.212352 0.756316
v -0.175315 1.134009 0.776901
v -0.004655 1.110932 0.871394
v -0.004655 1.212352 0.756316
v -0.004655 1.110932 0.871394
v 0.166007 1.134009 0.776901
v 0.166007 1.134009 0.776901
v 0.202346 0.971974 0.807266
v 0.225007 0.967095 0.620052
v 0.166007 1.134009 0.776901
v -0.004655 1.110932 0.871394
v 0.202346 0.971974 0.807266
v -0.175315 1.134009 0.776901
v -0.234317 0.967095 0.620052
v -0.211654 0.971974 0.807266
v -0.175315 1.134009 0.776901
v -0.211654 0.971974 0.807266
v -0.004655 1.110932 0.871394
v -0.004655 1.110932 0.871394
v -0.004655 0.980875 0.909472
v 0.202346 0.971974 0.807266
v -0.004655 1.110932 0.871394
v -0.211654 0.971974 0.807266
v -0.004655 0.980875 0.909472
v -0.211654 0.971974 0.807266
v -0.234317 0.967095 0.620052
v -0.159260 0.837613 0.778251
v -0.211654 0.971974 0.807266
v -0.159260 0.837613 0.778251
v -0.004655 0.980875 0.909472
v -0.234317 0.967095 0.620052
v -0.141278 0.864488 0.529731
v -0.187520 0.828536 0.641655
v -0.234317 0.967095 0.620052
v -0.187520 0.828536 0.641655
v -0.159260 0.837613 0.778251
v -0.141278 0.864488 0.529731
v -0.004655 0.756061 0.591251
v -0.187520 0.828536 0.641655
v -0.187520 0.828536 0.641655
v -0.004655 0.761177 0.726234
v -0.159260 0.837613 0.778251
v -0.187520 0.828536 0.641655
v -0.004655 0.756061 0.591251
v -0.004655 0.761177 0.726234
v -0.004655 0.756061 0.591251
v 0.131969 0.864488 0.529731
v 0.178212 0.828536 0.641655
v 0.131969 0.864488 0.529731
v 0.225007 0.967095 0.620052
v 0.178212 0.828536 0.641655
v -0.004655 0.756061 0.591251
v 0.178212 0.828536 0.641655
v -0.004655 0.761177 0.726234
v 0.178212 0.828536 0.641655
v 0.225007 0.967095 0.620052
v 0.149951 0.837613 0.778251
v 0.202346 0.971974 0.807266
v -0.004655 0.980875 0.909472
v 0.149951 0.837613 0.778251
v 0.202346 0.971974 0.807266
v 0.149951 0.837613 0.778251
v 0.225007 0.967095 0.620052
v 0.178212 0.828536 0.641655
v 0.149951 0.837613 0.778251
v -0.004655 0.761177 0.726234
v -0.004655 0.761177 0.726234
v -0.004655 0.836375 0.852560
v -0.159260 0.837613 0.778251
v -0.004655 0.836375 0.852560
v 0.149951 0.837613 0.778251
v -0.004655 0.980875 0.909472
v -0.004655 0.836375 0.852560
v -0.004655 0.761177 0.726234
v 0.149951 0.837613 0.778251
v -0.004655 0.836375 0.852560
v -0.004655 0.980875 0.909472
v -0.159260 0.837613 0.778251
v 0.843915 -0.110840 -0.274205
v 0.717878 -0.110840 -0.521569
v 0.000000 -0.110841 -0.000000
v 0.717878 -0.110840 -0.521569
v 0.521569 -0.110840 -0.717878
v 0.000000 -0.110841 -0.000000
v 0.521569 -0.110840 -0.717878
v 0.274205 -0.110840 -0.843915
v 0.000000 -0.110841 -0.000000
v 0.274205 -0.110840 -0.843915
v 0.000000 -0.110840 -0.887345
v 0.000000 -0.110841 -0.000000
v 0.000000 -0.110840 -0.887345
v -0.274205 -0.110840 -0.843915
v 0.000000 -0.110841 -0.000000
v -0.274205 -0.110840 -0.843915
v -0.521569 -0.110840 -0.717878
v 0.000000 -0.110841 -0.000000
v -0.521569 -0.110840 -0.717878
v -0.717878 -0.110840 -0.521569
v 0.000000 -0.110841 -0.000000
v -0.717878 -0.110840 -0.521569
v -0.843915 -0.110840 -0.274205
v 0.000000 -0.110841 -0.000000
v -0.843915 -0.110840 -0.274205
v -0.887345 -0.110841 -0.000000
v 0.000000 -0.110841 -0.000000
v -0.887345 -0.110841 -0.000000
v -0.843915 -0.110841 0.274205
v 0.000000 -0.110841 -0.000000
v -0.843915 -0.110841 0.274205
v -0.717878 -0.110841 0.521568
v 0.000000 -0.110841 -0.000000
v -0.717878 -0.110841 0.521568
v -0.521568 -0.110841 0.717878
v 0.000000 -0.110841 -0.000000
v -0.521568 -0.110841 0.717878
v -0.274205 -0.110841 0.843915
v 0.000000 -0.110841 -0.000000
v -0.274205 -0.110841 0.843915
v 0.000000 -0.110841 0.887345
v 0.000000 -0.110841 -0.000000
v 0.000000 -0.110841 0.887345
v 0.274204 -0.110841 0.843915
v 0.000000 -0.110841 -0.000000
v 0.274204 -0.110841 0.843915
v 0.521568 -0.110841 0.717878
v 0.000000 -0.110841 -0.000000
v 0.521568 -0.110841 0.717878
v 0.717876 -0.110841 0.521568
v 0.000000 -0.110841 -0.000000
v 0.717876 -0.110841 0.521568
v 0.843915 -0.110841 0.274205
v 0.000000 -0.110841 -0.000000
v 0.843915 -0.110841 0.274205
v 0.887345 -0.110841 -0.000000
v 0.000000 -0.110841 -0.000000
v 0.887345 -0.110841 -0.000000
v 0.843915 -0.110840 -0.274205
v 0.000000 -0.110841 -0.000000
vt 0.697128 0.008541
vt 0.698826 0.078504
vt 0.671838 0.008541
vt 0.675116 0.078504
vt 0.655560 0.078504
vt 0.654813 0.008541
vt 0.633639 0.082147
vt 0.633842 0.008541
vt 0.605264 0.084567
vt 0.612186 0.008541
vt 0.595116 0.008541
vt 0.587248 0.078504
vt 0.406046 0.909546
vt 0.272721 0.913418
vt 0.376159 0.831381
vt 0.205725 0.830239
vt 0.197766 0.690116
vt 0.188676 0.661606
vt 0.118606 0.909914
vt 0.213781 0.974985
vt 0.086572 0.821395
vt 0.019608 0.903808
vt 0.013503 0.843248
vt 0.039181 0.778425
vt 0.106262 0.651879
vt 0.171568 0.665729
vt 0.177043 0.614274
vt 0.147059 0.614455
vt 0.154270 0.656444
vt 0.132870 0.974006
vt 0.118721 0.902453
vt 0.007050 0.948137
vt 0.251674 0.888831
vt 0.331908 0.960420
vt 0.356138 0.922274
vt 0.397560 0.850961
vt 0.226541 0.808676
vt 0.303948 0.772229
vt 0.196354 0.681743
vt 0.123532 0.821350
vt 0.172871 0.692528
vt 0.164832 0.620983
vt 0.109417 0.656552
vt 0.135308 0.607762
vt 0.097266 0.630345
vt 0.015042 0.836226
vt 0.171568 0.698596
vt 0.106262 0.684745
vt 0.177043 0.647140
vt 0.361865 0.043912
vt 0.367489 0.149707
vt 0.325800 0.065886
vt 0.266381 0.004736
vt 0.299747 0.124224
vt 0.280935 0.062354
vt 0.212555 0.053038
vt 0.218036 0.098248
vt 0.188565 0.197453
vt 0.246709 0.156737
vt 0.174124 0.105805
vt 0.152951 0.021448
vt 0.216905 0.232420
vt 0.162121 0.133666
vt 0.113727 0.036287
vt 0.225638 0.024954
vt 0.184742 0.081103
vt 0.133885 0.225775
vt 0.042608 0.129541
vt 0.293291 0.058724
vt 0.239593 0.087923
vt 0.217081 0.326229
vt 0.133160 0.356442
vt 0.028164 0.256916
vt 0.030417 0.330391
vt 0.255803 0.117574
vt 0.302622 0.111559
vt 0.234557 0.189540
vt 0.237922 0.226135
vt 0.335181 0.154997
vt 0.219579 0.353024
vt 0.050953 0.436427
vt 0.152411 0.424763
vt 0.162243 0.558124
vt 0.335373 0.342484
vt 0.372989 0.147830
vt 0.215233 0.453942
vt 0.216985 0.518807
vt 0.354056 0.312312
vt 0.233523 0.414899
vt 0.237653 0.515832
vt 0.375823 0.472986
vt 0.398044 0.389497
vt 0.407805 0.184895
vt 0.418378 0.073900
vt 0.293392 0.555272
vt 0.232554 0.619848
vt 0.454336 0.003668
vt 0.554454 0.003668
vt 0.459662 0.075969
vt 0.529259 0.154854
vt 0.558569 0.102618
vt 0.456024 0.151996
vt 0.501202 0.191741
vt 0.456024 0.236938
vt 0.522152 0.208579
vt 0.492378 0.229561
vt 0.589141 0.139992
vt 0.679457 0.124882
vt 0.545151 0.183437
vt 0.622752 0.168300
vt 0.513457 0.262645
vt 0.554438 0.228290
vt 0.632471 0.224182
vt 0.738821 0.201978
vt 0.768773 0.088289
vt 0.484328 0.276042
vt 0.456024 0.321005
vt 0.518495 0.326586
vt 0.547193 0.275181
vt 0.573496 0.260218
vt 0.577499 0.309135
vt 0.604721 0.271429
vt 0.612595 0.330073
vt 0.643265 0.330389
vt 0.617775 0.375705
vt 0.466777 0.370242
vt 0.672642 0.391703
vt 0.708781 0.278480
vt 0.729201 0.331302
vt 0.796634 0.272164
vt 0.800579 0.191534
vt 0.730343 0.397306
vt 0.802629 0.342541
vt 0.895269 0.240373
vt 0.844462 0.122415
vt 0.818475 0.011143
vt 0.908181 0.068228
vt 0.914994 0.169182
vt 0.850535 0.400527
vt 0.898264 0.341939
vt 0.986657 0.250120
vt 0.986657 0.104214
vt 0.986657 0.057196
vt 0.986657 0.176955
vt 0.986657 0.383276
vt 0.986657 0.344268
vt 0.719966 0.469999
vt 0.661892 0.425086
vt 0.861436 0.534436
vt 0.995964 0.561365
vt 0.890453 0.624691
vt 0.844414 0.618207
vt 0.986657 0.630808
vt 0.747424 0.580406
vt 0.838658 0.668548
vt 0.950985 0.688348
vt 0.620147 0.487743
vt 0.614945 0.432287
vt 0.608079 0.546892
vt 0.999444 0.707355
vt 0.742235 0.658440
vt 0.644066 0.648947
vt 0.817825 0.764728
vt 0.905235 0.801889
vt 0.499923 0.453467
vt 0.533001 0.424842
vt 0.424914 0.478527
vt 0.649633 0.747359
vt 0.732481 0.756586
vt 0.967380 0.851767
vt 0.490048 0.528318
vt 0.498429 0.619550
vt 0.709951 0.835407
vt 0.652972 0.851130
vt 0.776844 0.854659
vt 0.809287 0.904390
vt 0.697278 0.915112
vt 0.667298 0.920766
vt 0.840593 0.964423
vt 0.731301 0.942415
vt 0.711332 0.935993
vt 0.755879 0.975174
vt 0.684526 0.958186
vt 0.661685 0.936022
vt 0.622366 0.933195
vt 0.504282 0.871680
vt 0.582090 0.946165
vt 0.676618 0.976386
vt 0.437552 0.874366
vt 0.424841 0.815008
vt 0.472744 0.756723
vt 0.404706 0.727228
vt 0.451133 0.690053
vt 0.364099 0.703705
vt 0.447346 0.646927
vt 0.386266 0.644443
vt 0.436850 0.600677
vt 0.323688 0.653234
vt 0.384543 0.605210
vt 0.312090 0.602073
vt 0.381707 0.557492
vt 0.422185 0.542086
vt 0.369254 0.497354
vt 0.326937 0.559698
vt 0.552582 0.022847
vt 0.552582 0.726073
g kimoridoll1_kimoridoll1_kimoridoll.png
usemtl kimoridoll.png
s off
f 1/1 2/2 3/3
f 4/2 5/4 6/3
f 7/4 8/5 9/3
f 10/3 11/5 12/6
f 13/5 14/7 15/6
f 16/6 17/7 18/8
f 19/7 20/9 21/8
f 22/8 23/9 24/10
f 25/10 26/9 27/11
f 28/11 29/9 30/12
f 31/13 32/14 33/15
f 34/15 35/14 36/16
f 37/16 38/17 39/15
f 40/15 41/17 42/18
f 43/16 44/14 45/19
f 46/14 47/20 48/19
f 49/16 50/21 51/17
f 52/16 53/19 54/21
f 55/19 56/22 57/21
f 58/22 59/23 60/21
f 61/23 62/24 63/21
f 64/24 65/25 66/21
f 67/21 68/26 69/17
f 70/21 71/25 72/26
f 73/26 74/25 75/27
f 76/25 77/28 78/27
f 79/27 80/28 81/29
f 82/20 83/30 84/31
f 85/30 86/32 87/31
f 88/31 89/33 90/20
f 91/20 92/33 93/34
f 94/34 95/33 96/35
f 97/35 98/33 99/36
f 100/33 101/31 102/37
f 103/33 104/37 105/36
f 106/36 107/37 108/38
f 109/38 110/37 111/39
f 112/31 113/32 114/40
f 115/31 116/40 117/37
f 118/37 119/41 120/39
f 121/37 122/40 123/41
f 124/39 125/41 126/42
f 127/41 128/40 129/43
f 130/41 131/43 132/42
f 133/42 134/43 135/44
f 136/44 137/43 138/45
f 139/45 140/43 141/46
f 142/46 143/40 144/32
f 145/40 146/46 147/43
f 148/13 149/15 150/14
f 151/14 152/15 153/16
f 154/16 155/19 156/14
f 157/14 158/19 159/20
f 160/16 161/15 162/17
f 163/15 164/18 165/17
f 166/16 167/21 168/19
f 169/16 170/17 171/21
f 172/17 173/47 174/21
f 175/19 176/21 177/22
f 178/22 179/21 180/23
f 181/23 182/21 183/24
f 184/24 185/21 186/48
f 187/21 188/47 189/48
f 190/47 191/49 192/48
f 193/48 194/49 195/28
f 196/28 197/49 198/29
f 199/20 200/31 201/30
f 202/30 203/31 204/32
f 205/32 206/31 207/40
f 208/32 209/40 210/46
f 211/31 212/20 213/33
f 214/20 215/34 216/33
f 217/34 218/35 219/33
f 220/35 221/36 222/33
f 223/33 224/37 225/31
f 226/31 227/37 228/40
f 229/33 230/36 231/37
f 232/36 233/38 234/37
f 235/38 236/39 237/37
f 238/37 239/41 240/40
f 241/37 242/39 243/41
f 244/39 245/42 246/41
f 247/41 248/43 249/40
f 250/40 251/43 252/46
f 253/41 254/42 255/43
f 256/42 257/44 258/43
f 259/43 260/45 261/46
f 262/45 263/43 264/44
f 265/12 266/9 267/11
f 268/11 269/9 270/10
f 271/10 272/9 273/8
f 274/9 275/7 276/8
f 277/8 278/7 279/6
f 280/7 281/5 282/6
f 283/6 284/5 285/3
f 286/5 287/4 288/3
f 289/4 290/2 291/3
f 292/3 293/2 294/1
f 295/50 296/51 297/52
f 298/50 299/52 300/53
f 301/52 302/51 303/54
f 304/52 305/55 306/53
f 307/52 308/54 309/55
f 310/55 311/56 312/53
f 313/55 314/54 315/57
f 316/55 317/57 318/56
f 319/54 320/51 321/58
f 322/54 323/59 324/57
f 325/54 326/58 327/59
f 328/59 329/60 330/57
f 331/57 332/60 333/56
f 334/59 335/58 336/60
f 337/56 338/61 339/53
f 340/56 341/60 342/61
f 343/58 344/51 345/62
f 346/58 347/63 348/60
f 349/58 350/62 351/63
f 352/60 353/64 354/61
f 355/60 356/63 357/64
f 358/61 359/65 360/53
f 361/61 362/64 363/66
f 364/61 365/66 366/65
f 367/63 368/62 369/67
f 370/63 371/68 372/64
f 373/63 374/67 375/68
f 376/64 377/63 378/66
f 379/64 380/68 381/63
f 382/65 383/69 384/53
f 385/65 386/66 387/70
f 388/65 389/70 390/69
f 391/62 392/51 393/71
f 394/62 395/72 396/67
f 397/62 398/71 399/72
f 400/68 401/67 402/73
f 403/67 404/72 405/74
f 406/67 407/74 408/73
f 409/73 410/67 411/68
f 412/68 413/67 414/63
f 415/73 416/74 417/67
f 418/66 419/75 420/70
f 421/70 422/76 423/69
f 424/70 425/75 426/76
f 427/75 428/66 429/77
f 430/66 431/63 432/77
f 433/75 434/77 435/76
f 436/63 437/67 438/78
f 439/63 440/78 441/77
f 442/77 443/79 444/76
f 445/77 446/78 447/79
f 448/76 449/52 450/69
f 451/69 452/52 453/53
f 454/76 455/79 456/52
f 457/52 458/50 459/53
f 460/50 461/52 462/79
f 463/67 464/74 465/72
f 466/67 467/72 468/78
f 469/78 470/80 471/79
f 472/78 473/72 474/80
f 475/74 476/72 477/81
f 478/74 479/81 480/72
f 481/72 482/82 483/80
f 484/72 485/81 486/82
f 487/72 488/71 489/82
f 490/72 491/82 492/81
f 493/81 494/83 495/82
f 496/81 497/82 498/83
f 499/80 500/84 501/79
f 502/79 503/84 504/85
f 505/80 506/82 507/86
f 508/80 509/86 510/84
f 511/82 512/83 513/87
f 514/82 515/87 516/86
f 517/71 518/51 519/88
f 520/51 521/85 522/88
f 523/71 524/89 525/82
f 526/71 527/88 528/89
f 529/82 530/90 531/83
f 532/82 533/89 534/90
f 535/89 536/88 537/91
f 538/89 539/91 540/90
f 541/86 542/91 543/84
f 544/91 545/88 546/92
f 547/84 548/93 549/85
f 550/92 551/84 552/91
f 553/92 554/88 555/93
f 556/88 557/85 558/93
f 559/92 560/93 561/84
f 562/93 563/94 564/85
f 565/94 566/93 567/85
f 568/91 569/95 570/90
f 571/86 572/87 573/95
f 574/86 575/95 576/91
f 577/95 578/96 579/90
f 580/96 581/83 582/90
f 583/96 584/95 585/87
f 586/87 587/83 588/96
f 589/97 590/98 591/99
f 592/97 593/99 594/98
f 595/98 596/99 597/100
f 598/98 599/100 600/101
f 601/99 602/98 603/100
f 604/98 605/101 606/100
f 607/99 608/102 609/100
f 610/99 611/100 612/102
f 613/102 614/103 615/100
f 616/102 617/100 618/103
f 619/102 620/104 621/103
f 622/102 623/103 624/104
f 625/103 626/105 627/100
f 628/103 629/104 630/106
f 631/103 632/106 633/105
f 634/103 635/100 636/105
f 637/103 638/106 639/104
f 640/103 641/105 642/106
f 643/100 644/107 645/101
f 646/101 647/107 648/108
f 649/100 650/105 651/109
f 652/100 653/109 654/107
f 655/107 656/110 657/108
f 658/107 659/109 660/110
f 661/106 662/111 663/105
f 664/105 665/112 666/109
f 667/105 668/111 669/112
f 670/109 671/113 672/110
f 673/109 674/112 675/113
f 676/110 677/114 678/108
f 679/110 680/113 681/114
f 682/108 683/114 684/115
f 685/106 686/104 687/116
f 688/106 689/116 690/111
f 691/100 692/101 693/107
f 694/101 695/108 696/107
f 697/100 698/109 699/105
f 700/100 701/107 702/109
f 703/107 704/108 705/110
f 706/107 707/110 708/109
f 709/106 710/105 711/111
f 712/105 713/109 714/112
f 715/105 716/112 717/111
f 718/109 719/110 720/113
f 721/109 722/113 723/112
f 724/110 725/108 726/114
f 727/110 728/114 729/113
f 730/108 731/115 732/114
f 733/106 734/116 735/104
f 736/106 737/111 738/116
f 739/104 740/117 741/116
f 742/104 743/116 744/117
f 745/116 746/111 747/118
f 748/116 749/118 750/117
f 751/111 752/112 753/119
f 754/111 755/119 756/118
f 757/112 758/113 759/120
f 760/112 761/120 762/119
f 763/119 764/121 765/118
f 766/119 767/120 768/121
f 769/120 770/113 771/122
f 772/120 773/122 774/121
f 775/121 776/123 777/118
f 778/121 779/122 780/123
f 781/122 782/113 783/124
f 784/122 785/124 786/123
f 787/123 788/125 789/118
f 790/123 791/124 792/125
f 793/125 794/126 795/118
f 796/118 797/126 798/117
f 799/117 800/118 801/116
f 802/116 803/118 804/111
f 805/117 806/126 807/118
f 808/126 809/125 810/118
f 811/125 812/124 813/127
f 814/113 815/114 816/128
f 817/113 818/128 819/124
f 820/124 821/129 822/127
f 823/124 824/128 825/129
f 826/128 827/114 828/130
f 829/128 830/130 831/129
f 832/114 833/115 834/131
f 835/114 836/131 837/130
f 838/127 839/129 840/132
f 841/129 842/130 843/133
f 844/129 845/133 846/132
f 847/130 848/131 849/134
f 850/130 851/134 852/133
f 853/131 854/115 855/135
f 856/115 857/136 858/135
f 859/136 860/137 861/135
f 862/135 863/138 864/131
f 865/131 866/138 867/134
f 868/135 869/137 870/138
f 871/133 872/139 873/132
f 874/133 875/134 876/140
f 877/133 878/140 879/139
f 880/134 881/138 882/141
f 883/134 884/141 885/140
f 886/138 887/137 888/142
f 889/137 890/143 891/142
f 892/143 893/137 894/142
f 895/138 896/144 897/141
f 898/138 899/142 900/144
f 901/144 902/138 903/141
f 904/142 905/137 906/138
f 907/142 908/138 909/144
f 910/140 911/145 912/139
f 913/140 914/141 915/146
f 916/140 917/146 918/145
f 919/146 920/141 921/140
f 922/146 923/140 924/145
f 925/141 926/138 927/134
f 928/141 929/134 930/140
f 931/139 932/147 933/132
f 934/132 935/147 936/148
f 937/139 938/145 939/149
f 940/139 941/149 942/147
f 943/138 944/137 945/135
f 946/137 947/136 948/135
f 949/136 950/115 951/135
f 952/135 953/131 954/138
f 955/138 956/131 957/134
f 958/135 959/115 960/131
f 961/115 962/114 963/131
f 964/131 965/130 966/134
f 967/131 968/114 969/130
f 970/134 971/133 972/140
f 973/134 974/130 975/133
f 976/140 977/139 978/145
f 979/140 980/133 981/139
f 982/130 983/114 984/128
f 985/114 986/113 987/128
f 988/130 989/129 990/133
f 991/130 992/128 993/129
f 994/128 995/113 996/124
f 997/128 998/124 999/129
f 1000/133 1001/132 1002/139
f 1003/133 1004/129 1005/132
f 1006/129 1007/124 1008/127
f 1009/129 1010/127 1011/132
f 1012/127 1013/124 1014/125
f 1015/145 1016/150 1017/149
f 1018/145 1019/139 1020/149
f 1021/145 1022/149 1023/150
f 1024/139 1025/132 1026/147
f 1027/139 1028/147 1029/149
f 1030/132 1031/148 1032/147
f 1033/124 1034/113 1035/122
f 1036/124 1037/123 1038/125
f 1039/124 1040/122 1041/123
f 1042/125 1043/123 1044/118
f 1045/123 1046/122 1047/121
f 1048/123 1049/121 1050/118
f 1051/122 1052/113 1053/120
f 1054/122 1055/120 1056/121
f 1057/121 1058/119 1059/118
f 1060/121 1061/120 1062/119
f 1063/120 1064/113 1065/112
f 1066/120 1067/112 1068/119
f 1069/119 1070/111 1071/118
f 1072/111 1073/119 1074/112
f 1075/149 1076/151 1077/150
f 1078/149 1079/147 1080/152
f 1081/149 1082/152 1083/151
f 1084/150 1085/151 1086/149
f 1087/150 1088/151 1089/153
f 1090/150 1091/153 1092/151
f 1093/152 1094/147 1095/154
f 1096/152 1097/155 1098/151
f 1099/152 1100/154 1101/155
f 1102/151 1103/156 1104/153
f 1105/151 1106/155 1107/156
f 1108/147 1109/148 1110/157
f 1111/148 1112/158 1113/157
f 1114/147 1115/159 1116/154
f 1117/147 1118/157 1119/159
f 1120/153 1121/156 1122/151
f 1123/153 1124/156 1125/160
f 1126/153 1127/160 1128/156
f 1129/155 1130/154 1131/161
f 1132/154 1133/159 1134/162
f 1135/154 1136/162 1137/161
f 1138/155 1139/163 1140/156
f 1141/155 1142/161 1143/163
f 1144/156 1145/164 1146/160
f 1147/156 1148/163 1149/164
f 1150/157 1151/158 1152/165
f 1153/158 1154/166 1155/165
f 1156/166 1157/158 1158/165
f 1159/157 1160/167 1161/159
f 1162/157 1163/165 1164/167
f 1165/165 1166/158 1167/157
f 1168/165 1169/157 1170/167
f 1171/158 1172/148 1173/157
f 1174/148 1175/147 1176/157
f 1177/157 1178/159 1179/167
f 1180/157 1181/147 1182/159
f 1183/149 1184/151 1185/152
f 1186/149 1187/152 1188/147
f 1189/147 1190/154 1191/159
f 1192/147 1193/152 1194/154
f 1195/152 1196/151 1197/155
f 1198/151 1199/156 1200/155
f 1201/152 1202/155 1203/154
f 1204/161 1205/162 1206/168
f 1207/161 1208/169 1209/163
f 1210/161 1211/168 1212/169
f 1213/160 1214/164 1215/156
f 1216/156 1217/163 1218/155
f 1219/156 1220/164 1221/163
f 1222/155 1223/161 1224/154
f 1225/155 1226/163 1227/161
f 1228/154 1229/162 1230/159
f 1231/154 1232/161 1233/162
f 1234/160 1235/164 1236/170
f 1237/160 1238/170 1239/164
f 1240/159 1241/167 1242/171
f 1243/159 1244/172 1245/162
f 1246/159 1247/171 1248/172
f 1249/163 1250/169 1251/173
f 1252/169 1253/168 1254/174
f 1255/169 1256/174 1257/173
f 1258/163 1259/175 1260/164
f 1261/163 1262/173 1263/175
f 1264/164 1265/176 1266/170
f 1267/164 1268/175 1269/176
f 1270/175 1271/173 1272/177
f 1273/175 1274/177 1275/176
f 1276/173 1277/174 1278/178
f 1279/173 1280/178 1281/177
f 1282/159 1283/171 1284/167
f 1285/159 1286/162 1287/172
f 1288/159 1289/172 1290/171
f 1291/161 1292/163 1293/169
f 1294/161 1295/168 1296/162
f 1297/161 1298/169 1299/168
f 1300/164 1301/175 1302/163
f 1303/163 1304/173 1305/169
f 1306/163 1307/175 1308/173
f 1309/169 1310/174 1311/168
f 1312/169 1313/173 1314/174
f 1315/164 1316/170 1317/176
f 1318/164 1319/176 1320/175
f 1321/175 1322/177 1323/173
f 1324/175 1325/176 1326/177
f 1327/173 1328/178 1329/174
f 1330/173 1331/177 1332/178
f 1333/170 1334/176 1335/179
f 1336/170 1337/179 1338/176
f 1339/176 1340/180 1341/177
f 1342/176 1343/179 1344/180
f 1345/177 1346/181 1347/178
f 1348/177 1349/180 1350/181
f 1351/176 1352/177 1353/180
f 1354/176 1355/180 1356/179
f 1357/179 1358/182 1359/180
f 1360/179 1361/180 1362/182
f 1363/180 1364/183 1365/181
f 1366/180 1367/182 1368/183
f 1369/181 1370/184 1371/178
f 1372/181 1373/183 1374/184
f 1375/184 1376/185 1377/178
f 1378/178 1379/185 1380/174
f 1381/184 1382/183 1383/185
f 1384/174 1385/186 1386/168
f 1387/174 1388/185 1389/186
f 1390/185 1391/183 1392/187
f 1393/185 1394/187 1395/186
f 1396/183 1397/182 1398/188
f 1399/183 1400/188 1401/187
f 1402/188 1403/182 1404/183
f 1405/182 1406/180 1407/183
f 1408/188 1409/183 1410/187
f 1411/180 1412/177 1413/181
f 1414/180 1415/181 1416/183
f 1417/177 1418/178 1419/181
f 1420/181 1421/184 1422/183
f 1423/181 1424/178 1425/184
f 1426/184 1427/185 1428/183
f 1429/183 1430/185 1431/187
f 1432/184 1433/178 1434/185
f 1435/178 1436/174 1437/185
f 1438/185 1439/186 1440/187
f 1441/185 1442/174 1443/186
f 1444/174 1445/168 1446/186
f 1447/187 1448/189 1449/186
f 1450/187 1451/186 1452/189
f 1453/189 1454/190 1455/186
f 1456/189 1457/186 1458/190
f 1459/186 1460/168 1461/191
f 1462/186 1463/191 1464/190
f 1465/168 1466/162 1467/191
f 1468/186 1469/191 1470/168
f 1471/186 1472/190 1473/191
f 1474/190 1475/191 1476/192
f 1477/190 1478/192 1479/191
f 1480/191 1481/162 1482/193
f 1483/191 1484/193 1485/192
f 1486/162 1487/172 1488/193
f 1489/168 1490/191 1491/162
f 1492/191 1493/192 1494/193
f 1495/191 1496/193 1497/162
f 1498/162 1499/193 1500/172
f 1501/192 1502/193 1503/194
f 1504/192 1505/194 1506/193
f 1507/193 1508/172 1509/195
f 1510/193 1511/196 1512/194
f 1513/193 1514/195 1515/196
f 1516/195 1517/172 1518/197
f 1519/195 1520/197 1521/196
f 1522/172 1523/171 1524/197
f 1525/193 1526/195 1527/172
f 1528/193 1529/194 1530/196
f 1531/193 1532/196 1533/195
f 1534/195 1535/197 1536/172
f 1537/195 1538/196 1539/197
f 1540/172 1541/197 1542/171
f 1543/194 1544/196 1545/198
f 1546/194 1547/198 1548/196
f 1549/196 1550/199 1551/197
f 1552/196 1553/198 1554/199
f 1555/196 1556/197 1557/199
f 1558/196 1559/199 1560/198
f 1561/198 1562/200 1563/199
f 1564/198 1565/199 1566/200
f 1567/199 1568/197 1569/201
f 1570/199 1571/201 1572/200
f 1573/197 1574/171 1575/202
f 1576/197 1577/202 1578/201
f 1579/171 1580/167 1581/202
f 1582/202 1583/203 1584/201
f 1585/202 1586/167 1587/203
f 1588/167 1589/171 1590/202
f 1591/171 1592/197 1593/202
f 1594/167 1595/202 1596/203
f 1597/202 1598/197 1599/201
f 1600/199 1601/200 1602/201
f 1603/199 1604/201 1605/197
f 1606/202 1607/201 1608/203
f 1609/203 1610/204 1611/201
f 1612/204 1613/201 1614/200
f 1615/204 1616/203 1617/201
f 1618/204 1619/200 1620/201
g kimoridoll1_kimoridoll1_shadow1.png.062
usemtl shadow1.png.062
f 1621/205 1622/205 1623/206
f 1624/205 1625/205 1626/206
f 1627/205 1628/205 1629/206
f 1630/205 1631/205 1632/206
f 1633/205 1634/205 1635/206
f 1636/205 1637/205 1638/206
f 1639/205 1640/205 1641/206
f 1642/205 1643/205 1644/206
f 1645/205 1646/205 1647/206
f 1648/205 1649/205 1650/206
f 1651/205 1652/205 1653/206
f 1654/205 1655/205 1656/206
f 1657/205 1658/205 1659/206
f 1660/205 1661/205 1662/206
f 1663/205 1664/205 1665/206
f 1666/205 1667/205 1668/206
f 1669/205 1670/205 1671/206
f 1672/205 1673/205 1674/206
f 1675/205 1676/205 1677/206
f 1678/205 1679/205 1680/206
