# Blender v2.72 (sub 0) OBJ File: 'ORAS Map Lighting.blend'
# www.blender.org
mtllib symbolc.mtl
o pCube6
v -1.665379 0.333076 -0.499614
v 1.665379 0.333076 -0.499614
v -1.665379 2.331531 -0.499613
v -1.665379 2.331531 -0.499613
v 1.665379 0.333076 -0.499614
v 1.665379 2.331531 -0.499613
v -1.665379 2.331531 -0.499613
v 1.665379 2.331531 -0.499613
v -1.665379 2.331531 -0.666151
v -1.665379 2.331531 -0.666151
v 1.665379 2.331531 -0.499613
v 1.665379 2.331531 -0.666151
v -1.665379 0.333076 -0.499614
v -1.665379 2.331531 -0.499613
v -1.665379 0.333076 -0.666152
v -1.665379 0.333076 -0.666152
v -1.665379 2.331531 -0.499613
v -1.665379 2.331531 -0.666151
v 1.665379 2.331531 -0.499613
v 1.665379 0.333076 -0.499614
v 1.665379 2.331531 -0.666151
v 1.665379 2.331531 -0.666151
v 1.665379 0.333076 -0.499614
v 1.665379 0.333076 -0.666152
vt 0.007947 0.010596
vt 0.742053 0.010596
vt 0.007947 0.989404
vt 0.741661 0.989404
vt 0.742053 0.989404
g pCube6_pCube6_symbolc.png
usemtl symbolc.png
s off
f 1/1 2/2 3/3
f 4/3 5/2 6/4
f 7/3 8/5 9/3
f 10/3 11/5 12/5
f 13/1 14/3 15/1
f 16/1 17/3 18/3
f 19/5 20/2 21/5
f 22/5 23/2 24/2
