# Blender v2.72 (sub 0) OBJ File: 'ORAS Map Lighting.blend'
# www.blender.org
mtllib terebi.mtl
o tv1.002
v -0.000631 1.676033 0.097112
v -0.000631 2.537201 0.097112
v -1.615137 1.676033 0.097111
v -1.615137 1.676033 0.097111
v -0.000631 2.537201 0.097112
v -1.615127 2.537201 0.097111
v -0.000631 1.676033 0.097112
v 1.582780 1.676033 0.097110
v -0.000631 2.537201 0.097112
v -0.000631 2.537201 0.097112
v 1.582780 1.676033 0.097110
v 1.582770 2.537201 0.097112
v -1.615146 0.849706 0.097111
v -0.000631 0.849702 0.097111
v -1.615137 1.676033 0.097111
v -1.615137 1.676033 0.097111
v -0.000631 0.849702 0.097111
v -0.000631 1.676033 0.097112
v 1.582790 0.849705 0.097109
v 1.582780 1.676033 0.097110
v -0.000631 0.849702 0.097111
v -0.000631 0.849702 0.097111
v 1.582780 1.676033 0.097110
v -0.000631 1.676033 0.097112
vt 0.245399 0.847497
vt 0.245399 0.996019
vt 0.001162 0.847244
vt 0.001162 0.996018
vt 0.489636 0.847244
vt 0.489636 0.996019
vt 0.001162 0.684766
vt 0.245399 0.684766
vt 0.245399 0.847371
vt 0.489636 0.684766
g tv1.002_tv1.002_terebi0.png
usemtl terebi0.png
s off
f 1/1 2/2 3/3
f 4/3 5/2 6/4
f 7/1 8/5 9/2
f 10/2 11/5 12/6
f 13/7 14/8 15/3
f 16/3 17/8 18/9
f 19/10 20/5 21/8
f 22/8 23/5 24/9
o terebi
v -0.000631 0.412711 0.121386
v 0.424942 0.615575 0.121386
v 0.243918 0.728539 0.121387
v -0.000631 0.412711 0.121386
v 0.540530 0.412711 0.121386
v 0.424942 0.615575 0.121386
v -0.000631 0.412711 0.121386
v 0.243918 0.728539 0.121387
v -0.000631 0.760413 0.121388
v -0.000631 0.412711 0.121386
v -0.000631 0.760413 0.121388
v -0.245180 0.728539 0.121387
v -0.000631 0.412711 0.121386
v -0.245180 0.728539 0.121387
v -0.426204 0.615575 0.121386
v -0.000631 0.412711 0.121386
v -0.426204 0.615575 0.121386
v -0.541792 0.412711 0.121386
v -0.000631 2.682863 0.097111
v -1.615127 2.537201 0.097111
v -0.000631 2.537201 0.097112
v -0.000631 2.682863 0.097111
v -1.857898 2.682863 0.097111
v -1.615127 2.537201 0.097111
v -0.000631 2.682863 0.097111
v -0.000631 2.537201 0.097112
v 1.582770 2.537201 0.097112
v -0.000631 2.682863 0.097111
v 1.582770 2.537201 0.097112
v 1.825541 2.682863 0.097111
v 1.825541 1.676033 0.097110
v 1.825541 2.682863 0.097111
v 1.582770 2.537201 0.097112
v 1.825541 1.676033 0.097110
v 1.582770 2.537201 0.097112
v 1.582780 1.676033 0.097110
v 1.825541 1.676033 0.097110
v 1.582780 1.676033 0.097110
v 1.582790 0.849705 0.097109
v 1.825541 1.676033 0.097110
v 1.582790 0.849705 0.097109
v 1.825541 0.691180 0.097109
v -1.857898 1.676033 0.097110
v -1.615146 0.849706 0.097111
v -1.615137 1.676033 0.097111
v -1.857898 1.676033 0.097110
v -1.857898 0.691180 0.097109
v -1.615146 0.849706 0.097111
v -1.857898 1.676033 0.097110
v -1.615137 1.676033 0.097111
v -1.615127 2.537201 0.097111
v -1.857898 1.676033 0.097110
v -1.615127 2.537201 0.097111
v -1.857898 2.682863 0.097111
v -0.000631 0.691180 0.097109
v -1.615146 0.849706 0.097111
v -1.857898 0.691180 0.097109
v -0.000631 0.691180 0.097109
v -0.000631 0.849702 0.097111
v -1.615146 0.849706 0.097111
v -0.000631 0.691180 0.097109
v 1.582790 0.849705 0.097109
v -0.000631 0.849702 0.097111
v -0.000631 0.691180 0.097109
v 1.825541 0.691180 0.097109
v 1.582790 0.849705 0.097109
v -0.000631 0.159135 0.078482
v -0.258516 0.461265 0.048387
v -0.258516 0.159135 0.048387
v -0.000631 0.159135 0.078482
v -0.000631 0.461265 0.078482
v -0.258516 0.461265 0.048387
v -0.000631 0.159135 0.078482
v 0.257254 0.461265 0.048387
v -0.000631 0.461265 0.078482
v -0.000631 0.159135 0.078482
v 0.257254 0.159135 0.048387
v 0.257254 0.461265 0.048387
v -0.258516 0.159135 0.048387
v -0.258516 0.461265 0.048387
v -0.392900 0.461265 -0.189794
v -0.258516 0.159135 0.048387
v -0.392900 0.461265 -0.189794
v -0.392900 0.159135 -0.189795
v 0.257254 0.159135 0.048387
v 0.391637 0.159135 -0.189795
v 0.257254 0.461265 0.048387
v 0.391637 0.159135 -0.189795
v 0.391637 0.461265 -0.189794
v 0.257254 0.461265 0.048387
v -0.855244 0.000000 -0.070286
v -0.000631 0.159136 -0.291325
v -0.000631 0.000000 -0.291325
v -0.855244 0.000000 -0.070286
v -0.855244 0.159135 -0.070286
v -0.000631 0.159136 -0.291325
v -0.855244 0.000000 -0.070286
v -1.236229 0.081969 0.195586
v -0.855244 0.159135 -0.070286
v -0.855244 0.000000 -0.070286
v -1.236229 -0.000000 0.195586
v -1.236229 0.081969 0.195586
v -0.000631 0.159136 -0.291325
v -0.855244 0.159135 -0.070286
v -0.654549 0.159135 0.130417
v -0.000631 0.159136 -0.291325
v -0.654549 0.159135 0.130417
v -0.000631 0.159135 0.097107
v -0.000631 0.159136 -0.291325
v -0.000631 0.159135 0.097107
v 0.653292 0.159135 0.130417
v -0.000631 0.159136 -0.291325
v 0.653292 0.159135 0.130417
v 0.853987 0.159135 -0.070286
v -0.855244 0.159135 -0.070286
v -1.119942 0.081969 0.315194
v -0.654549 0.159135 0.130417
v -0.855244 0.159135 -0.070286
v -1.236229 0.081969 0.195586
v -1.119942 0.081969 0.315194
v 0.653292 0.159135 0.130417
v 1.118689 0.081969 0.315194
v 0.853987 0.159135 -0.070286
v 1.118689 0.081969 0.315194
v 1.234976 0.081969 0.195586
v 0.853987 0.159135 -0.070286
v 0.853987 0.000000 -0.070286
v -0.000631 0.000000 -0.291325
v -0.000631 0.159136 -0.291325
v 0.853987 0.000000 -0.070286
v -0.000631 0.159136 -0.291325
v 0.853987 0.159135 -0.070286
v 0.853987 0.000000 -0.070286
v 0.853987 0.159135 -0.070286
v 1.234976 0.081969 0.195586
v 0.853987 0.000000 -0.070286
v 1.234976 0.081969 0.195586
v 1.234976 -0.000000 0.195586
v -0.000631 2.682863 0.097111
v 1.825541 2.682863 0.097111
v 1.825541 2.682863 -0.097108
v -0.000631 2.682863 0.097111
v 1.825541 2.682863 -0.097108
v -0.000631 2.682863 -0.097108
v -0.000631 2.682863 0.097111
v -0.000631 2.682863 -0.097108
v -1.857898 2.682863 0.097111
v -0.000631 2.682863 -0.097108
v -1.857898 2.682863 -0.097108
v -1.857898 2.682863 0.097111
v -0.000631 0.412714 0.097108
v 1.825541 0.412713 0.097108
v 1.825541 0.691180 0.097109
v -0.000631 0.412714 0.097108
v 1.825541 0.691180 0.097109
v -0.000631 0.691180 0.097109
v -0.000631 0.412714 0.097108
v -0.000631 0.691180 0.097109
v -1.857898 0.412714 0.097108
v -0.000631 0.691180 0.097109
v -1.857898 0.691180 0.097109
v -1.857898 0.412714 0.097108
v 1.825541 0.691180 0.097109
v 1.825541 0.412713 0.097108
v 1.825541 0.412713 -0.097108
v 1.825541 0.691180 0.097109
v 1.825541 0.412713 -0.097108
v 1.825541 1.676033 -0.097108
v 1.825541 0.691180 0.097109
v 1.825541 1.676033 -0.097108
v 1.825541 1.676033 0.097110
v 1.825541 1.676033 -0.097108
v 1.825541 2.682863 -0.097108
v 1.825541 1.676033 0.097110
v 1.825541 2.682863 -0.097108
v 1.825541 2.682863 0.097111
v 1.825541 1.676033 0.097110
v -1.857898 0.691180 0.097109
v -1.857898 1.676033 -0.097108
v -1.857898 0.412714 -0.097108
v -1.857898 0.691180 0.097109
v -1.857898 1.676033 0.097110
v -1.857898 1.676033 -0.097108
v -1.857898 0.691180 0.097109
v -1.857898 0.412714 -0.097108
v -1.857898 0.412714 0.097108
v -1.857898 1.676033 0.097110
v -1.857898 2.682863 -0.097108
v -1.857898 1.676033 -0.097108
v -1.857898 1.676033 0.097110
v -1.857898 2.682863 0.097111
v -1.857898 2.682863 -0.097108
v -0.654549 0.159135 0.130417
v -0.000631 -0.000000 0.097107
v -0.000631 0.159135 0.097107
v -0.654549 0.159135 0.130417
v -0.654549 -0.000000 0.130417
v -0.000631 -0.000000 0.097107
v -0.654549 0.159135 0.130417
v -1.119942 0.081969 0.315194
v -0.654549 -0.000000 0.130417
v -1.119942 0.081969 0.315194
v -1.119942 -0.000000 0.315194
v -0.654549 -0.000000 0.130417
v 0.653292 0.159135 0.130417
v -0.000631 0.159135 0.097107
v -0.000631 -0.000000 0.097107
v 0.653292 0.159135 0.130417
v -0.000631 -0.000000 0.097107
v 0.653292 -0.000000 0.130417
v 0.653292 0.159135 0.130417
v 0.653292 -0.000000 0.130417
v 1.118689 0.081969 0.315194
v 0.653292 -0.000000 0.130417
v 1.118689 -0.000000 0.315194
v 1.118689 0.081969 0.315194
v -1.119942 0.081969 0.315194
v -1.236229 -0.000000 0.195586
v -1.119942 -0.000000 0.315194
v -1.119942 0.081969 0.315194
v -1.236229 0.081969 0.195586
v -1.236229 -0.000000 0.195586
v 1.234976 -0.000000 0.195586
v 1.118689 0.081969 0.315194
v 1.118689 -0.000000 0.315194
v 1.234976 -0.000000 0.195586
v 1.234976 0.081969 0.195586
v 1.118689 0.081969 0.315194
v 1.724811 -0.097108 -0.187347
v 0.995818 -0.097108 -0.395583
v 1.238288 -0.097108 -0.056057
v 1.238288 -0.097108 -0.056057
v 0.995818 -0.097108 -0.395583
v 0.714924 -0.097108 -0.168182
v 0.995818 -0.097108 -0.395583
v 0.000000 -0.097108 -0.471802
v 0.714924 -0.097108 -0.168182
v 0.714924 -0.097108 -0.168182
v 0.000000 -0.097108 -0.471802
v 0.000000 -0.097108 -0.209223
v -0.995818 -0.097108 -0.395583
v -0.714924 -0.097108 -0.168182
v 0.000000 -0.097108 -0.471802
v 0.000000 -0.097108 -0.471802
v -0.714924 -0.097108 -0.168182
v 0.000000 -0.097108 -0.209223
v -1.724811 -0.097108 -0.187347
v -1.238288 -0.097108 -0.056057
v -0.995818 -0.097108 -0.395583
v -0.995818 -0.097108 -0.395583
v -1.238288 -0.097108 -0.056057
v -0.714924 -0.097108 -0.168182
v -1.850673 -0.097108 0.097108
v -1.328647 -0.097108 0.097108
v -1.724811 -0.097108 -0.187347
v -1.724811 -0.097108 -0.187347
v -1.328647 -0.097108 0.097108
v -1.238288 -0.097108 -0.056057
v -1.850673 -0.097108 0.097108
v -1.724811 -0.097108 0.381564
v -1.328647 -0.097108 0.097108
v -1.328647 -0.097108 0.097108
v -1.724811 -0.097108 0.381564
v -1.238288 -0.097108 0.250274
v -1.724811 -0.097108 0.381564
v -0.995818 -0.097109 0.589800
v -1.238288 -0.097108 0.250274
v -1.238288 -0.097108 0.250274
v -0.995818 -0.097109 0.589800
v -0.714924 -0.097108 0.362399
v -0.995818 -0.097109 0.589800
v 0.000000 -0.097109 0.666019
v -0.714924 -0.097108 0.362399
v -0.714924 -0.097108 0.362399
v 0.000000 -0.097109 0.666019
v 0.000000 -0.097108 0.403440
v 0.995818 -0.097109 0.589800
v 0.714924 -0.097108 0.362399
v 0.000000 -0.097109 0.666019
v 0.000000 -0.097109 0.666019
v 0.714924 -0.097108 0.362399
v 0.000000 -0.097108 0.403440
v 1.724811 -0.097108 0.381564
v 1.238288 -0.097108 0.250274
v 0.995818 -0.097109 0.589800
v 0.995818 -0.097109 0.589800
v 1.238288 -0.097108 0.250274
v 0.714924 -0.097108 0.362399
v 1.850673 -0.097108 0.097108
v 1.328647 -0.097108 0.097108
v 1.724811 -0.097108 0.381564
v 1.724811 -0.097108 0.381564
v 1.328647 -0.097108 0.097108
v 1.238288 -0.097108 0.250274
v 1.850673 -0.097108 0.097108
v 1.724811 -0.097108 -0.187347
v 1.328647 -0.097108 0.097108
v 1.328647 -0.097108 0.097108
v 1.724811 -0.097108 -0.187347
v 1.238288 -0.097108 -0.056057
v 1.238288 -0.097108 -0.056057
v 0.714924 -0.097108 -0.168182
v 0.000000 -0.097108 0.097108
v 0.714924 -0.097108 -0.168182
v 0.000000 -0.097108 -0.209223
v 0.000000 -0.097108 0.097108
v 0.000000 -0.097108 -0.209223
v -0.714924 -0.097108 -0.168182
v 0.000000 -0.097108 0.097108
v -0.714924 -0.097108 -0.168182
v -1.238288 -0.097108 -0.056057
v 0.000000 -0.097108 0.097108
v -1.238288 -0.097108 -0.056057
v -1.328647 -0.097108 0.097108
v 0.000000 -0.097108 0.097108
v -1.328647 -0.097108 0.097108
v -1.238288 -0.097108 0.250274
v 0.000000 -0.097108 0.097108
v -1.238288 -0.097108 0.250274
v -0.714924 -0.097108 0.362399
v 0.000000 -0.097108 0.097108
v -0.714924 -0.097108 0.362399
v 0.000000 -0.097108 0.403440
v 0.000000 -0.097108 0.097108
v 0.000000 -0.097108 0.403440
v 0.714924 -0.097108 0.362399
v 0.000000 -0.097108 0.097108
v 0.714924 -0.097108 0.362399
v 1.238288 -0.097108 0.250274
v 0.000000 -0.097108 0.097108
v 1.238288 -0.097108 0.250274
v 1.328647 -0.097108 0.097108
v 0.000000 -0.097108 0.097108
v 1.328647 -0.097108 0.097108
v 1.238288 -0.097108 -0.056057
v 0.000000 -0.097108 0.097108
vt 0.338727 0.220317
vt 0.502714 0.285035
vt 0.432960 0.329810
vt 0.547258 0.220317
vt 0.338727 0.342645
vt 0.244491 0.329810
vt 0.174736 0.285035
vt 0.130195 0.220317
vt 0.515625 0.458862
vt 0.058130 0.495089
vt 0.515625 0.495089
vt 0.000000 0.458862
vt 0.941868 0.495089
vt 1.000000 0.458862
vt -0.914369 0.462680
vt -1.219410 0.462680
vt -1.256950 0.495415
vt -0.942647 0.495415
vt -0.641111 0.495415
vt -0.617387 0.462680
vt -0.933282 0.462680
vt -0.677116 0.495415
vt -0.929432 0.495415
vt -0.633820 0.462680
vt -1.193740 0.495415
vt -1.240170 0.462680
vt 0.058130 0.495187
vt 0.515625 0.495186
vt 0.941868 0.495186
vt 0.235437 0.004217
vt 0.187814 0.213539
vt 0.187814 0.004217
vt 0.235437 0.213539
vt 0.283780 0.213539
vt 0.283780 0.004217
vt 0.125165 0.213539
vt 0.125165 0.004217
vt 0.324949 0.004217
vt 0.324949 0.213539
vt 0.120824 0.153697
vt 0.083698 0.280333
vt 0.120824 0.280333
vt 0.083698 0.153697
vt 0.083698 0.013681
vt 0.120824 0.013681
vt 0.074650 0.341053
vt 0.074650 0.153697
vt 0.003766 0.153697
vt 0.003766 0.280333
vt 0.003766 0.013681
vt 0.074650 0.013681
vt 1.000000 0.424845
vt 0.515625 0.424845
vt 0.000000 0.424845
vt 0.515625 0.346287
vt 1.000000 0.346287
vt 1.000000 0.419713
vt 0.515625 0.419713
vt 0.000000 0.346287
vt 0.000000 0.419713
vt -1.242810 0.458862
vt -1.275360 0.458862
vt -1.275360 0.424845
vt -0.974623 0.424845
vt -0.995401 0.458862
vt -0.742148 0.424845
vt -0.742148 0.458861
vt -1.275880 0.424845
vt -1.258910 0.458861
vt 0.074650 0.002371
vt 0.003766 0.002371
vt 1.500000 0.031250
vt 1.500000 0.968750
g terebi_terebi_terebi0.png
usemtl terebi0.png
s off
f 25/11 26/12 27/13
f 28/11 29/14 30/12
f 31/11 32/13 33/15
f 34/11 35/15 36/16
f 37/11 38/16 39/17
f 40/11 41/17 42/18
f 43/19 44/20 45/21
f 46/19 47/22 48/20
f 49/19 50/21 51/23
f 52/19 53/23 54/24
f 55/25 56/26 57/27
f 58/25 59/27 60/28
f 61/25 62/28 63/29
f 64/25 65/29 66/30
f 67/31 68/32 69/33
f 70/31 71/34 72/32
f 73/31 74/33 75/35
f 76/31 77/35 78/36
f 79/19 80/37 81/22
f 82/19 83/38 84/37
f 85/19 86/39 87/38
f 88/19 89/24 90/39
f 91/40 92/41 93/42
f 94/40 95/43 96/41
f 97/40 98/44 99/43
f 100/40 101/45 102/44
f 103/42 104/41 105/46
f 106/42 107/46 108/47
f 109/45 110/48 111/44
f 112/48 113/49 114/44
f 115/50 116/51 117/52
f 118/50 119/53 120/51
f 121/50 122/54 123/53
f 124/50 125/55 126/54
f 127/56 128/57 129/58
f 130/56 131/58 132/59
f 133/56 134/59 135/58
f 136/56 137/58 138/57
f 139/57 140/60 141/58
f 142/57 143/61 144/60
f 145/58 146/60 147/57
f 148/60 149/61 150/57
f 151/50 152/52 153/51
f 154/50 155/51 156/53
f 157/50 158/53 159/54
f 160/50 161/54 162/55
f 163/19 164/24 165/62
f 166/19 167/62 168/63
f 169/19 170/63 171/22
f 172/63 173/64 174/22
f 175/65 176/66 177/67
f 178/65 179/67 180/68
f 181/65 182/68 183/69
f 184/68 185/70 186/69
f 187/71 188/72 189/73
f 190/71 191/73 192/74
f 193/71 194/74 195/75
f 196/74 197/76 198/75
f 199/76 200/77 201/75
f 202/71 203/78 204/73
f 205/71 206/79 207/78
f 208/71 209/73 210/72
f 211/79 212/73 213/78
f 214/79 215/72 216/73
f 217/53 218/52 219/51
f 220/53 221/50 222/52
f 223/53 224/54 225/50
f 226/54 227/55 228/50
f 229/53 230/51 231/52
f 232/53 233/52 234/50
f 235/53 236/50 237/54
f 238/50 239/55 240/54
f 241/60 242/80 243/81
f 244/60 245/61 246/80
f 247/80 248/60 249/81
f 250/80 251/61 252/60
g terebi_terebi_shadow1.png.107
usemtl shadow1.png.107
f 253/82 254/82 255/83
f 256/83 257/82 258/83
f 259/82 260/82 261/83
f 262/83 263/82 264/83
f 265/82 266/83 267/82
f 268/82 269/83 270/83
f 271/82 272/83 273/82
f 274/82 275/83 276/83
f 277/82 278/83 279/82
f 280/82 281/83 282/83
f 283/82 284/82 285/83
f 286/83 287/82 288/83
f 289/82 290/82 291/83
f 292/83 293/82 294/83
f 295/82 296/82 297/83
f 298/83 299/82 300/83
f 301/82 302/83 303/82
f 304/82 305/83 306/83
f 307/82 308/83 309/82
f 310/82 311/83 312/83
f 313/82 314/83 315/82
f 316/82 317/83 318/83
f 319/82 320/82 321/83
f 322/83 323/82 324/83
f 325/83 326/83 327/83
f 328/83 329/83 330/83
f 331/83 332/83 333/83
f 334/83 335/83 336/83
f 337/83 338/83 339/83
f 340/83 341/83 342/83
f 343/83 344/83 345/83
f 346/83 347/83 348/83
f 349/83 350/83 351/83
f 352/83 353/83 354/83
f 355/83 356/83 357/83
f 358/83 359/83 360/83
o tv2.002
v -0.000631 1.676033 0.097112
v -0.000631 2.537201 0.097112
v -1.615127 1.676033 0.097112
v -1.615127 1.676033 0.097112
v -0.000631 2.537201 0.097112
v -1.615127 2.537201 0.097111
v -0.000631 1.676033 0.097112
v 1.582770 1.676033 0.097109
v -0.000631 2.537201 0.097112
v -0.000631 2.537201 0.097112
v 1.582770 1.676033 0.097109
v 1.582770 2.537201 0.097112
v -1.615146 0.849706 0.097111
v -0.000631 0.849697 0.097111
v -1.615127 1.676033 0.097112
v -1.615127 1.676033 0.097112
v -0.000631 0.849697 0.097111
v -0.000631 1.676033 0.097112
v 1.582790 0.849705 0.097109
v 1.582770 1.676033 0.097109
v -0.000631 0.849697 0.097111
v -0.000631 0.849697 0.097111
v 1.582770 1.676033 0.097109
v -0.000631 1.676033 0.097112
v 1.760207 0.748906 0.129282
v 1.760207 2.638941 0.129282
v 1.526341 0.936800 0.129282
v 1.526341 0.936800 0.129282
v 1.760207 2.638941 0.129282
v 1.526341 2.477896 0.129282
v -1.558581 2.477896 0.129282
v -1.792447 2.638941 0.129282
v -1.558581 0.936800 0.129282
v -1.558581 0.936800 0.129282
v -1.792447 2.638941 0.129282
v -1.792447 0.748906 0.129282
v 0.033408 1.659224 0.129282
v 1.526341 0.936800 0.129282
v 1.526341 2.477896 0.129282
v -1.792447 2.638941 0.129282
v -1.558581 2.477896 0.129282
v 1.760207 2.638941 0.129282
v 1.760207 2.638941 0.129282
v -1.558581 2.477896 0.129282
v 1.526341 2.477896 0.129282
v 1.526341 2.477896 0.129282
v -1.558581 2.477896 0.129282
v 0.033408 1.659224 0.129282
v 0.033408 1.659224 0.129282
v -1.558581 2.477896 0.129282
v -1.558581 0.936800 0.129282
v 1.760207 0.748906 0.129282
v 1.526341 0.936800 0.129282
v -1.792447 0.748906 0.129282
v -1.792447 0.748906 0.129282
v 1.526341 0.936800 0.129282
v -1.558581 0.936800 0.129282
v -1.558581 0.936800 0.129282
v 1.526341 0.936800 0.129282
v 0.033408 1.659224 0.129282
vt 0.491369 0.847497
vt 0.491369 0.996019
vt 0.002895 0.847244
vt 0.002895 0.996018
vt 0.979844 0.847244
vt 0.979844 0.996019
vt 0.002895 0.684766
vt 0.491369 0.684766
vt 0.491369 0.847371
vt 0.979844 0.684766
vt 0.000000 0.000000
g tv2.002_tv2.002_terebi2.png
usemtl terebi2.png
s off
f 361/84 362/85 363/86
f 364/86 365/85 366/87
f 367/84 368/88 369/85
f 370/85 371/88 372/89
f 373/90 374/91 375/86
f 376/86 377/91 378/92
f 379/93 380/88 381/91
f 382/91 383/88 384/92
g tv2.002_tv2.002_terebi3.png
usemtl terebi3.png
f 385/94 386/94 387/94
f 388/94 389/94 390/94
f 391/94 392/94 393/94
f 394/94 395/94 396/94
f 397/94 398/94 399/94
f 400/94 401/94 402/94
f 403/94 404/94 405/94
f 406/94 407/94 408/94
f 409/94 410/94 411/94
f 412/94 413/94 414/94
f 415/94 416/94 417/94
f 418/94 419/94 420/94
