# Blender v2.72 (sub 0) OBJ File: 'ORAS Map Lighting.blend'
# www.blender.org
mtllib jidouhanbaiki.mtl
o polySurface53
v 0.417530 2.000435 0.428212
v 0.373406 2.000435 0.493669
v 0.417530 2.311752 0.428212
v 0.417530 2.311752 0.428212
v 0.373406 2.000435 0.493669
v 0.373406 2.311752 0.493669
v 0.373406 2.000435 0.493669
v 0.417530 2.000435 0.559122
v 0.373406 2.311752 0.493669
v 0.373406 2.311752 0.493669
v 0.417530 2.000435 0.559122
v 0.417530 2.311752 0.559122
v 0.417530 2.000435 0.559122
v 0.505783 2.000435 0.559122
v 0.417530 2.311752 0.559122
v 0.417530 2.311752 0.559122
v 0.505783 2.000435 0.559122
v 0.505783 2.311752 0.559122
v 0.505783 2.000435 0.559122
v 0.549908 2.000435 0.493669
v 0.505783 2.311752 0.559122
v 0.505783 2.311752 0.559122
v 0.549908 2.000435 0.493669
v 0.549908 2.311752 0.493669
v 0.549908 2.000435 0.493669
v 0.505783 2.000435 0.428212
v 0.549908 2.311752 0.493669
v 0.549908 2.311752 0.493669
v 0.505783 2.000435 0.428212
v 0.505783 2.311752 0.428212
v 0.549908 2.311752 0.493669
v 0.505783 2.311752 0.428212
v 0.417530 2.311752 0.428212
v 0.549908 2.311752 0.493669
v 0.373406 2.311752 0.493669
v 0.505783 2.311752 0.559122
v 0.549908 2.311752 0.493669
v 0.417530 2.311752 0.428212
v 0.373406 2.311752 0.493669
v 0.505783 2.311752 0.559122
v 0.373406 2.311752 0.493669
v 0.417530 2.311752 0.559122
v 0.122295 2.000435 0.428212
v 0.078170 2.000435 0.493669
v 0.122295 2.311752 0.428212
v 0.122295 2.311752 0.428212
v 0.078170 2.000435 0.493669
v 0.078170 2.311752 0.493669
v 0.078170 2.000435 0.493669
v 0.122295 2.000435 0.559122
v 0.078170 2.311752 0.493669
v 0.078170 2.311752 0.493669
v 0.122295 2.000435 0.559122
v 0.122295 2.311752 0.559122
v 0.122295 2.000435 0.559122
v 0.210548 2.000435 0.559122
v 0.122295 2.311752 0.559122
v 0.122295 2.311752 0.559122
v 0.210548 2.000435 0.559122
v 0.210548 2.311752 0.559122
v 0.210548 2.000435 0.559122
v 0.254672 2.000435 0.493669
v 0.210548 2.311752 0.559122
v 0.210548 2.311752 0.559122
v 0.254672 2.000435 0.493669
v 0.254672 2.311752 0.493669
v 0.254672 2.000435 0.493669
v 0.210548 2.000435 0.428212
v 0.254672 2.311752 0.493669
v 0.254672 2.311752 0.493669
v 0.210548 2.000435 0.428212
v 0.210548 2.311752 0.428212
v 0.254672 2.311752 0.493669
v 0.210548 2.311752 0.428212
v 0.122295 2.311752 0.428212
v 0.254672 2.311752 0.493669
v 0.078170 2.311752 0.493669
v 0.210548 2.311752 0.559122
v 0.254672 2.311752 0.493669
v 0.122295 2.311752 0.428212
v 0.078170 2.311752 0.493669
v 0.210548 2.311752 0.559122
v 0.078170 2.311752 0.493669
v 0.122295 2.311752 0.559122
v -0.172936 2.000435 0.428212
v -0.217061 2.000435 0.493669
v -0.172936 2.311752 0.428212
v -0.172936 2.311752 0.428212
v -0.217061 2.000435 0.493669
v -0.217061 2.311752 0.493669
v -0.217061 2.000435 0.493669
v -0.172938 2.000435 0.559122
v -0.217061 2.311752 0.493669
v -0.217061 2.311752 0.493669
v -0.172938 2.000435 0.559122
v -0.172938 2.311752 0.559122
v -0.172938 2.000435 0.559122
v -0.084685 2.000435 0.559122
v -0.172938 2.311752 0.559122
v -0.172938 2.311752 0.559122
v -0.084685 2.000435 0.559122
v -0.084685 2.311752 0.559122
v -0.084685 2.000435 0.559122
v -0.040561 2.000435 0.493669
v -0.084685 2.311752 0.559122
v -0.084685 2.311752 0.559122
v -0.040561 2.000435 0.493669
v -0.040561 2.311752 0.493669
v -0.040561 2.000435 0.493669
v -0.084685 2.000435 0.428212
v -0.040561 2.311752 0.493669
v -0.040561 2.311752 0.493669
v -0.084685 2.000435 0.428212
v -0.084685 2.311752 0.428212
v -0.040561 2.311752 0.493669
v -0.084685 2.311752 0.428212
v -0.172936 2.311752 0.428212
v -0.040561 2.311752 0.493669
v -0.217061 2.311752 0.493669
v -0.084685 2.311752 0.559122
v -0.040561 2.311752 0.493669
v -0.172936 2.311752 0.428212
v -0.217061 2.311752 0.493669
v -0.084685 2.311752 0.559122
v -0.217061 2.311752 0.493669
v -0.172938 2.311752 0.559122
v -0.468169 2.000435 0.428212
v -0.512294 2.000435 0.493669
v -0.468169 2.311752 0.428212
v -0.468169 2.311752 0.428212
v -0.512294 2.000435 0.493669
v -0.512294 2.311752 0.493669
v -0.512294 2.000435 0.493669
v -0.468174 2.000435 0.559122
v -0.512294 2.311752 0.493669
v -0.512294 2.311752 0.493669
v -0.468174 2.000435 0.559122
v -0.468174 2.311752 0.559122
v -0.468174 2.000435 0.559122
v -0.379920 2.000435 0.559122
v -0.468174 2.311752 0.559122
v -0.468174 2.311752 0.559122
v -0.379920 2.000435 0.559122
v -0.379920 2.311752 0.559122
v -0.379920 2.000435 0.559122
v -0.335796 2.000435 0.493669
v -0.379920 2.311752 0.559122
v -0.379920 2.311752 0.559122
v -0.335796 2.000435 0.493669
v -0.335796 2.311752 0.493669
v -0.335796 2.000435 0.493669
v -0.379920 2.000435 0.428212
v -0.335796 2.311752 0.493669
v -0.335796 2.311752 0.493669
v -0.379920 2.000435 0.428212
v -0.379920 2.311752 0.428212
v -0.335796 2.311752 0.493669
v -0.379920 2.311752 0.428212
v -0.468169 2.311752 0.428212
v -0.335796 2.311752 0.493669
v -0.512294 2.311752 0.493669
v -0.379920 2.311752 0.559122
v -0.335796 2.311752 0.493669
v -0.468169 2.311752 0.428212
v -0.512294 2.311752 0.493669
v -0.379920 2.311752 0.559122
v -0.512294 2.311752 0.493669
v -0.468174 2.311752 0.559122
v -0.763405 2.000435 0.428212
v -0.807531 2.000435 0.493669
v -0.763405 2.311752 0.428212
v -0.763405 2.311752 0.428212
v -0.807531 2.000435 0.493669
v -0.807531 2.311752 0.493669
v -0.807531 2.000435 0.493669
v -0.763409 2.000435 0.559122
v -0.807531 2.311752 0.493669
v -0.807531 2.311752 0.493669
v -0.763409 2.000435 0.559122
v -0.763409 2.311752 0.559122
v -0.763409 2.000435 0.559122
v -0.675155 2.000435 0.559122
v -0.763409 2.311752 0.559122
v -0.763409 2.311752 0.559122
v -0.675155 2.000435 0.559122
v -0.675155 2.311752 0.559122
v -0.675155 2.000435 0.559122
v -0.631029 2.000435 0.493669
v -0.675155 2.311752 0.559122
v -0.675155 2.311752 0.559122
v -0.631029 2.000435 0.493669
v -0.631029 2.311752 0.493669
v -0.631029 2.000435 0.493669
v -0.675155 2.000435 0.428212
v -0.631029 2.311752 0.493669
v -0.631029 2.311752 0.493669
v -0.675155 2.000435 0.428212
v -0.675155 2.311752 0.428212
v -0.631029 2.311752 0.493669
v -0.675155 2.311752 0.428212
v -0.763405 2.311752 0.428212
v -0.631029 2.311752 0.493669
v -0.807531 2.311752 0.493669
v -0.675155 2.311752 0.559122
v -0.631029 2.311752 0.493669
v -0.763405 2.311752 0.428212
v -0.807531 2.311752 0.493669
v -0.675155 2.311752 0.559122
v -0.807531 2.311752 0.493669
v -0.763409 2.311752 0.559122
v 0.668639 2.311752 0.493669
v 0.712766 2.311752 0.428212
v 0.668639 2.000435 0.493669
v 0.668639 2.000435 0.493669
v 0.712766 2.311752 0.428212
v 0.712766 2.000435 0.428212
v 0.712760 2.311752 0.559122
v 0.668639 2.311752 0.493669
v 0.712760 2.000435 0.559122
v 0.712760 2.000435 0.559122
v 0.668639 2.311752 0.493669
v 0.668639 2.000435 0.493669
v 0.801011 2.311752 0.559122
v 0.712760 2.311752 0.559122
v 0.801011 2.000435 0.559122
v 0.801011 2.000435 0.559122
v 0.712760 2.311752 0.559122
v 0.712760 2.000435 0.559122
v 0.845138 2.311752 0.493669
v 0.801011 2.311752 0.559122
v 0.845138 2.000435 0.493669
v 0.845138 2.000435 0.493669
v 0.801011 2.311752 0.559122
v 0.801011 2.000435 0.559122
v 0.845138 2.311752 0.493669
v 0.712766 2.311752 0.428212
v 0.668639 2.311752 0.493669
v 0.801011 2.000435 0.428212
v 0.801011 2.311752 0.428212
v 0.845138 2.000435 0.493669
v 0.845138 2.000435 0.493669
v 0.801011 2.311752 0.428212
v 0.845138 2.311752 0.493669
v 0.668639 2.311752 0.493669
v 0.801011 2.311752 0.559122
v 0.845138 2.311752 0.493669
v 0.712766 2.311752 0.428212
v 0.845138 2.311752 0.493669
v 0.801011 2.311752 0.428212
v 0.801011 2.311752 0.559122
v 0.668639 2.311752 0.493669
v 0.712760 2.311752 0.559122
v 0.417530 1.513178 0.428212
v 0.373406 1.513178 0.493669
v 0.417530 1.824487 0.428212
v 0.417530 1.824487 0.428212
v 0.373406 1.513178 0.493669
v 0.373406 1.824487 0.493669
v 0.373406 1.513178 0.493669
v 0.417530 1.513178 0.559122
v 0.373406 1.824487 0.493669
v 0.373406 1.824487 0.493669
v 0.417530 1.513178 0.559122
v 0.417530 1.824487 0.559122
v 0.417530 1.513178 0.559122
v 0.505783 1.513178 0.559122
v 0.417530 1.824487 0.559122
v 0.417530 1.824487 0.559122
v 0.505783 1.513178 0.559122
v 0.505783 1.824487 0.559122
v 0.505783 1.513178 0.559122
v 0.549908 1.513178 0.493669
v 0.505783 1.824487 0.559122
v 0.505783 1.824487 0.559122
v 0.549908 1.513178 0.493669
v 0.549908 1.824487 0.493669
v 0.549908 1.513178 0.493669
v 0.505783 1.513178 0.428212
v 0.549908 1.824487 0.493669
v 0.549908 1.824487 0.493669
v 0.505783 1.513178 0.428212
v 0.505783 1.824487 0.428212
v 0.549908 1.824487 0.493669
v 0.505783 1.824487 0.428212
v 0.417530 1.824487 0.428212
v 0.549908 1.824487 0.493669
v 0.373406 1.824487 0.493669
v 0.505783 1.824487 0.559122
v 0.549908 1.824487 0.493669
v 0.417530 1.824487 0.428212
v 0.373406 1.824487 0.493669
v 0.505783 1.824487 0.559122
v 0.373406 1.824487 0.493669
v 0.417530 1.824487 0.559122
v 0.122295 1.513178 0.428212
v 0.078170 1.513178 0.493669
v 0.122295 1.824487 0.428212
v 0.122295 1.824487 0.428212
v 0.078170 1.513178 0.493669
v 0.078170 1.824487 0.493669
v 0.078170 1.513178 0.493669
v 0.122295 1.513178 0.559122
v 0.078170 1.824487 0.493669
v 0.078170 1.824487 0.493669
v 0.122295 1.513178 0.559122
v 0.122295 1.824487 0.559122
v 0.122295 1.513178 0.559122
v 0.210548 1.513178 0.559122
v 0.122295 1.824487 0.559122
v 0.122295 1.824487 0.559122
v 0.210548 1.513178 0.559122
v 0.210548 1.824487 0.559122
v 0.210548 1.513178 0.559122
v 0.254672 1.513178 0.493669
v 0.210548 1.824487 0.559122
v 0.210548 1.824487 0.559122
v 0.254672 1.513178 0.493669
v 0.254672 1.824487 0.493669
v 0.254672 1.513178 0.493669
v 0.210548 1.513178 0.428212
v 0.254672 1.824487 0.493669
v 0.254672 1.824487 0.493669
v 0.210548 1.513178 0.428212
v 0.210548 1.824487 0.428212
v 0.254672 1.824487 0.493669
v 0.210548 1.824487 0.428212
v 0.122295 1.824487 0.428212
v 0.254672 1.824487 0.493669
v 0.078170 1.824487 0.493669
v 0.210548 1.824487 0.559122
v 0.254672 1.824487 0.493669
v 0.122295 1.824487 0.428212
v 0.078170 1.824487 0.493669
v 0.210548 1.824487 0.559122
v 0.078170 1.824487 0.493669
v 0.122295 1.824487 0.559122
v -0.172936 1.513178 0.428212
v -0.217061 1.513178 0.493669
v -0.172936 1.824487 0.428212
v -0.172936 1.824487 0.428212
v -0.217061 1.513178 0.493669
v -0.217061 1.824487 0.493669
v -0.217061 1.513178 0.493669
v -0.172938 1.513178 0.559122
v -0.217061 1.824487 0.493669
v -0.217061 1.824487 0.493669
v -0.172938 1.513178 0.559122
v -0.172938 1.824487 0.559122
v -0.172938 1.513178 0.559122
v -0.084685 1.513178 0.559122
v -0.172938 1.824487 0.559122
v -0.172938 1.824487 0.559122
v -0.084685 1.513178 0.559122
v -0.084685 1.824487 0.559122
v -0.084685 1.513178 0.559122
v -0.040561 1.513178 0.493669
v -0.084685 1.824487 0.559122
v -0.084685 1.824487 0.559122
v -0.040561 1.513178 0.493669
v -0.040561 1.824487 0.493669
v -0.040561 1.513178 0.493669
v -0.084685 1.513178 0.428212
v -0.040561 1.824487 0.493669
v -0.040561 1.824487 0.493669
v -0.084685 1.513178 0.428212
v -0.084685 1.824487 0.428212
v -0.040561 1.824487 0.493669
v -0.084685 1.824487 0.428212
v -0.172936 1.824487 0.428212
v -0.040561 1.824487 0.493669
v -0.217061 1.824487 0.493669
v -0.084685 1.824487 0.559122
v -0.040561 1.824487 0.493669
v -0.172936 1.824487 0.428212
v -0.217061 1.824487 0.493669
v -0.084685 1.824487 0.559122
v -0.217061 1.824487 0.493669
v -0.172938 1.824487 0.559122
v -0.468169 1.513178 0.428212
v -0.512294 1.513178 0.493669
v -0.468169 1.824487 0.428212
v -0.468169 1.824487 0.428212
v -0.512294 1.513178 0.493669
v -0.512294 1.824487 0.493669
v -0.512294 1.513178 0.493669
v -0.468174 1.513178 0.559122
v -0.512294 1.824487 0.493669
v -0.512294 1.824487 0.493669
v -0.468174 1.513178 0.559122
v -0.468174 1.824487 0.559122
v -0.468174 1.513178 0.559122
v -0.379920 1.513178 0.559122
v -0.468174 1.824487 0.559122
v -0.468174 1.824487 0.559122
v -0.379920 1.513178 0.559122
v -0.379920 1.824487 0.559122
v -0.379920 1.513178 0.559122
v -0.335796 1.513178 0.493669
v -0.379920 1.824487 0.559122
v -0.379920 1.824487 0.559122
v -0.335796 1.513178 0.493669
v -0.335796 1.824487 0.493669
v -0.335796 1.513178 0.493669
v -0.379920 1.513178 0.428212
v -0.335796 1.824487 0.493669
v -0.335796 1.824487 0.493669
v -0.379920 1.513178 0.428212
v -0.379920 1.824487 0.428212
v -0.335796 1.824487 0.493669
v -0.379920 1.824487 0.428212
v -0.468169 1.824487 0.428212
v -0.335796 1.824487 0.493669
v -0.512294 1.824487 0.493669
v -0.379920 1.824487 0.559122
v -0.335796 1.824487 0.493669
v -0.468169 1.824487 0.428212
v -0.512294 1.824487 0.493669
v -0.379920 1.824487 0.559122
v -0.512294 1.824487 0.493669
v -0.468174 1.824487 0.559122
v -0.763405 1.513178 0.428212
v -0.807531 1.513178 0.493669
v -0.763405 1.824487 0.428212
v -0.763405 1.824487 0.428212
v -0.807531 1.513178 0.493669
v -0.807531 1.824487 0.493669
v -0.807531 1.513178 0.493669
v -0.763409 1.513178 0.559122
v -0.807531 1.824487 0.493669
v -0.807531 1.824487 0.493669
v -0.763409 1.513178 0.559122
v -0.763409 1.824487 0.559122
v -0.763409 1.513178 0.559122
v -0.675155 1.513178 0.559122
v -0.763409 1.824487 0.559122
v -0.763409 1.824487 0.559122
v -0.675155 1.513178 0.559122
v -0.675155 1.824487 0.559122
v -0.675155 1.513178 0.559122
v -0.631029 1.513178 0.493669
v -0.675155 1.824487 0.559122
v -0.675155 1.824487 0.559122
v -0.631029 1.513178 0.493669
v -0.631029 1.824487 0.493669
v -0.631029 1.513178 0.493669
v -0.675155 1.513178 0.428212
v -0.631029 1.824487 0.493669
v -0.631029 1.824487 0.493669
v -0.675155 1.513178 0.428212
v -0.675155 1.824487 0.428212
v -0.631029 1.824487 0.493669
v -0.675155 1.824487 0.428212
v -0.763405 1.824487 0.428212
v -0.631029 1.824487 0.493669
v -0.807531 1.824487 0.493669
v -0.675155 1.824487 0.559122
v -0.631029 1.824487 0.493669
v -0.763405 1.824487 0.428212
v -0.807531 1.824487 0.493669
v -0.675155 1.824487 0.559122
v -0.807531 1.824487 0.493669
v -0.763409 1.824487 0.559122
v 0.712766 1.513178 0.428212
v 0.668639 1.513178 0.493669
v 0.712766 1.824487 0.428212
v 0.712766 1.824487 0.428212
v 0.668639 1.513178 0.493669
v 0.668639 1.824487 0.493669
v 0.668639 1.513178 0.493669
v 0.712760 1.513178 0.559122
v 0.668639 1.824487 0.493669
v 0.668639 1.824487 0.493669
v 0.712760 1.513178 0.559122
v 0.712760 1.824487 0.559122
v 0.712760 1.513178 0.559122
v 0.801011 1.513178 0.559122
v 0.712760 1.824487 0.559122
v 0.712760 1.824487 0.559122
v 0.801011 1.513178 0.559122
v 0.801011 1.824487 0.559122
v 0.801011 1.513178 0.559122
v 0.845138 1.513178 0.493669
v 0.801011 1.824487 0.559122
v 0.801011 1.824487 0.559122
v 0.845138 1.513178 0.493669
v 0.845138 1.824487 0.493669
v 0.845138 1.513178 0.493669
v 0.801011 1.513178 0.428212
v 0.845138 1.824487 0.493669
v 0.845138 1.824487 0.493669
v 0.801011 1.513178 0.428212
v 0.801011 1.824487 0.428212
v 0.845138 1.824487 0.493669
v 0.801011 1.824487 0.428212
v 0.712766 1.824487 0.428212
v 0.845138 1.824487 0.493669
v 0.668639 1.824487 0.493669
v 0.801011 1.824487 0.559122
v 0.845138 1.824487 0.493669
v 0.712766 1.824487 0.428212
v 0.668639 1.824487 0.493669
v 0.801011 1.824487 0.559122
v 0.668639 1.824487 0.493669
v 0.712760 1.824487 0.559122
v -0.817944 1.911929 0.606885
v -0.616386 1.911929 0.606885
v -0.817944 1.995079 0.606885
v -0.817944 1.995079 0.606885
v -0.616386 1.911929 0.606885
v -0.616386 1.995079 0.606885
v -0.817944 1.995079 0.606885
v -0.616386 1.995079 0.606885
v -0.817944 1.995079 0.558632
v -0.817944 1.995079 0.558632
v -0.616386 1.995079 0.606885
v -0.616386 1.995079 0.558632
v -0.616386 1.911929 0.606885
v -0.616386 1.911929 0.558632
v -0.616386 1.995079 0.606885
v -0.616386 1.995079 0.606885
v -0.616386 1.911929 0.558632
v -0.616386 1.995079 0.558632
v -0.817944 1.911929 0.558632
v -0.817944 1.911929 0.606885
v -0.817944 1.995079 0.558632
v -0.817944 1.995079 0.558632
v -0.817944 1.911929 0.606885
v -0.817944 1.995079 0.606885
v -0.524324 1.911929 0.606885
v -0.322760 1.911929 0.606885
v -0.524324 1.995079 0.606885
v -0.524324 1.995079 0.606885
v -0.322760 1.911929 0.606885
v -0.322760 1.995079 0.606885
v -0.524324 1.995079 0.606885
v -0.322760 1.995079 0.606885
v -0.524324 1.995079 0.558632
v -0.524324 1.995079 0.558632
v -0.322760 1.995079 0.606885
v -0.322760 1.995079 0.558632
v -0.322760 1.911929 0.606885
v -0.322760 1.911929 0.558632
v -0.322760 1.995079 0.606885
v -0.322760 1.995079 0.606885
v -0.322760 1.911929 0.558632
v -0.322760 1.995079 0.558632
v -0.524324 1.911929 0.558632
v -0.524324 1.911929 0.606885
v -0.524324 1.995079 0.558632
v -0.524324 1.995079 0.558632
v -0.524324 1.911929 0.606885
v -0.524324 1.995079 0.606885
v -0.230702 1.911929 0.606885
v -0.029138 1.911929 0.606885
v -0.230702 1.995079 0.606885
v -0.230702 1.995079 0.606885
v -0.029138 1.911929 0.606885
v -0.029138 1.995079 0.606885
v -0.230702 1.995079 0.606885
v -0.029138 1.995079 0.606885
v -0.230702 1.995079 0.558632
v -0.230702 1.995079 0.558632
v -0.029138 1.995079 0.606885
v -0.029138 1.995079 0.558632
v -0.029138 1.911929 0.606885
v -0.029138 1.911929 0.558632
v -0.029138 1.995079 0.606885
v -0.029138 1.995079 0.606885
v -0.029138 1.911929 0.558632
v -0.029138 1.995079 0.558632
v -0.230702 1.911929 0.558632
v -0.230702 1.911929 0.606885
v -0.230702 1.995079 0.558632
v -0.230702 1.995079 0.558632
v -0.230702 1.911929 0.606885
v -0.230702 1.995079 0.606885
v 0.062924 1.911929 0.606885
v 0.264484 1.911929 0.606885
v 0.062924 1.995079 0.606885
v 0.062924 1.995079 0.606885
v 0.264484 1.911929 0.606885
v 0.264484 1.995079 0.606885
v 0.062924 1.995079 0.606885
v 0.264484 1.995079 0.606885
v 0.062924 1.995079 0.558632
v 0.062924 1.995079 0.558632
v 0.264484 1.995079 0.606885
v 0.264484 1.995079 0.558632
v 0.264484 1.911929 0.606885
v 0.264484 1.911929 0.558632
v 0.264484 1.995079 0.606885
v 0.264484 1.995079 0.606885
v 0.264484 1.911929 0.558632
v 0.264484 1.995079 0.558632
v 0.062924 1.911929 0.558632
v 0.062924 1.911929 0.606885
v 0.062924 1.995079 0.558632
v 0.062924 1.995079 0.558632
v 0.062924 1.911929 0.606885
v 0.062924 1.995079 0.606885
v 0.356546 1.911929 0.606885
v 0.558106 1.911929 0.606885
v 0.356546 1.995079 0.606885
v 0.356546 1.995079 0.606885
v 0.558106 1.911929 0.606885
v 0.558106 1.995079 0.606885
v 0.356546 1.995079 0.606885
v 0.558106 1.995079 0.606885
v 0.356546 1.995079 0.558632
v 0.356546 1.995079 0.558632
v 0.558106 1.995079 0.606885
v 0.558106 1.995079 0.558632
v 0.558106 1.911929 0.606885
v 0.558106 1.911929 0.558632
v 0.558106 1.995079 0.606885
v 0.558106 1.995079 0.606885
v 0.558106 1.911929 0.558632
v 0.558106 1.995079 0.558632
v 0.356546 1.911929 0.558632
v 0.356546 1.911929 0.606885
v 0.356546 1.995079 0.558632
v 0.356546 1.995079 0.558632
v 0.356546 1.911929 0.606885
v 0.356546 1.995079 0.606885
v 0.650168 1.911929 0.606885
v 0.851735 1.911929 0.606885
v 0.650168 1.995079 0.606885
v 0.650168 1.995079 0.606885
v 0.851735 1.911929 0.606885
v 0.851735 1.995079 0.606885
v 0.650168 1.995079 0.606885
v 0.851735 1.995079 0.606885
v 0.650168 1.995079 0.558632
v 0.650168 1.995079 0.558632
v 0.851735 1.995079 0.606885
v 0.851735 1.995079 0.558632
v 0.851735 1.911929 0.606885
v 0.851735 1.911929 0.558632
v 0.851735 1.995079 0.606885
v 0.851735 1.995079 0.606885
v 0.851735 1.911929 0.558632
v 0.851735 1.995079 0.558632
v 0.650168 1.911929 0.558632
v 0.650168 1.911929 0.606885
v 0.650168 1.995079 0.558632
v 0.650168 1.995079 0.558632
v 0.650168 1.911929 0.606885
v 0.650168 1.995079 0.606885
v -0.817944 1.437053 0.606885
v -0.616386 1.437053 0.606885
v -0.817944 1.520196 0.606885
v -0.817944 1.520196 0.606885
v -0.616386 1.437053 0.606885
v -0.616386 1.520196 0.606885
v -0.817944 1.520196 0.606885
v -0.616386 1.520196 0.606885
v -0.817944 1.520196 0.558632
v -0.817944 1.520196 0.558632
v -0.616386 1.520196 0.606885
v -0.616386 1.520196 0.558632
v -0.616386 1.437053 0.606885
v -0.616386 1.437053 0.558632
v -0.616386 1.520196 0.606885
v -0.616386 1.520196 0.606885
v -0.616386 1.437053 0.558632
v -0.616386 1.520196 0.558632
v -0.817944 1.437053 0.558632
v -0.817944 1.437053 0.606885
v -0.817944 1.520196 0.558632
v -0.817944 1.520196 0.558632
v -0.817944 1.437053 0.606885
v -0.817944 1.520196 0.606885
v -0.524324 1.437053 0.606885
v -0.322760 1.437053 0.606885
v -0.524324 1.520196 0.606885
v -0.524324 1.520196 0.606885
v -0.322760 1.437053 0.606885
v -0.322760 1.520196 0.606885
v -0.524324 1.520196 0.606885
v -0.322760 1.520196 0.606885
v -0.524324 1.520196 0.558632
v -0.524324 1.520196 0.558632
v -0.322760 1.520196 0.606885
v -0.322760 1.520196 0.558632
v -0.322760 1.437053 0.606885
v -0.322760 1.437053 0.558632
v -0.322760 1.520196 0.606885
v -0.322760 1.520196 0.606885
v -0.322760 1.437053 0.558632
v -0.322760 1.520196 0.558632
v -0.524324 1.437053 0.558632
v -0.524324 1.437053 0.606885
v -0.524324 1.520196 0.558632
v -0.524324 1.520196 0.558632
v -0.524324 1.437053 0.606885
v -0.524324 1.520196 0.606885
v -0.230702 1.437053 0.606885
v -0.029138 1.437053 0.606885
v -0.230702 1.520196 0.606885
v -0.230702 1.520196 0.606885
v -0.029138 1.437053 0.606885
v -0.029138 1.520196 0.606885
v -0.230702 1.520196 0.606885
v -0.029138 1.520196 0.606885
v -0.230702 1.520196 0.558632
v -0.230702 1.520196 0.558632
v -0.029138 1.520196 0.606885
v -0.029138 1.520196 0.558632
v -0.029138 1.437053 0.606885
v -0.029138 1.437053 0.558632
v -0.029138 1.520196 0.606885
v -0.029138 1.520196 0.606885
v -0.029138 1.437053 0.558632
v -0.029138 1.520196 0.558632
v -0.230702 1.437053 0.558632
v -0.230702 1.437053 0.606885
v -0.230702 1.520196 0.558632
v -0.230702 1.520196 0.558632
v -0.230702 1.437053 0.606885
v -0.230702 1.520196 0.606885
v 0.062924 1.437053 0.606885
v 0.264484 1.437053 0.606885
v 0.062924 1.520196 0.606885
v 0.062924 1.520196 0.606885
v 0.264484 1.437053 0.606885
v 0.264484 1.520196 0.606885
v 0.062924 1.520196 0.606885
v 0.264484 1.520196 0.606885
v 0.062924 1.520196 0.558632
v 0.062924 1.520196 0.558632
v 0.264484 1.520196 0.606885
v 0.264484 1.520196 0.558632
v 0.264484 1.437053 0.606885
v 0.264484 1.437053 0.558632
v 0.264484 1.520196 0.606885
v 0.264484 1.520196 0.606885
v 0.264484 1.437053 0.558632
v 0.264484 1.520196 0.558632
v 0.062924 1.437053 0.558632
v 0.062924 1.437053 0.606885
v 0.062924 1.520196 0.558632
v 0.062924 1.520196 0.558632
v 0.062924 1.437053 0.606885
v 0.062924 1.520196 0.606885
v 0.356546 1.437053 0.606885
v 0.558106 1.437053 0.606885
v 0.356546 1.520196 0.606885
v 0.356546 1.520196 0.606885
v 0.558106 1.437053 0.606885
v 0.558106 1.520196 0.606885
v 0.356546 1.520196 0.606885
v 0.558106 1.520196 0.606885
v 0.356546 1.520196 0.558632
v 0.356546 1.520196 0.558632
v 0.558106 1.520196 0.606885
v 0.558106 1.520196 0.558632
v 0.558106 1.437053 0.606885
v 0.558106 1.437053 0.558632
v 0.558106 1.520196 0.606885
v 0.558106 1.520196 0.606885
v 0.558106 1.437053 0.558632
v 0.558106 1.520196 0.558632
v 0.356546 1.437053 0.558632
v 0.356546 1.437053 0.606885
v 0.356546 1.520196 0.558632
v 0.356546 1.520196 0.558632
v 0.356546 1.437053 0.606885
v 0.356546 1.520196 0.606885
v 0.650168 1.437053 0.606885
v 0.851735 1.437053 0.606885
v 0.650168 1.520196 0.606885
v 0.650168 1.520196 0.606885
v 0.851735 1.437053 0.606885
v 0.851735 1.520196 0.606885
v 0.650168 1.520196 0.606885
v 0.851735 1.520196 0.606885
v 0.650168 1.520196 0.558632
v 0.650168 1.520196 0.558632
v 0.851735 1.520196 0.606885
v 0.851735 1.520196 0.558632
v 0.851735 1.437053 0.606885
v 0.851735 1.437053 0.558632
v 0.851735 1.520196 0.606885
v 0.851735 1.520196 0.606885
v 0.851735 1.437053 0.558632
v 0.851735 1.520196 0.558632
v 0.650168 1.437053 0.558632
v 0.650168 1.437053 0.606885
v 0.650168 1.520196 0.558632
v 0.650168 1.520196 0.558632
v 0.650168 1.437053 0.606885
v 0.650168 1.520196 0.606885
v -0.898513 1.426089 0.572418
v 0.918190 1.426089 0.572418
v -0.898513 1.531161 0.572418
v -0.898513 1.531161 0.572418
v 0.918190 1.426089 0.572418
v 0.918190 1.531161 0.572418
v -0.898513 1.531161 0.572418
v 0.918190 1.531161 0.572418
v -0.898513 1.531161 0.369847
v -0.898513 1.531161 0.369847
v 0.918190 1.531161 0.572418
v 0.918190 1.531161 0.369847
v 0.918190 1.426089 0.572418
v 0.918190 1.426089 0.369847
v 0.918190 1.531161 0.572418
v 0.918190 1.531161 0.572418
v 0.918190 1.426089 0.369847
v 0.918190 1.531161 0.369847
v -0.898513 1.426089 0.369847
v -0.898513 1.426089 0.572418
v -0.898513 1.531161 0.369847
v -0.898513 1.531161 0.369847
v -0.898513 1.426089 0.572418
v -0.898513 1.531161 0.572418
v -0.898513 1.900972 0.572418
v 0.918190 1.900972 0.572418
v -0.898513 2.006044 0.572418
v -0.898513 2.006044 0.572418
v 0.918190 1.900972 0.572418
v 0.918190 2.006044 0.572418
v -0.898513 2.006044 0.572418
v 0.918190 2.006044 0.572418
v -0.898513 2.006044 0.369847
v -0.898513 2.006044 0.369847
v 0.918190 2.006044 0.572418
v 0.918190 2.006044 0.369847
v 0.918190 1.900972 0.572418
v 0.918190 1.900972 0.369847
v 0.918190 2.006044 0.572418
v 0.918190 2.006044 0.572418
v 0.918190 1.900972 0.369847
v 0.918190 2.006044 0.369847
v -0.898513 1.900972 0.369847
v -0.898513 1.900972 0.572418
v -0.898513 2.006044 0.369847
v -0.898513 2.006044 0.369847
v -0.898513 1.900972 0.572418
v -0.898513 2.006044 0.572418
v -1.018289 2.271073 0.377953
v -1.018289 2.271073 0.586076
v -1.018289 1.405362 0.377953
v -1.018289 1.405362 0.377953
v -1.018289 2.271073 0.586076
v -1.018289 1.405362 0.586076
v -0.900919 1.276652 0.377953
v -0.900919 1.276652 0.586076
v -0.362252 1.276652 0.377953
v -0.362252 1.276652 0.377953
v -0.900919 1.276652 0.586076
v -0.362252 1.276652 0.586076
v 1.035790 1.405362 0.377953
v 1.035790 1.405362 0.586076
v 1.035790 2.271073 0.377953
v 1.035790 2.271073 0.377953
v 1.035790 1.405362 0.586076
v 1.035790 2.271073 0.586076
v -0.900919 2.399791 0.377953
v 0.918419 2.399791 0.377953
v -0.900919 2.399791 0.586076
v -0.900919 2.399791 0.586076
v 0.918419 2.399791 0.377953
v 0.918419 2.399791 0.586076
v -0.900919 2.399791 0.586076
v -0.983916 2.362086 0.586076
v -0.900919 2.399791 0.377953
v -0.900919 2.399791 0.377953
v -0.983916 2.362086 0.586076
v -0.983916 2.362086 0.377953
v -0.983916 2.362086 0.586076
v -1.018289 2.271073 0.586076
v -0.983916 2.362086 0.377953
v -0.983916 2.362086 0.377953
v -1.018289 2.271073 0.586076
v -1.018289 2.271073 0.377953
v -1.018289 1.405362 0.586076
v -0.983916 1.314350 0.586076
v -1.018289 1.405362 0.377953
v -1.018289 1.405362 0.377953
v -0.983916 1.314350 0.586076
v -0.983916 1.314350 0.377953
v -0.983916 1.314350 0.586076
v -0.900919 1.276652 0.586076
v -0.983916 1.314350 0.377953
v -0.983916 1.314350 0.377953
v -0.900919 1.276652 0.586076
v -0.900919 1.276652 0.377953
v 0.918419 1.276652 0.586076
v 1.001417 1.314350 0.586076
v 0.918419 1.276652 0.377953
v 0.918419 1.276652 0.377953
v 1.001417 1.314350 0.586076
v 1.001417 1.314350 0.377953
v 1.001417 1.314350 0.586076
v 1.035790 1.405362 0.586076
v 1.001417 1.314350 0.377953
v 1.001417 1.314350 0.377953
v 1.035790 1.405362 0.586076
v 1.035790 1.405362 0.377953
v 1.035790 2.271073 0.586076
v 1.001417 2.362086 0.586076
v 1.035790 2.271073 0.377953
v 1.035790 2.271073 0.377953
v 1.001417 2.362086 0.586076
v 1.001417 2.362086 0.377953
v 1.001417 2.362086 0.586076
v 0.918419 2.399791 0.586076
v 1.001417 2.362086 0.377953
v 1.001417 2.362086 0.377953
v 0.918419 2.399791 0.586076
v 0.918419 2.399791 0.377953
v -0.362252 1.276652 0.377953
v -0.362252 1.276652 0.586076
v 0.005285 1.276652 0.377953
v 0.005285 1.276652 0.377953
v -0.362252 1.276652 0.586076
v 0.005285 1.276652 0.586076
v 0.005285 1.276652 0.377953
v 0.005285 1.276652 0.586076
v 0.918419 1.276652 0.377953
v 0.918419 1.276652 0.377953
v 0.005285 1.276652 0.586076
v 0.918419 1.276652 0.586076
v -1.040831 2.510572 0.386228
v -1.040831 2.203630 0.386228
v 1.058332 2.510572 0.386228
v 1.058332 2.510572 0.386228
v -1.040831 2.203630 0.386228
v 1.058332 2.203630 0.386228
v -1.040831 2.203630 0.386228
v -1.040831 1.257535 0.386228
v 1.058332 2.203630 0.386228
v 1.058332 2.203630 0.386228
v -1.040831 1.257535 0.386228
v 1.058332 1.257535 0.386228
v -0.992513 1.159412 0.586076
v -0.992513 0.766224 0.586076
v 0.117443 1.159412 0.586076
v 0.117443 1.159412 0.586076
v -0.992513 0.766224 0.586076
v 0.117443 0.766224 0.586076
v -1.242141 1.159412 0.586076
v -1.242141 0.024222 0.586076
v -0.992513 0.766224 0.586076
v -1.242141 1.159412 0.586076
v -0.992513 0.766224 0.586076
v -0.992513 1.159412 0.586076
v -1.242141 1.159412 0.586076
v -0.992513 1.159412 0.586076
v -0.900919 1.276652 0.586076
v -1.242141 1.159412 0.586076
v -0.900919 1.276652 0.586076
v -0.983916 1.314350 0.586076
v -1.242141 1.159412 0.586076
v -0.983916 1.314350 0.586076
v -1.018289 1.405362 0.586076
v -1.242141 1.159412 0.586076
v -1.018289 1.405362 0.586076
v -1.018289 2.271073 0.586076
v -1.242141 1.159412 0.586076
v -1.018289 2.271073 0.586076
v -1.242141 2.649979 0.586076
v -1.242141 0.024222 0.586076
v -0.992513 0.024222 0.586076
v -0.992513 0.766224 0.586076
v -0.992513 1.159412 0.586076
v -0.362252 1.276652 0.586076
v -0.900919 1.276652 0.586076
v -0.992513 1.159412 0.586076
v 0.117443 1.159412 0.586076
v -0.362252 1.276652 0.586076
v -1.018289 2.271073 0.586076
v -0.983916 2.362086 0.586076
v -1.242141 2.649979 0.586076
v -0.992513 0.024222 0.586076
v 0.117443 0.766224 0.586076
v -0.992513 0.766224 0.586076
v -0.992513 0.024222 0.586076
v 0.117443 0.024222 0.586076
v 0.117443 0.766224 0.586076
v 0.117443 1.159412 0.586076
v 0.005285 1.276652 0.586076
v -0.362252 1.276652 0.586076
v 0.117443 1.159412 0.586076
v 0.117443 0.766224 0.586076
v 1.259650 1.159412 0.586076
v 0.117443 1.159412 0.586076
v 0.918419 1.276652 0.586076
v 0.005285 1.276652 0.586076
v 0.117443 1.159412 0.586076
v 1.259650 1.159412 0.586076
v 0.918419 1.276652 0.586076
v -0.983916 2.362086 0.586076
v -0.900919 2.399791 0.586076
v -1.242141 2.649979 0.586076
v 0.117443 0.024222 0.586076
v 1.259650 0.024222 0.586076
v 0.117443 0.766224 0.586076
v 0.117443 0.766224 0.586076
v 1.259650 0.024222 0.586076
v 1.259650 1.159412 0.586076
v 0.918419 1.276652 0.586076
v 1.259650 1.159412 0.586076
v 1.001417 1.314350 0.586076
v -0.900919 2.399791 0.586076
v 0.918419 2.399791 0.586076
v -1.242141 2.649979 0.586076
v 1.259650 1.159412 0.586076
v 1.035790 1.405362 0.586076
v 1.001417 1.314350 0.586076
v 1.259650 1.159412 0.586076
v 1.035790 2.271073 0.586076
v 1.035790 1.405362 0.586076
v 1.259650 1.159412 0.586076
v 1.259650 2.649979 0.586076
v 1.035790 2.271073 0.586076
v -1.242141 2.649979 0.586076
v 0.918419 2.399791 0.586076
v 1.259650 2.649979 0.586076
v 1.035790 2.271073 0.586076
v 1.259650 2.649979 0.586076
v 1.001417 2.362086 0.586076
v 1.001417 2.362086 0.586076
v 1.259650 2.649979 0.586076
v 0.918419 2.399791 0.586076
v 1.259650 2.649979 0.316358
v -1.242141 2.649979 0.586076
v 1.259650 2.649979 0.586076
v 1.259650 2.649979 0.316358
v -1.242141 2.649979 0.316358
v -1.242141 2.649979 0.586076
v 1.259650 2.649979 0.316358
v -1.242141 2.649979 -0.508022
v -1.242141 2.649979 0.316358
v 1.259650 2.649979 0.316358
v 1.259650 2.649979 -0.508022
v -1.242141 2.649979 -0.508022
v 0.355864 1.164324 0.619908
v 0.355864 0.752868 0.619908
v 1.044195 0.752868 0.619908
v 0.355864 1.164324 0.619908
v 0.355864 1.164324 0.565838
v 0.355864 0.752868 0.619908
v 0.355864 1.164324 0.619908
v 1.044195 0.752868 0.619908
v 1.044195 1.164324 0.619908
v 0.355864 1.164324 0.619908
v 1.044195 1.164324 0.619908
v 0.355864 1.164324 0.565838
v 0.355864 1.164324 0.565838
v 0.355864 0.752868 0.565838
v 0.355864 0.752868 0.619908
v 1.044195 1.164324 0.619908
v 1.044195 1.164324 0.565838
v 0.355864 1.164324 0.565838
v 1.259650 1.159412 0.586076
v 1.259650 0.024222 0.586076
v 1.259650 1.159412 0.316357
v 1.259650 1.159412 0.586076
v 1.259650 1.159412 0.316357
v 1.259650 2.649979 0.316358
v 1.259650 1.159412 0.586076
v 1.259650 2.649979 0.316358
v 1.259650 2.649979 0.586076
v 1.259650 0.024222 0.586076
v 1.259650 0.024222 0.316357
v 1.259650 1.159412 0.316357
v -1.242141 1.159412 0.316357
v -1.242141 0.024222 0.316357
v -1.242141 1.159412 0.586076
v -1.242141 1.159412 0.316357
v -1.242141 1.159412 0.586076
v -1.242141 2.649979 0.586076
v -1.242141 1.159412 0.316357
v -1.242141 2.649979 0.586076
v -1.242141 2.649979 0.316358
v -1.242141 0.024222 0.316357
v -1.242141 0.024222 0.586076
v -1.242141 1.159412 0.586076
v 1.259650 1.159412 0.316357
v 1.259650 0.024222 0.316357
v 1.259650 1.159412 -0.508022
v 1.259650 1.159412 0.316357
v 1.259650 1.159412 -0.508022
v 1.259650 2.649979 -0.508022
v 1.259650 1.159412 0.316357
v 1.259650 2.649979 -0.508022
v 1.259650 2.649979 0.316358
v 1.259650 0.024222 0.316357
v 1.259650 0.024222 -0.508022
v 1.259650 1.159412 -0.508022
v -1.242141 1.159412 -0.508022
v -1.242141 2.649979 0.316358
v -1.242141 2.649979 -0.508022
v -1.242141 1.159412 -0.508022
v -1.242141 1.159412 0.316357
v -1.242141 2.649979 0.316358
v -1.242141 1.159412 -0.508022
v -1.242141 0.024222 -0.508022
v -1.242141 1.159412 0.316357
v -1.242141 0.024222 -0.508022
v -1.242141 0.024222 0.316357
v -1.242141 1.159412 0.316357
v 1.044195 0.752868 0.565838
v 1.044195 1.164324 0.619908
v 1.044195 0.752868 0.619908
v 1.044195 0.752868 0.565838
v 1.044195 1.164324 0.565838
v 1.044195 1.164324 0.619908
v -0.996092 -0.076622 0.306490
v -1.379204 -0.076623 0.689602
v 0.996092 -0.076622 0.306490
v 0.996092 -0.076622 0.306490
v -1.379204 -0.076623 0.689602
v 1.379204 -0.076623 0.689602
v -1.379204 -0.076623 0.689602
v -0.996092 -0.076622 0.306490
v -1.379204 -0.076622 -0.689602
v -1.379204 -0.076622 -0.689602
v -0.996092 -0.076622 0.306490
v -0.996092 -0.076622 -0.306490
v 0.996092 -0.076622 0.306490
v 1.379204 -0.076623 0.689602
v 0.996092 -0.076622 -0.306490
v 0.996092 -0.076622 -0.306490
v 1.379204 -0.076623 0.689602
v 1.379204 -0.076622 -0.689602
v 1.379204 -0.076622 -0.689602
v -1.379204 -0.076622 -0.689602
v 0.996092 -0.076622 -0.306490
v 0.996092 -0.076622 -0.306490
v -1.379204 -0.076622 -0.689602
v -0.996092 -0.076622 -0.306490
v 0.996092 -0.076622 0.306490
v 0.996092 -0.076622 -0.306490
v -0.996092 -0.076622 0.306490
v -0.996092 -0.076622 0.306490
v 0.996092 -0.076622 -0.306490
v -0.996092 -0.076622 -0.306490
vt 0.500000 0.968750
vt 0.500000 0.031250
vt 0.412056 0.753757
vt 0.451754 0.753757
vt 0.412056 0.994572
vt 0.451754 0.994572
vt 0.501315 0.753757
vt 0.501315 0.994572
vt 0.550876 0.753757
vt 0.550876 0.994572
vt 0.590573 0.753757
vt 0.590573 0.994572
vt 0.620768 0.753757
vt 0.620768 0.994572
vt 0.238571 0.260216
vt 0.182207 0.357845
vt 0.069475 0.357845
vt 0.013108 0.260216
vt 0.182207 0.162588
vt 0.069472 0.162588
vt 0.662763 0.753757
vt 0.702461 0.753757
vt 0.662763 0.994572
vt 0.702461 0.994572
vt 0.752022 0.753757
vt 0.752022 0.994572
vt 0.801583 0.753757
vt 0.801583 0.994572
vt 0.841280 0.753757
vt 0.841280 0.994572
vt 0.871475 0.753757
vt 0.871475 0.994572
vt 0.591679 0.752816
vt 0.228780 0.252946
vt 0.069493 0.344911
vt 0.016395 0.252946
vt 0.175686 0.160980
vt 0.175686 0.344911
vt 0.069490 0.160980
vt 0.032738 0.379445
vt 0.072436 0.379445
vt 0.032738 0.620260
vt 0.072436 0.620260
vt 0.121997 0.379445
vt 0.121997 0.620260
vt 0.171558 0.379445
vt 0.171558 0.620260
vt 0.211255 0.379445
vt 0.211255 0.620260
vt 0.241450 0.379445
vt 0.241450 0.620260
vt 0.167320 0.993138
vt 0.027300 0.993138
vt 0.167320 0.924836
vt 0.027300 0.924836
vt 0.167320 0.902661
vt 0.027300 0.902661
vt 0.010434 0.993138
vt 0.010434 0.924836
vt 0.364181 0.993764
vt 0.318842 0.993764
vt 0.364181 0.939276
vt 0.318841 0.939276
vt 0.941005 0.993764
vt 0.978129 0.993764
vt 0.941005 0.939276
vt 0.978129 0.939276
vt 0.426332 0.574000
vt 0.439044 0.561982
vt 0.426332 0.337931
vt 0.439044 0.347887
vt 0.445710 0.309048
vt 0.467143 0.317152
vt 0.587497 0.309048
vt 0.596099 0.317152
vt 0.938739 0.329712
vt 0.930787 0.347887
vt 0.938739 0.579679
vt 0.930787 0.561982
vt 0.450358 0.598547
vt 0.920811 0.598547
vt 0.467143 0.592717
vt 0.902687 0.592717
vt 0.447274 0.583715
vt 0.436030 0.590328
vt 0.447274 0.326154
vt 0.435225 0.312655
vt 0.902687 0.317152
vt 0.922737 0.326154
vt 0.924595 0.309048
vt 0.932410 0.315152
vt 0.922556 0.583715
vt 0.935196 0.593792
vt 0.684240 0.309048
vt 0.684085 0.317152
vt 0.482741 0.575137
vt 0.482741 0.520358
vt 0.891178 0.575137
vt 0.891178 0.520358
vt 0.482741 0.351514
vt 0.891178 0.351514
vt 0.445215 0.289158
vt 0.445214 0.195273
vt 0.710936 0.289158
vt 0.710935 0.195273
vt 0.385454 0.289158
vt 0.385454 0.018099
vt 0.385454 0.645075
vt 0.445214 0.018099
vt 0.710935 0.018099
vt 0.984377 0.289158
vt 0.984377 0.018099
vt 0.984377 0.645075
vt 0.984377 0.710089
vt 0.975652 0.652654
vt 0.984377 0.652654
vt 0.975652 0.710089
vt 0.975652 0.895779
vt 0.984377 0.895779
vt 0.020497 0.876076
vt 0.020497 0.678399
vt 0.335718 0.678399
vt 0.012501 0.876076
vt 0.335718 0.876076
vt 0.020497 0.886419
vt 0.012501 0.678399
vt 0.335718 0.886419
vt 0.277136 0.637191
vt 0.277136 0.629967
vt 0.334418 0.637191
vt 0.334418 0.645075
vt 0.277136 0.645075
vt 0.334418 0.629967
vt 0.314658 0.637191
vt 0.314658 0.629967
vt 0.369465 0.637191
vt 0.369465 0.645075
vt 0.314658 0.645075
vt 0.369465 0.629967
vt 0.264469 0.637191
vt 0.264469 0.629967
vt 0.040454 0.637191
vt 0.040454 0.645075
vt 0.264469 0.645075
vt 0.040454 0.629967
vt 0.342322 0.678399
vt 0.342322 0.876076
g polySurface53_polySurface53_shadow1.png.056
usemtl shadow1.png.056
s off
f 1111/1 1112/2 1113/1
f 1114/1 1115/2 1116/2
f 1117/2 1118/1 1119/2
f 1120/2 1121/1 1122/1
f 1123/1 1124/2 1125/1
f 1126/1 1127/2 1128/2
f 1129/2 1130/2 1131/1
f 1132/1 1133/2 1134/1
f 1135/1 1136/1 1137/1
f 1138/1 1139/1 1140/1
g polySurface53_polySurface53_jidouhanbaik.png
usemtl jidouhanbaik.png
f 1/3 2/4 3/5
f 4/5 5/4 6/6
f 7/4 8/7 9/6
f 10/6 11/7 12/8
f 13/7 14/9 15/8
f 16/8 17/9 18/10
f 19/9 20/11 21/10
f 22/10 23/11 24/12
f 25/11 26/13 27/12
f 28/12 29/13 30/14
f 31/15 32/16 33/17
f 34/15 35/18 36/19
f 37/15 38/17 39/18
f 40/19 41/18 42/20
f 43/3 44/4 45/5
f 46/5 47/4 48/6
f 49/4 50/7 51/6
f 52/6 53/7 54/8
f 55/7 56/9 57/8
f 58/8 59/9 60/10
f 61/9 62/11 63/10
f 64/10 65/11 66/12
f 67/11 68/13 69/12
f 70/12 71/13 72/14
f 73/15 74/16 75/17
f 76/15 77/18 78/19
f 79/15 80/17 81/18
f 82/19 83/18 84/20
f 85/21 86/22 87/23
f 88/23 89/22 90/24
f 91/22 92/25 93/24
f 94/24 95/25 96/26
f 97/25 98/27 99/26
f 100/26 101/27 102/28
f 103/27 104/29 105/28
f 106/28 107/29 108/30
f 109/29 110/31 111/30
f 112/30 113/31 114/32
f 115/15 116/16 117/17
f 118/15 119/18 120/19
f 121/15 122/17 123/18
f 124/19 125/18 126/20
f 127/21 128/22 129/23
f 130/23 131/22 132/24
f 133/22 134/25 135/24
f 136/24 137/25 138/26
f 139/25 140/27 141/26
f 142/26 143/27 144/28
f 145/27 146/29 147/28
f 148/28 149/29 150/30
f 151/29 152/31 153/30
f 154/30 155/31 156/32
f 157/15 158/16 159/17
f 160/15 161/18 162/19
f 163/15 164/17 165/18
f 166/19 167/18 168/20
f 169/21 170/22 171/23
f 172/23 173/22 174/24
f 175/22 176/25 177/24
f 178/24 179/25 180/26
f 181/25 182/27 183/26
f 184/26 185/27 186/28
f 187/27 188/29 189/28
f 190/28 191/29 192/30
f 193/29 194/31 195/30
f 196/30 197/31 198/32
f 199/15 200/16 201/17
f 202/15 203/18 204/19
f 205/15 206/17 207/18
f 208/19 209/18 210/20
f 211/6 212/5 213/4
f 214/4 215/5 216/3
f 217/8 218/6 219/7
f 220/7 221/6 222/4
f 223/10 224/8 225/9
f 226/9 227/8 228/7
f 229/12 230/10 231/33
f 232/33 233/10 234/9
f 235/34 236/35 237/36
f 238/13 239/14 240/33
f 241/33 242/14 243/12
f 244/36 245/37 246/34
f 247/35 248/34 249/38
f 250/37 251/36 252/39
f 253/40 254/41 255/42
f 256/42 257/41 258/43
f 259/41 260/44 261/43
f 262/43 263/44 264/45
f 265/44 266/46 267/45
f 268/45 269/46 270/47
f 271/46 272/48 273/47
f 274/47 275/48 276/49
f 277/48 278/50 279/49
f 280/49 281/50 282/51
f 283/15 284/16 285/17
f 286/15 287/18 288/19
f 289/15 290/17 291/18
f 292/19 293/18 294/20
f 295/40 296/41 297/42
f 298/42 299/41 300/43
f 301/41 302/44 303/43
f 304/43 305/44 306/45
f 307/44 308/46 309/45
f 310/45 311/46 312/47
f 313/46 314/48 315/47
f 316/47 317/48 318/49
f 319/48 320/50 321/49
f 322/49 323/50 324/51
f 325/15 326/16 327/17
f 328/15 329/18 330/19
f 331/15 332/17 333/18
f 334/19 335/18 336/20
f 337/40 338/41 339/42
f 340/42 341/41 342/43
f 343/41 344/44 345/43
f 346/43 347/44 348/45
f 349/44 350/46 351/45
f 352/45 353/46 354/47
f 355/46 356/48 357/47
f 358/47 359/48 360/49
f 361/48 362/50 363/49
f 364/49 365/50 366/51
f 367/15 368/16 369/17
f 370/15 371/18 372/19
f 373/15 374/17 375/18
f 376/19 377/18 378/20
f 379/40 380/41 381/42
f 382/42 383/41 384/43
f 385/41 386/44 387/43
f 388/43 389/44 390/45
f 391/44 392/46 393/45
f 394/45 395/46 396/47
f 397/46 398/48 399/47
f 400/47 401/48 402/49
f 403/48 404/50 405/49
f 406/49 407/50 408/51
f 409/15 410/16 411/17
f 412/15 413/18 414/19
f 415/15 416/17 417/18
f 418/19 419/18 420/20
f 421/40 422/41 423/42
f 424/42 425/41 426/43
f 427/41 428/44 429/43
f 430/43 431/44 432/45
f 433/44 434/46 435/45
f 436/45 437/46 438/47
f 439/46 440/48 441/47
f 442/47 443/48 444/49
f 445/48 446/50 447/49
f 448/49 449/50 450/51
f 451/15 452/16 453/17
f 454/15 455/18 456/19
f 457/15 458/17 459/18
f 460/19 461/18 462/20
f 463/40 464/41 465/42
f 466/42 467/41 468/43
f 469/41 470/44 471/43
f 472/43 473/44 474/45
f 475/44 476/46 477/45
f 478/45 479/46 480/47
f 481/46 482/48 483/47
f 484/47 485/48 486/49
f 487/48 488/50 489/49
f 490/49 491/50 492/51
f 493/15 494/16 495/17
f 496/15 497/18 498/19
f 499/15 500/17 501/18
f 502/19 503/18 504/20
f 505/52 506/53 507/54
f 508/54 509/53 510/55
f 511/54 512/55 513/56
f 514/56 515/55 516/57
f 517/53 518/58 519/55
f 520/55 521/58 522/59
f 523/58 524/53 525/59
f 526/59 527/53 528/55
f 529/52 530/53 531/54
f 532/54 533/53 534/55
f 535/54 536/55 537/56
f 538/56 539/55 540/57
f 541/53 542/58 543/55
f 544/55 545/58 546/59
f 547/58 548/53 549/59
f 550/59 551/53 552/55
f 553/52 554/53 555/54
f 556/54 557/53 558/55
f 559/54 560/55 561/56
f 562/56 563/55 564/57
f 565/53 566/58 567/55
f 568/55 569/58 570/59
f 571/58 572/53 573/59
f 574/59 575/53 576/55
f 577/52 578/53 579/54
f 580/54 581/53 582/55
f 583/54 584/55 585/56
f 586/56 587/55 588/57
f 589/53 590/58 591/55
f 592/55 593/58 594/59
f 595/58 596/53 597/59
f 598/59 599/53 600/55
f 601/52 602/53 603/54
f 604/54 605/53 606/55
f 607/54 608/55 609/56
f 610/56 611/55 612/57
f 613/53 614/58 615/55
f 616/55 617/58 618/59
f 619/58 620/53 621/59
f 622/59 623/53 624/55
f 625/52 626/53 627/54
f 628/54 629/53 630/55
f 631/54 632/55 633/56
f 634/56 635/55 636/57
f 637/53 638/58 639/55
f 640/55 641/58 642/59
f 643/58 644/53 645/59
f 646/59 647/53 648/55
f 649/52 650/53 651/54
f 652/54 653/53 654/55
f 655/54 656/55 657/56
f 658/56 659/55 660/57
f 661/53 662/58 663/55
f 664/55 665/58 666/59
f 667/58 668/53 669/59
f 670/59 671/53 672/55
f 673/52 674/53 675/54
f 676/54 677/53 678/55
f 679/54 680/55 681/56
f 682/56 683/55 684/57
f 685/53 686/58 687/55
f 688/55 689/58 690/59
f 691/58 692/53 693/59
f 694/59 695/53 696/55
f 697/52 698/53 699/54
f 700/54 701/53 702/55
f 703/54 704/55 705/56
f 706/56 707/55 708/57
f 709/53 710/58 711/55
f 712/55 713/58 714/59
f 715/58 716/53 717/59
f 718/59 719/53 720/55
f 721/52 722/53 723/54
f 724/54 725/53 726/55
f 727/54 728/55 729/56
f 730/56 731/55 732/57
f 733/53 734/58 735/55
f 736/55 737/58 738/59
f 739/58 740/53 741/59
f 742/59 743/53 744/55
f 745/52 746/53 747/54
f 748/54 749/53 750/55
f 751/54 752/55 753/56
f 754/56 755/55 756/57
f 757/53 758/58 759/55
f 760/55 761/58 762/59
f 763/58 764/53 765/59
f 766/59 767/53 768/55
f 769/52 770/53 771/54
f 772/54 773/53 774/55
f 775/54 776/55 777/56
f 778/56 779/55 780/57
f 781/53 782/58 783/55
f 784/55 785/58 786/59
f 787/58 788/53 789/59
f 790/59 791/53 792/55
f 793/60 794/61 795/62
f 796/62 797/61 798/63
f 799/62 800/63 801/60
f 802/60 803/63 804/61
f 805/64 806/65 807/66
f 808/66 809/65 810/67
f 811/65 812/64 813/67
f 814/67 815/64 816/66
f 817/60 818/61 819/62
f 820/62 821/61 822/63
f 823/62 824/63 825/60
f 826/60 827/63 828/61
f 829/64 830/65 831/66
f 832/66 833/65 834/67
f 835/65 836/64 837/67
f 838/67 839/64 840/66
f 841/68 842/69 843/70
f 844/70 845/69 846/71
f 847/72 848/73 849/74
f 850/74 851/73 852/75
f 853/76 854/77 855/78
f 856/78 857/77 858/79
f 859/80 860/81 861/82
f 862/82 863/81 864/83
f 865/82 866/84 867/80
f 868/80 869/84 870/85
f 871/84 872/69 873/85
f 874/85 875/69 876/68
f 877/71 878/86 879/70
f 880/70 881/86 882/87
f 883/86 884/73 885/87
f 886/87 887/73 888/72
f 889/88 890/89 891/90
f 892/90 893/89 894/91
f 895/89 896/77 897/91
f 898/91 899/77 900/76
f 901/79 902/92 903/78
f 904/78 905/92 906/93
f 907/92 908/83 909/93
f 910/93 911/83 912/81
f 913/74 914/75 915/94
f 916/94 917/75 918/95
f 919/94 920/95 921/90
f 922/90 923/95 924/88
f 925/96 926/97 927/98
f 928/98 929/97 930/99
f 931/97 932/100 933/99
f 934/99 935/100 936/101
f 937/102 938/103 939/104
f 940/104 941/103 942/105
f 943/106 944/107 945/103
f 946/106 947/103 948/102
f 949/106 950/102 951/73
f 952/106 953/73 954/86
f 955/106 956/86 957/71
f 958/106 959/71 960/69
f 961/106 962/69 963/108
f 964/107 965/109 966/103
f 967/102 968/75 969/73
f 970/102 971/104 972/75
f 973/69 974/84 975/108
f 976/109 977/105 978/103
f 979/109 980/110 981/105
f 982/104 983/95 984/75
f 985/104 986/105 987/111
f 988/104 989/88 990/95
f 991/104 992/111 993/88
f 994/84 995/82 996/108
f 997/110 998/112 999/105
f 1000/105 1001/112 1002/111
f 1003/88 1004/111 1005/89
f 1006/82 1007/83 1008/108
f 1009/111 1010/77 1011/89
f 1012/111 1013/79 1014/77
f 1015/111 1016/113 1017/79
f 1018/108 1019/83 1020/113
f 1021/79 1022/113 1023/92
f 1024/92 1025/113 1026/83
f 1027/114 1028/115 1029/116
f 1030/114 1031/117 1032/115
f 1033/114 1034/118 1035/117
f 1036/114 1037/119 1038/118
f 1039/120 1040/121 1041/122
f 1042/120 1043/123 1044/121
f 1045/120 1046/122 1047/124
f 1048/120 1049/124 1050/125
f 1051/123 1052/126 1053/121
f 1054/124 1055/127 1056/125
f 1057/128 1058/129 1059/130
f 1060/128 1061/130 1062/131
f 1063/128 1064/131 1065/132
f 1066/129 1067/133 1068/130
f 1069/134 1070/135 1071/136
f 1072/134 1073/136 1074/137
f 1075/134 1076/137 1077/138
f 1078/135 1079/139 1080/136
f 1081/140 1082/141 1083/142
f 1084/140 1085/142 1086/143
f 1087/140 1088/143 1089/144
f 1090/141 1091/145 1092/142
f 1093/142 1094/144 1095/143
f 1096/142 1097/140 1098/144
f 1099/142 1100/145 1101/140
f 1102/145 1103/141 1104/140
f 1105/146 1106/124 1107/122
f 1108/146 1109/147 1110/124
